SplineFontDB: 3.2
FontName: roboto31
FullName: roboto31
FamilyName: roboto31
Weight: Regular
Copyright: Copyright 2011 Google Inc. All Rights Reserved.
Version: 2.137; 2017
ItalicAngle: 0
UnderlinePosition: -200
UnderlineWidth: 100
Ascent: 1536
Descent: 512
InvalidEm: 0
sfntRevision: 0x00022312
LayerCount: 2
Layer: 0 1 "Back" 1
Layer: 1 1 "Fore" 0
XUID: [1021 242 -508030597 11788796]
StyleMap: 0x0040
FSType: 0
OS2Version: 3
OS2_WeightWidthSlopeOnly: 0
OS2_UseTypoMetrics: 0
CreationTime: 1221222574
ModificationTime: 1732971902
PfmFamily: 17
TTFWeight: 400
TTFWidth: 5
LineGap: 0
VLineGap: 0
Panose: 2 0 0 0 0 0 0 0 0 0
OS2TypoAscent: 1536
OS2TypoAOffset: 0
OS2TypoDescent: -512
OS2TypoDOffset: 0
OS2TypoLinegap: 102
OS2WinAscent: 1946
OS2WinAOffset: 0
OS2WinDescent: 512
OS2WinDOffset: 0
HheadAscent: 1900
HheadAOffset: 0
HheadDescent: -500
HheadDOffset: 0
OS2SubXSize: 1434
OS2SubYSize: 1331
OS2SubXOff: 0
OS2SubYOff: 287
OS2SupXSize: 1434
OS2SupYSize: 1331
OS2SupXOff: 0
OS2SupYOff: 977
OS2StrikeYSize: 102
OS2StrikeYPos: 512
OS2CapHeight: 1456
OS2XHeight: 1082
OS2Vendor: 'GOOG'
OS2CodePages: 2000019f.00000000
OS2UnicodeRanges: e00002ff.5000205b.00000020.00000000
Lookup: 1 0 0 "'c2sc' Capitals to Small Capitals lookup 0" { "'c2sc' Capitals to Small Capitals lookup 0 subtable"  } ['c2sc' ('DFLT' <'dflt' > 'cyrl' <'dflt' > 'grek' <'dflt' > 'latn' <'AZE ' 'CRT ' 'FRA ' 'MOL ' 'NAV ' 'ROM ' 'TRK ' 'dflt' > ) ]
Lookup: 1 0 0 "'smcp' Lowercase to Small Capitals lookup 1" { "'smcp' Lowercase to Small Capitals lookup 1 subtable"  } ['smcp' ('DFLT' <'dflt' > 'cyrl' <'dflt' > 'grek' <'dflt' > 'latn' <'AZE ' 'CRT ' 'FRA ' 'MOL ' 'NAV ' 'ROM ' 'TRK ' 'dflt' > ) ]

StartChar: .notdef
Encoding: 65536 -1 0
Width: 908
GlyphClass: 1
Flags: W
LayerCount: 2
Fore
SplineSet
808 0 m 1,0,-1
 100 0 l 1,1,-1
 100 1456 l 1,2,-1
 808 1456 l 1,3,-1
 808 0 l 1,0,-1
754 84 m 1,4,-1
 754 1371 l 1,5,-1
 480 728 l 1,6,-1
 754 84 l 1,4,-1
154 1359 m 1,7,-1
 154 96 l 1,8,-1
 422 728 l 1,9,-1
 154 1359 l 1,7,-1
194 54 m 1,10,-1
 709 54 l 1,11,-1
 451 660 l 1,12,-1
 194 54 l 1,10,-1
451 796 m 1,13,-1
 709 1402 l 1,14,-1
 194 1402 l 1,15,-1
 451 796 l 1,13,-1
EndSplineSet
EndChar

StartChar: exclam
Encoding: 33 33 5
Width: 527
GlyphClass: 1
Flags: W
LayerCount: 2
Fore
SplineSet
347 411 m 1,0,-1
 180 411 l 1,1,-1
 167 1456 l 1,2,-1
 361 1456 l 1,3,-1
 347 411 l 1,0,-1
160 93 m 256,4,5
 160 138 160 138 187.5 168.5 c 128,-1,6
 215 199 215 199 269 199 c 128,-1,7
 323 199 323 199 351 168.5 c 128,-1,8
 379 138 379 138 379 93 c 128,-1,9
 379 48 379 48 351 18.5 c 128,-1,10
 323 -11 323 -11 269 -11 c 128,-1,11
 215 -11 215 -11 187.5 18.5 c 128,-1,12
 160 48 160 48 160 93 c 256,4,5
EndSplineSet
EndChar

StartChar: quotedbl
Encoding: 34 34 6
Width: 655
GlyphClass: 1
Flags: W
LayerCount: 2
Fore
SplineSet
277 1400 m 1,0,-1
 247 1042 l 1,1,-1
 136 1042 l 1,2,-1
 137 1536 l 1,3,-1
 277 1536 l 1,4,-1
 277 1400 l 1,0,-1
547 1400 m 1,5,-1
 517 1042 l 1,6,-1
 406 1042 l 1,7,-1
 407 1536 l 1,8,-1
 547 1536 l 1,9,-1
 547 1400 l 1,5,-1
EndSplineSet
EndChar

StartChar: numbersign
Encoding: 35 35 7
Width: 1261
GlyphClass: 1
Flags: W
LayerCount: 2
Fore
SplineSet
765 410 m 1,0,-1
 501 410 l 1,1,-1
 421 0 l 1,2,-1
 278 0 l 1,3,-1
 358 410 l 1,4,-1
 119 410 l 1,5,-1
 119 547 l 1,6,-1
 384 547 l 1,7,-1
 453 901 l 1,8,-1
 195 901 l 1,9,-1
 195 1040 l 1,10,-1
 480 1040 l 1,11,-1
 562 1456 l 1,12,-1
 705 1456 l 1,13,-1
 623 1040 l 1,14,-1
 887 1040 l 1,15,-1
 969 1456 l 1,16,-1
 1113 1456 l 1,17,-1
 1031 1040 l 1,18,-1
 1235 1040 l 1,19,-1
 1235 901 l 1,20,-1
 1004 901 l 1,21,-1
 935 547 l 1,22,-1
 1160 547 l 1,23,-1
 1160 410 l 1,24,-1
 909 410 l 1,25,-1
 829 0 l 1,26,-1
 685 0 l 1,27,-1
 765 410 l 1,0,-1
527 547 m 1,28,-1
 791 547 l 1,29,-1
 860 901 l 1,30,-1
 596 901 l 1,31,-1
 527 547 l 1,28,-1
EndSplineSet
EndChar

StartChar: dollar
Encoding: 36 36 8
Width: 1150
GlyphClass: 1
Flags: W
LayerCount: 2
Fore
SplineSet
856 375 m 0,0,1
 856 467 856 467 791.5 530 c 128,-1,2
 727 593 727 593 574 644 c 1,3,4
 361 709 361 709 263.5 813.5 c 128,-1,5
 166 918 166 918 166 1079 c 0,6,7
 166 1243 166 1243 261.5 1348 c 128,-1,8
 357 1453 357 1453 524 1473 c 1,9,-1
 524 1692 l 1,10,-1
 673 1692 l 1,11,-1
 673 1472 l 1,12,13
 841 1449 841 1449 934.5 1331 c 128,-1,14
 1028 1213 1028 1213 1028 1008 c 1,15,-1
 844 1008 l 1,16,17
 844 1149 844 1149 777 1232 c 128,-1,18
 710 1315 710 1315 596 1315 c 0,19,20
 477 1315 477 1315 414 1253.5 c 128,-1,21
 351 1192 351 1192 351 1082 c 0,22,23
 351 980 351 980 417.5 919.5 c 128,-1,24
 484 859 484 859 636.5 809.5 c 128,-1,25
 789 760 789 760 874.5 700.5 c 128,-1,26
 960 641 960 641 1000.5 562 c 128,-1,27
 1041 483 1041 483 1041 377 c 0,28,29
 1041 208 1041 208 939.5 105 c 128,-1,30
 838 2 838 2 655 -17 c 1,31,-1
 655 -208 l 1,32,-1
 507 -208 l 1,33,-1
 507 -17 l 1,34,35
 321 0 321 0 215.5 115.5 c 128,-1,36
 110 231 110 231 110 429 c 1,37,-1
 295 429 l 1,38,39
 295 290 295 290 368 215 c 128,-1,40
 441 140 441 140 575 140 c 0,41,42
 706 140 706 140 781 203 c 128,-1,43
 856 266 856 266 856 375 c 0,0,1
EndSplineSet
Substitution2: "'c2sc' Capitals to Small Capitals lookup 0 subtable" dollar.c2sc
Position2: "'cpsp' Capital Spacing lookup 0 subtable" dx=36 dy=0 dh=72 dv=0
EndChar

StartChar: percent
Encoding: 37 37 9
Width: 1500
GlyphClass: 1
Flags: W
LayerCount: 2
Fore
SplineSet
105 1176 m 2,0,1
 105 1307 105 1307 188.5 1392 c 128,-1,2
 272 1477 272 1477 403 1477 c 0,3,4
 536 1477 536 1477 618.5 1391.5 c 128,-1,5
 701 1306 701 1306 701 1170 c 2,6,-1
 701 1099 l 2,7,8
 701 967 701 967 617.5 883.5 c 128,-1,9
 534 800 534 800 405 800 c 0,10,11
 275 800 275 800 190 883.5 c 128,-1,12
 105 967 105 967 105 1106 c 2,13,-1
 105 1176 l 2,0,1
243 1099 m 2,14,15
 243 1021 243 1021 287 970.5 c 128,-1,16
 331 920 331 920 405 920 c 0,17,18
 476 920 476 920 519.5 969 c 128,-1,19
 563 1018 563 1018 563 1103 c 2,20,-1
 563 1176 l 2,21,22
 563 1254 563 1254 520 1305 c 128,-1,23
 477 1356 477 1356 403 1356 c 128,-1,24
 329 1356 329 1356 286 1305 c 128,-1,25
 243 1254 243 1254 243 1172 c 2,26,-1
 243 1099 l 2,14,15
814 357 m 2,27,28
 814 488 814 488 897.5 572.5 c 128,-1,29
 981 657 981 657 1112 657 c 128,-1,30
 1243 657 1243 657 1327 573 c 128,-1,31
 1411 489 1411 489 1411 350 c 2,32,-1
 1411 279 l 2,33,34
 1411 148 1411 148 1327.5 63.5 c 128,-1,35
 1244 -21 1244 -21 1114 -21 c 128,-1,36
 984 -21 984 -21 899 62.5 c 128,-1,37
 814 146 814 146 814 285 c 2,38,-1
 814 357 l 2,27,28
952 279 m 2,39,40
 952 200 952 200 996 149.5 c 128,-1,41
 1040 99 1040 99 1114 99 c 0,42,43
 1186 99 1186 99 1229 148.5 c 128,-1,44
 1272 198 1272 198 1272 283 c 2,45,-1
 1272 357 l 2,46,47
 1272 436 1272 436 1228.5 486 c 128,-1,48
 1185 536 1185 536 1112 536 c 0,49,50
 1041 536 1041 536 996.5 486.5 c 128,-1,51
 952 437 952 437 952 353 c 2,52,-1
 952 279 l 2,39,40
447 110 m 1,53,-1
 342 176 l 1,54,-1
 1053 1314 l 1,55,-1
 1158 1248 l 1,56,-1
 447 110 l 1,53,-1
EndSplineSet
EndChar

StartChar: ampersand
Encoding: 38 38 10
Width: 1273
GlyphClass: 1
Flags: W
LayerCount: 2
Fore
SplineSet
101 391 m 0,0,1
 101 496 101 496 159.5 584 c 128,-1,2
 218 672 218 672 383 789 c 1,3,4
 286 907 286 907 253 979 c 128,-1,5
 220 1051 220 1051 220 1122 c 0,6,7
 220 1288 220 1288 318 1382 c 128,-1,8
 416 1476 416 1476 584 1476 c 0,9,10
 734 1476 734 1476 832 1388.5 c 128,-1,11
 930 1301 930 1301 930 1168 c 0,12,13
 930 1080 930 1080 885.5 1005.5 c 128,-1,14
 841 931 841 931 730 849 c 2,15,-1
 623 770 l 1,16,-1
 947 383 l 1,17,18
 1015 513 1015 513 1015 672 c 1,19,-1
 1182 672 l 1,20,21
 1182 417 1182 417 1059 249 c 1,22,-1
 1267 0 l 1,23,-1
 1045 0 l 1,24,-1
 948 115 l 1,25,26
 874 49 874 49 774.5 14.5 c 128,-1,27
 675 -20 675 -20 572 -20 c 0,28,29
 359 -20 359 -20 230 93 c 128,-1,30
 101 206 101 206 101 391 c 0,0,1
572 131 m 0,31,32
 719 131 719 131 841 243 c 1,33,-1
 486 668 l 1,34,-1
 453 644 l 2,35,36
 286 521 286 521 286 391 c 0,37,38
 286 273 286 273 362.5 202 c 128,-1,39
 439 131 439 131 572 131 c 0,31,32
405 1128 m 0,40,41
 405 1032 405 1032 523 888 c 1,42,-1
 641 971 l 2,43,44
 709 1019 709 1019 734 1062.5 c 128,-1,45
 759 1106 759 1106 759 1168 c 0,46,47
 759 1235 759 1235 709 1279.5 c 128,-1,48
 659 1324 659 1324 583 1324 c 0,49,50
 501 1324 501 1324 453 1268.5 c 128,-1,51
 405 1213 405 1213 405 1128 c 0,40,41
EndSplineSet
Substitution2: "'smcp' Lowercase to Small Capitals lookup 1 subtable" ampersand.c2sc
Substitution2: "'c2sc' Capitals to Small Capitals lookup 0 subtable" ampersand.c2sc
Position2: "'cpsp' Capital Spacing lookup 0 subtable" dx=36 dy=0 dh=72 dv=0
EndChar

StartChar: quotesingle
Encoding: 39 39 11
Width: 357
GlyphClass: 1
Flags: W
LayerCount: 2
Fore
SplineSet
253 1425 m 1,0,-1
 232 1057 l 1,1,-1
 103 1057 l 1,2,-1
 104 1536 l 1,3,-1
 253 1536 l 1,4,-1
 253 1425 l 1,0,-1
EndSplineSet
EndChar

StartChar: parenleft
Encoding: 40 40 12
Width: 700
GlyphClass: 1
Flags: W
LayerCount: 2
Fore
SplineSet
133 591 m 0,0,1
 133 817 133 817 193.5 1025 c 128,-1,2
 254 1233 254 1233 374 1403 c 128,-1,3
 494 1573 494 1573 623 1643 c 1,4,-1
 661 1521 l 1,5,6
 515 1409 515 1409 421.5 1179 c 128,-1,7
 328 949 328 949 319 664 c 1,8,-1
 318 579 l 1,9,10
 318 193 318 193 459 -91 c 0,11,12
 544 -261 544 -261 661 -357 c 1,13,-1
 623 -470 l 1,14,15
 490 -396 490 -396 369 -222 c 0,16,17
 133 118 133 118 133 591 c 0,0,1
EndSplineSet
EndChar

StartChar: parenright
Encoding: 41 41 13
Width: 712
GlyphClass: 1
Flags: W
LayerCount: 2
Fore
SplineSet
567 581 m 0,0,1
 567 358 567 358 508.5 153.5 c 128,-1,2
 450 -51 450 -51 329.5 -224 c 128,-1,3
 209 -397 209 -397 77 -470 c 1,4,-1
 38 -357 l 1,5,6
 192 -239 192 -239 285.5 9.5 c 128,-1,7
 379 258 379 258 381 561 c 2,8,-1
 381 593 l 2,9,10
 381 803 381 803 337 983.5 c 128,-1,11
 293 1164 293 1164 214.5 1307 c 128,-1,12
 136 1450 136 1450 38 1530 c 1,13,-1
 77 1643 l 1,14,15
 209 1570 209 1570 328.5 1399 c 128,-1,16
 448 1228 448 1228 507.5 1022 c 128,-1,17
 567 816 567 816 567 581 c 0,0,1
EndSplineSet
EndChar

StartChar: asterisk
Encoding: 42 42 14
Width: 882
GlyphClass: 1
Flags: W
LayerCount: 2
Fore
SplineSet
330 983 m 1,0,-1
 28 1073 l 1,1,-1
 74 1224 l 1,2,-1
 376 1112 l 1,3,-1
 367 1456 l 1,4,-1
 520 1456 l 1,5,-1
 510 1107 l 1,6,-1
 807 1217 l 1,7,-1
 853 1065 l 1,8,-1
 546 974 l 1,9,-1
 744 703 l 1,10,-1
 620 609 l 1,11,-1
 434 897 l 1,12,-1
 254 616 l 1,13,-1
 129 707 l 1,14,-1
 330 983 l 1,0,-1
EndSplineSet
EndChar

StartChar: plus
Encoding: 43 43 15
Width: 1161
GlyphClass: 1
Flags: W
LayerCount: 2
Fore
SplineSet
670 781 m 1,0,-1
 1076 781 l 1,1,-1
 1076 606 l 1,2,-1
 670 606 l 1,3,-1
 670 146 l 1,4,-1
 484 146 l 1,5,-1
 484 606 l 1,6,-1
 78 606 l 1,7,-1
 78 781 l 1,8,-1
 484 781 l 1,9,-1
 484 1206 l 1,10,-1
 670 1206 l 1,11,-1
 670 781 l 1,0,-1
EndSplineSet
EndChar

StartChar: comma
Encoding: 44 44 16
Width: 402
GlyphClass: 1
Flags: W
LayerCount: 2
Fore
SplineSet
134 -290 m 1,0,-1
 29 -218 l 1,1,2
 123 -87 123 -87 127 52 c 1,3,-1
 127 219 l 1,4,-1
 308 219 l 1,5,-1
 308 74 l 2,6,7
 308 -27 308 -27 258.5 -128 c 128,-1,8
 209 -229 209 -229 134 -290 c 1,0,-1
EndSplineSet
EndChar

StartChar: hyphen
Encoding: 45 45 17
Width: 565
GlyphClass: 1
Flags: W
LayerCount: 2
Fore
SplineSet
525 543 m 1,0,-1
 37 543 l 1,1,-1
 37 694 l 1,2,-1
 525 694 l 1,3,-1
 525 543 l 1,0,-1
EndSplineSet
EndChar

StartChar: period
Encoding: 46 46 18
Width: 539
GlyphClass: 1
Flags: W
LayerCount: 2
Fore
SplineSet
144 97 m 0,0,1
 144 145 144 145 172.5 177 c 128,-1,2
 201 209 201 209 258 209 c 128,-1,3
 315 209 315 209 344.5 177 c 128,-1,4
 374 145 374 145 374 97 c 0,5,6
 374 51 374 51 344.5 20 c 128,-1,7
 315 -11 315 -11 258 -11 c 128,-1,8
 201 -11 201 -11 172.5 20 c 128,-1,9
 144 51 144 51 144 97 c 0,0,1
EndSplineSet
EndChar

StartChar: slash
Encoding: 47 47 19
Width: 844
GlyphClass: 1
Flags: W
LayerCount: 2
Fore
SplineSet
177 -125 m 1,0,-1
 18 -125 l 1,1,-1
 626 1456 l 1,2,-1
 784 1456 l 1,3,-1
 177 -125 l 1,0,-1
EndSplineSet
Substitution2: "'frac' Diagonal Fractions lookup 22 subtable" fraction
EndChar

StartChar: zero
Encoding: 48 48 20
Width: 1150
GlyphClass: 1
Flags: W
LayerCount: 2
Fore
SplineSet
1034 621 m 2,0,1
 1034 296 1034 296 923 138 c 128,-1,2
 812 -20 812 -20 576 -20 c 0,3,4
 343 -20 343 -20 231 134.5 c 128,-1,5
 119 289 119 289 115 596 c 1,6,-1
 115 843 l 2,7,8
 115 1164 115 1164 226 1320 c 128,-1,9
 337 1476 337 1476 574 1476 c 0,10,11
 809 1476 809 1476 920 1325.5 c 128,-1,12
 1031 1175 1031 1175 1034 861 c 2,13,-1
 1034 621 l 2,0,1
849 874 m 2,14,15
 849 1109 849 1109 783 1216.5 c 128,-1,16
 717 1324 717 1324 574 1324 c 0,17,18
 432 1324 432 1324 367 1217 c 128,-1,19
 302 1110 302 1110 300 888 c 2,20,-1
 300 592 l 2,21,22
 300 356 300 356 368.5 243.5 c 128,-1,23
 437 131 437 131 576 131 c 0,24,25
 713 131 713 131 779.5 237 c 128,-1,26
 846 343 846 343 849 571 c 2,27,-1
 849 874 l 2,14,15
EndSplineSet
Substitution2: "'numr' Numerators lookup 25 subtable" zero.numr
Substitution2: "'dnom' Denominators lookup 24 subtable" zero.dnom
Substitution2: "'pnum' Proportional Numbers lookup 19 subtable" zero.pnum
Substitution2: "'onum' Oldstyle Figures lookup 18 subtable" zero.oldstyle
Substitution2: "'c2sc' Capitals to Small Capitals lookup 0 subtable" zero.c2sc
Position2: "'cpsp' Capital Spacing lookup 0 subtable" dx=36 dy=0 dh=72 dv=0
EndChar

StartChar: one
Encoding: 49 49 21
Width: 1150
GlyphClass: 1
Flags: W
LayerCount: 2
Fore
SplineSet
729 0 m 1,0,-1
 543 0 l 1,1,-1
 543 1233 l 1,2,-1
 170 1096 l 1,3,-1
 170 1264 l 1,4,-1
 700 1463 l 1,5,-1
 729 1463 l 1,6,-1
 729 0 l 1,0,-1
EndSplineSet
Substitution2: "'numr' Numerators lookup 25 subtable" uni00B9
Substitution2: "'dnom' Denominators lookup 24 subtable" one.dnom
Substitution2: "'pnum' Proportional Numbers lookup 19 subtable" one.pnum
Substitution2: "'onum' Oldstyle Figures lookup 18 subtable" one.oldstyle
Substitution2: "'c2sc' Capitals to Small Capitals lookup 0 subtable" one.c2sc
Position2: "'cpsp' Capital Spacing lookup 0 subtable" dx=36 dy=0 dh=72 dv=0
EndChar

StartChar: two
Encoding: 50 50 22
Width: 1150
GlyphClass: 1
Flags: W
LayerCount: 2
Fore
SplineSet
1075 0 m 1,0,-1
 121 0 l 1,1,-1
 121 133 l 1,2,-1
 625 693 l 2,3,4
 737 820 737 820 779.5 899.5 c 128,-1,5
 822 979 822 979 822 1064 c 0,6,7
 822 1178 822 1178 753 1251 c 128,-1,8
 684 1324 684 1324 569 1324 c 0,9,10
 431 1324 431 1324 354.5 1245.5 c 128,-1,11
 278 1167 278 1167 278 1027 c 1,12,-1
 93 1027 l 1,13,14
 93 1228 93 1228 222.5 1352 c 128,-1,15
 352 1476 352 1476 569 1476 c 0,16,17
 772 1476 772 1476 890 1369.5 c 128,-1,18
 1008 1263 1008 1263 1008 1086 c 0,19,20
 1008 871 1008 871 734 574 c 2,21,-1
 344 151 l 1,22,-1
 1075 151 l 1,23,-1
 1075 0 l 1,0,-1
EndSplineSet
Substitution2: "'numr' Numerators lookup 25 subtable" uni00B2
Substitution2: "'dnom' Denominators lookup 24 subtable" two.dnom
Substitution2: "'pnum' Proportional Numbers lookup 19 subtable" two.pnum
Substitution2: "'onum' Oldstyle Figures lookup 18 subtable" two.oldstyle
Substitution2: "'c2sc' Capitals to Small Capitals lookup 0 subtable" two.c2sc
Position2: "'cpsp' Capital Spacing lookup 0 subtable" dx=36 dy=0 dh=72 dv=0
EndChar

StartChar: three
Encoding: 51 51 23
Width: 1150
GlyphClass: 1
Flags: W
LayerCount: 2
Fore
SplineSet
390 818 m 1,0,-1
 529 818 l 2,1,2
 660 820 660 820 735 887 c 128,-1,3
 810 954 810 954 810 1068 c 0,4,5
 810 1324 810 1324 555 1324 c 0,6,7
 435 1324 435 1324 363.5 1255.5 c 128,-1,8
 292 1187 292 1187 292 1074 c 1,9,-1
 107 1074 l 1,10,11
 107 1247 107 1247 233.5 1361.5 c 128,-1,12
 360 1476 360 1476 555 1476 c 0,13,14
 761 1476 761 1476 878 1367 c 128,-1,15
 995 1258 995 1258 995 1064 c 0,16,17
 995 969 995 969 933.5 880 c 128,-1,18
 872 791 872 791 766 747 c 1,19,20
 886 709 886 709 951.5 621 c 128,-1,21
 1017 533 1017 533 1017 406 c 0,22,23
 1017 210 1017 210 889 95 c 128,-1,24
 761 -20 761 -20 556 -20 c 128,-1,25
 351 -20 351 -20 222.5 91 c 128,-1,26
 94 202 94 202 94 384 c 1,27,-1
 280 384 l 1,28,29
 280 269 280 269 355 200 c 128,-1,30
 430 131 430 131 556 131 c 0,31,32
 690 131 690 131 761 201 c 128,-1,33
 832 271 832 271 832 402 c 0,34,35
 832 529 832 529 754 597 c 128,-1,36
 676 665 676 665 529 667 c 2,37,-1
 390 667 l 1,38,-1
 390 818 l 1,0,-1
EndSplineSet
Substitution2: "'numr' Numerators lookup 25 subtable" uni00B3
Substitution2: "'dnom' Denominators lookup 24 subtable" three.dnom
Substitution2: "'pnum' Proportional Numbers lookup 19 subtable" three.pnum
Substitution2: "'onum' Oldstyle Figures lookup 18 subtable" three.oldstyle
Substitution2: "'c2sc' Capitals to Small Capitals lookup 0 subtable" three.c2sc
Position2: "'cpsp' Capital Spacing lookup 0 subtable" dx=36 dy=0 dh=72 dv=0
EndChar

StartChar: four
Encoding: 52 52 24
Width: 1150
GlyphClass: 1
Flags: W
LayerCount: 2
Fore
SplineSet
902 489 m 1,0,-1
 1104 489 l 1,1,-1
 1104 338 l 1,2,-1
 902 338 l 1,3,-1
 902 0 l 1,4,-1
 716 0 l 1,5,-1
 716 338 l 1,6,-1
 53 338 l 1,7,-1
 53 447 l 1,8,-1
 705 1456 l 1,9,-1
 902 1456 l 1,10,-1
 902 489 l 1,0,-1
263 489 m 1,11,-1
 716 489 l 1,12,-1
 716 1203 l 1,13,-1
 694 1163 l 1,14,-1
 263 489 l 1,11,-1
EndSplineSet
Substitution2: "'numr' Numerators lookup 25 subtable" four.numr
Substitution2: "'dnom' Denominators lookup 24 subtable" four.dnom
Substitution2: "'pnum' Proportional Numbers lookup 19 subtable" four.pnum
Substitution2: "'onum' Oldstyle Figures lookup 18 subtable" four.oldstyle
Substitution2: "'c2sc' Capitals to Small Capitals lookup 0 subtable" four.c2sc
Position2: "'cpsp' Capital Spacing lookup 0 subtable" dx=36 dy=0 dh=72 dv=0
EndChar

StartChar: five
Encoding: 53 53 25
Width: 1150
GlyphClass: 1
Flags: W
LayerCount: 2
Fore
SplineSet
206 730 m 1,0,-1
 280 1456 l 1,1,-1
 1026 1456 l 1,2,-1
 1026 1285 l 1,3,-1
 437 1285 l 1,4,-1
 393 888 l 1,5,6
 500 951 500 951 636 951 c 0,7,8
 835 951 835 951 952 819.5 c 128,-1,9
 1069 688 1069 688 1069 464 c 0,10,11
 1069 239 1069 239 947.5 109.5 c 128,-1,12
 826 -20 826 -20 608 -20 c 0,13,14
 415 -20 415 -20 293 87 c 128,-1,15
 171 194 171 194 154 383 c 1,16,-1
 329 383 l 1,17,18
 346 258 346 258 418 194.5 c 128,-1,19
 490 131 490 131 608 131 c 0,20,21
 737 131 737 131 810.5 219 c 128,-1,22
 884 307 884 307 884 462 c 0,23,24
 884 608 884 608 804.5 696.5 c 128,-1,25
 725 785 725 785 593 785 c 0,26,27
 472 785 472 785 403 732 c 2,28,-1
 354 692 l 1,29,-1
 206 730 l 1,0,-1
EndSplineSet
Substitution2: "'numr' Numerators lookup 25 subtable" five.numr
Substitution2: "'dnom' Denominators lookup 24 subtable" five.dnom
Substitution2: "'pnum' Proportional Numbers lookup 19 subtable" five.pnum
Substitution2: "'onum' Oldstyle Figures lookup 18 subtable" five.oldstyle
Substitution2: "'c2sc' Capitals to Small Capitals lookup 0 subtable" five.c2sc
Position2: "'cpsp' Capital Spacing lookup 0 subtable" dx=36 dy=0 dh=72 dv=0
EndChar

StartChar: six
Encoding: 54 54 26
Width: 1150
GlyphClass: 1
Flags: W
LayerCount: 2
Fore
SplineSet
847 1457 m 1,0,-1
 847 1300 l 1,1,-1
 813 1300 l 1,2,3
 597 1296 597 1296 469 1172 c 128,-1,4
 341 1048 341 1048 321 823 c 1,5,6
 436 955 436 955 635 955 c 0,7,8
 825 955 825 955 938.5 821 c 128,-1,9
 1052 687 1052 687 1052 475 c 0,10,11
 1052 250 1052 250 929.5 115 c 128,-1,12
 807 -20 807 -20 601 -20 c 0,13,14
 392 -20 392 -20 262 140.5 c 128,-1,15
 132 301 132 301 132 554 c 2,16,-1
 132 625 l 2,17,18
 132 1027 132 1027 303.5 1239.5 c 128,-1,19
 475 1452 475 1452 814 1457 c 1,20,-1
 847 1457 l 1,0,-1
604 801 m 0,21,22
 509 801 509 801 429 744 c 128,-1,23
 349 687 349 687 318 601 c 1,24,-1
 318 533 l 2,25,26
 318 353 318 353 399 243 c 128,-1,27
 480 133 480 133 601 133 c 0,28,29
 726 133 726 133 797.5 225 c 128,-1,30
 869 317 869 317 869 466 c 0,31,32
 869 616 869 616 796.5 708.5 c 128,-1,33
 724 801 724 801 604 801 c 0,21,22
EndSplineSet
Substitution2: "'numr' Numerators lookup 25 subtable" six.numr
Substitution2: "'dnom' Denominators lookup 24 subtable" six.dnom
Substitution2: "'lnum' Lining Figures lookup 21 subtable" six.pnum
Substitution2: "'tnum' Tabular Numbers lookup 20 subtable" six.oldstyle
Substitution2: "'pnum' Proportional Numbers lookup 19 subtable" six.pnum
Substitution2: "'onum' Oldstyle Figures lookup 18 subtable" six.oldstyle
Substitution2: "'c2sc' Capitals to Small Capitals lookup 0 subtable" six.c2sc
Position2: "'cpsp' Capital Spacing lookup 0 subtable" dx=36 dy=0 dh=72 dv=0
EndChar

StartChar: seven
Encoding: 55 55 27
Width: 1150
GlyphClass: 1
Flags: W
LayerCount: 2
Fore
SplineSet
1061 1352 m 1,0,-1
 458 0 l 1,1,-1
 264 0 l 1,2,-1
 865 1304 l 1,3,-1
 77 1304 l 1,4,-1
 77 1456 l 1,5,-1
 1061 1456 l 1,6,-1
 1061 1352 l 1,0,-1
EndSplineSet
Substitution2: "'numr' Numerators lookup 25 subtable" seven.numr
Substitution2: "'dnom' Denominators lookup 24 subtable" seven.dnom
Substitution2: "'pnum' Proportional Numbers lookup 19 subtable" seven.pnum
Substitution2: "'onum' Oldstyle Figures lookup 18 subtable" seven.oldstyle
Substitution2: "'c2sc' Capitals to Small Capitals lookup 0 subtable" seven.c2sc
Position2: "'cpsp' Capital Spacing lookup 0 subtable" dx=36 dy=0 dh=72 dv=0
EndChar

StartChar: eight
Encoding: 56 56 28
Width: 1150
GlyphClass: 1
Flags: W
LayerCount: 2
Fore
SplineSet
1004 1076 m 0,0,1
 1004 967 1004 967 946.5 882 c 128,-1,2
 889 797 889 797 791 749 c 1,3,4
 905 700 905 700 971.5 606 c 128,-1,5
 1038 512 1038 512 1038 393 c 0,6,7
 1038 204 1038 204 910.5 92 c 128,-1,8
 783 -20 783 -20 575 -20 c 0,9,10
 365 -20 365 -20 238.5 92.5 c 128,-1,11
 112 205 112 205 112 393 c 0,12,13
 112 511 112 511 176.5 606 c 128,-1,14
 241 701 241 701 355 750 c 1,15,16
 258 798 258 798 202 883 c 128,-1,17
 146 968 146 968 146 1076 c 0,18,19
 146 1260 146 1260 264 1368 c 128,-1,20
 382 1476 382 1476 575 1476 c 0,21,22
 767 1476 767 1476 885.5 1368 c 128,-1,23
 1004 1260 1004 1260 1004 1076 c 0,0,1
853 397 m 0,24,25
 853 519 853 519 775.5 596 c 128,-1,26
 698 673 698 673 573 673 c 128,-1,27
 448 673 448 673 372.5 597 c 128,-1,28
 297 521 297 521 297 397 c 128,-1,29
 297 273 297 273 370.5 202 c 128,-1,30
 444 131 444 131 575 131 c 0,31,32
 705 131 705 131 779 202.5 c 128,-1,33
 853 274 853 274 853 397 c 0,24,25
575 1324 m 0,34,35
 466 1324 466 1324 398.5 1256.5 c 128,-1,36
 331 1189 331 1189 331 1073 c 0,37,38
 331 962 331 962 397.5 893.5 c 128,-1,39
 464 825 464 825 575 825 c 128,-1,40
 686 825 686 825 752.5 893.5 c 128,-1,41
 819 962 819 962 819 1073 c 128,-1,42
 819 1184 819 1184 750 1254 c 128,-1,43
 681 1324 681 1324 575 1324 c 0,34,35
EndSplineSet
Substitution2: "'numr' Numerators lookup 25 subtable" eight.numr
Substitution2: "'dnom' Denominators lookup 24 subtable" eight.dnom
Substitution2: "'lnum' Lining Figures lookup 21 subtable" eight.pnum
Substitution2: "'tnum' Tabular Numbers lookup 20 subtable" eight.oldstyle
Substitution2: "'pnum' Proportional Numbers lookup 19 subtable" eight.pnum
Substitution2: "'onum' Oldstyle Figures lookup 18 subtable" eight.oldstyle
Substitution2: "'c2sc' Capitals to Small Capitals lookup 0 subtable" eight.c2sc
Position2: "'cpsp' Capital Spacing lookup 0 subtable" dx=36 dy=0 dh=72 dv=0
EndChar

StartChar: nine
Encoding: 57 57 29
Width: 1150
GlyphClass: 1
Flags: W
LayerCount: 2
Fore
SplineSet
830 640 m 1,0,1
 772 571 772 571 691.5 529 c 128,-1,2
 611 487 611 487 515 487 c 0,3,4
 389 487 389 487 295.5 549 c 128,-1,5
 202 611 202 611 151 723.5 c 128,-1,6
 100 836 100 836 100 972 c 0,7,8
 100 1118 100 1118 155.5 1235 c 128,-1,9
 211 1352 211 1352 313 1414 c 128,-1,10
 415 1476 415 1476 551 1476 c 0,11,12
 767 1476 767 1476 891.5 1314.5 c 128,-1,13
 1016 1153 1016 1153 1016 874 c 2,14,-1
 1016 820 l 2,15,16
 1016 395 1016 395 848 199.5 c 128,-1,17
 680 4 680 4 341 -1 c 1,18,-1
 305 -1 l 1,19,-1
 305 155 l 1,20,-1
 344 155 l 1,21,22
 573 159 573 159 696 274.5 c 128,-1,23
 819 390 819 390 830 640 c 1,0,1
545 640 m 0,24,25
 638 640 638 640 716.5 697 c 128,-1,26
 795 754 795 754 831 838 c 1,27,-1
 831 912 l 2,28,29
 831 1094 831 1094 752 1208 c 128,-1,30
 673 1322 673 1322 552 1322 c 0,31,32
 430 1322 430 1322 356 1228.5 c 128,-1,33
 282 1135 282 1135 282 982 c 0,34,35
 282 833 282 833 353.5 736.5 c 128,-1,36
 425 640 425 640 545 640 c 0,24,25
EndSplineSet
Substitution2: "'numr' Numerators lookup 25 subtable" nine.numr
Substitution2: "'dnom' Denominators lookup 24 subtable" nine.dnom
Substitution2: "'pnum' Proportional Numbers lookup 19 subtable" nine.pnum
Substitution2: "'onum' Oldstyle Figures lookup 18 subtable" nine.oldstyle
Substitution2: "'c2sc' Capitals to Small Capitals lookup 0 subtable" nine.c2sc
Position2: "'cpsp' Capital Spacing lookup 0 subtable" dx=36 dy=0 dh=72 dv=0
EndChar

StartChar: less
Encoding: 60 60 32
Width: 1041
GlyphClass: 1
Flags: W
LayerCount: 2
Fore
SplineSet
264 644 m 1,0,-1
 890 391 l 1,1,-1
 890 195 l 1,2,-1
 72 574 l 1,3,-1
 72 720 l 1,4,-1
 890 1098 l 1,5,-1
 890 902 l 1,6,-1
 264 644 l 1,0,-1
EndSplineSet
EndChar

StartChar: equal
Encoding: 61 61 33
Width: 1124
GlyphClass: 1
Flags: W
LayerCount: 2
Fore
SplineSet
986 814 m 1,0,-1
 152 814 l 1,1,-1
 152 975 l 1,2,-1
 986 975 l 1,3,-1
 986 814 l 1,0,-1
986 399 m 1,4,-1
 152 399 l 1,5,-1
 152 559 l 1,6,-1
 986 559 l 1,7,-1
 986 399 l 1,4,-1
EndSplineSet
EndChar

StartChar: greater
Encoding: 62 62 34
Width: 1070
GlyphClass: 1
Flags: W
LayerCount: 2
Fore
SplineSet
795 650 m 1,0,-1
 134 909 l 1,1,-1
 134 1099 l 1,2,-1
 988 721 l 1,3,-1
 988 575 l 1,4,-1
 134 196 l 1,5,-1
 134 388 l 1,6,-1
 795 650 l 1,0,-1
EndSplineSet
EndChar

StartChar: question
Encoding: 63 63 35
Width: 967
GlyphClass: 1
Flags: W
LayerCount: 2
Fore
SplineSet
357 410 m 1,0,1
 359 529 359 529 384 598 c 128,-1,2
 409 667 409 667 486 751 c 2,3,-1
 617 886 l 1,4,5
 701 981 701 981 701 1090 c 0,6,7
 701 1195 701 1195 646 1254.5 c 128,-1,8
 591 1314 591 1314 486 1314 c 0,9,10
 384 1314 384 1314 322 1260 c 128,-1,11
 260 1206 260 1206 260 1115 c 1,12,-1
 75 1115 l 1,13,14
 77 1277 77 1277 190.5 1376.5 c 128,-1,15
 304 1476 304 1476 486 1476 c 0,16,17
 675 1476 675 1476 780.5 1374.5 c 128,-1,18
 886 1273 886 1273 886 1096 c 0,19,20
 886 921 886 921 724 751 c 1,21,-1
 615 643 l 1,22,23
 542 562 542 562 542 410 c 1,24,-1
 357 410 l 1,0,1
349 93 m 256,25,26
 349 138 349 138 376.5 168.5 c 128,-1,27
 404 199 404 199 458 199 c 128,-1,28
 512 199 512 199 540 168.5 c 128,-1,29
 568 138 568 138 568 93 c 128,-1,30
 568 48 568 48 540 18.5 c 128,-1,31
 512 -11 512 -11 458 -11 c 128,-1,32
 404 -11 404 -11 376.5 18.5 c 128,-1,33
 349 48 349 48 349 93 c 256,25,26
EndSplineSet
EndChar

StartChar: at
Encoding: 64 64 36
Width: 1839
GlyphClass: 1
Flags: W
LayerCount: 2
Fore
SplineSet
1738 502 m 0,0,1
 1726 260 1726 260 1618 120 c 128,-1,2
 1510 -20 1510 -20 1329 -20 c 0,3,4
 1142 -20 1142 -20 1089 148 c 1,5,6
 1035 63 1035 63 965.5 21.5 c 128,-1,7
 896 -20 896 -20 822 -20 c 0,8,9
 680 -20 680 -20 607 96 c 128,-1,10
 534 212 534 212 553 417 c 0,11,12
 568 582 568 582 628.5 711.5 c 128,-1,13
 689 841 689 841 784.5 915 c 128,-1,14
 880 989 880 989 985 989 c 0,15,16
 1066 989 1066 989 1130 967.5 c 128,-1,17
 1194 946 1194 946 1274 883 c 1,18,-1
 1222 329 l 2,19,20
 1203 98 1203 98 1350 98 c 0,21,22
 1463 98 1463 98 1533 210 c 128,-1,23
 1603 322 1603 322 1609 502 c 0,24,25
 1628 891 1628 891 1464.5 1095 c 128,-1,26
 1301 1299 1301 1299 967 1299 c 0,27,28
 766 1299 766 1299 610 1199.5 c 128,-1,29
 454 1100 454 1100 364 912 c 128,-1,30
 274 724 274 724 263 478 c 0,31,32
 251 230 251 230 323 47.5 c 128,-1,33
 395 -135 395 -135 542.5 -231.5 c 128,-1,34
 690 -328 690 -328 899 -328 c 0,35,36
 989 -328 989 -328 1079.5 -306 c 128,-1,37
 1170 -284 1170 -284 1230 -249 c 1,38,-1
 1267 -364 l 1,39,40
 1205 -403 1205 -403 1102.5 -428 c 128,-1,41
 1000 -453 1000 -453 895 -453 c 0,42,43
 645 -453 645 -453 465 -340.5 c 128,-1,44
 285 -228 285 -228 195.5 -16.5 c 128,-1,45
 106 195 106 195 118 478 c 0,46,47
 130 753 130 753 241 972.5 c 128,-1,48
 352 1192 352 1192 542 1311.5 c 128,-1,49
 732 1431 732 1431 971 1431 c 0,50,51
 1220 1431 1220 1431 1398 1319 c 128,-1,52
 1576 1207 1576 1207 1663 996 c 128,-1,53
 1750 785 1750 785 1738 502 c 0,0,1
712 417 m 0,54,55
 698 275 698 275 738.5 199 c 128,-1,56
 779 123 779 123 867 123 c 0,57,58
 927 123 927 123 982.5 174 c 128,-1,59
 1038 225 1038 225 1074 320 c 1,60,-1
 1075 329 l 1,61,-1
 1121 832 l 1,62,63
 1065 861 1065 861 1001 861 c 0,64,65
 884 861 884 861 807.5 742 c 128,-1,66
 731 623 731 623 712 417 c 0,54,55
EndSplineSet
EndChar

StartChar: A
Encoding: 65 65 37
Width: 1336
GlyphClass: 2
Flags: W
LayerCount: 2
Fore
SplineSet
973 380 m 1,0,-1
 363 380 l 1,1,-1
 226 0 l 1,2,-1
 28 0 l 1,3,-1
 584 1456 l 1,4,-1
 752 1456 l 1,5,-1
 1309 0 l 1,6,-1
 1112 0 l 1,7,-1
 973 380 l 1,0,-1
421 538 m 1,8,-1
 916 538 l 1,9,-1
 668 1219 l 1,10,-1
 421 538 l 1,8,-1
EndSplineSet
Substitution2: "'c2sc' Capitals to Small Capitals lookup 0 subtable" A.c2sc
Position2: "'cpsp' Capital Spacing lookup 0 subtable" dx=36 dy=0 dh=72 dv=0
EndChar

StartChar: B
Encoding: 66 66 38
Width: 1275
GlyphClass: 2
Flags: W
LayerCount: 2
Fore
SplineSet
169 0 m 1,0,-1
 169 1456 l 1,1,-1
 645 1456 l 2,2,3
 882 1456 882 1456 1001.5 1358 c 128,-1,4
 1121 1260 1121 1260 1121 1068 c 0,5,6
 1121 966 1121 966 1063 887.5 c 128,-1,7
 1005 809 1005 809 905 766 c 1,8,9
 1023 733 1023 733 1091.5 640.5 c 128,-1,10
 1160 548 1160 548 1160 420 c 0,11,12
 1160 224 1160 224 1033 112 c 128,-1,13
 906 0 906 0 674 0 c 2,14,-1
 169 0 l 1,0,-1
361 681 m 1,15,-1
 361 157 l 1,16,-1
 678 157 l 2,17,18
 812 157 812 157 889.5 226.5 c 128,-1,19
 967 296 967 296 967 418 c 0,20,21
 967 681 967 681 681 681 c 2,22,-1
 361 681 l 1,15,-1
361 835 m 1,23,-1
 651 835 l 2,24,25
 777 835 777 835 852.5 898 c 128,-1,26
 928 961 928 961 928 1069 c 0,27,28
 928 1189 928 1189 858 1243.5 c 128,-1,29
 788 1298 788 1298 645 1298 c 2,30,-1
 361 1298 l 1,31,-1
 361 835 l 1,23,-1
EndSplineSet
Substitution2: "'c2sc' Capitals to Small Capitals lookup 0 subtable" B.c2sc
Position2: "'cpsp' Capital Spacing lookup 0 subtable" dx=36 dy=0 dh=72 dv=0
EndChar

StartChar: C
Encoding: 67 67 39
Width: 1333
GlyphClass: 2
Flags: W
LayerCount: 2
Fore
SplineSet
1240 462 m 1,0,1
 1213 231 1213 231 1069.5 105.5 c 128,-1,2
 926 -20 926 -20 688 -20 c 0,3,4
 430 -20 430 -20 274.5 165 c 128,-1,5
 119 350 119 350 119 660 c 2,6,-1
 119 800 l 2,7,8
 119 1003 119 1003 191.5 1157 c 128,-1,9
 264 1311 264 1311 397 1393.5 c 128,-1,10
 530 1476 530 1476 705 1476 c 0,11,12
 937 1476 937 1476 1077 1346.5 c 128,-1,13
 1217 1217 1217 1217 1240 988 c 1,14,-1
 1047 988 l 1,15,16
 1022 1162 1022 1162 938.5 1240 c 128,-1,17
 855 1318 855 1318 705 1318 c 0,18,19
 521 1318 521 1318 416.5 1182 c 128,-1,20
 312 1046 312 1046 312 795 c 2,21,-1
 312 654 l 2,22,23
 312 417 312 417 411 277 c 128,-1,24
 510 137 510 137 688 137 c 0,25,26
 848 137 848 137 933.5 209.5 c 128,-1,27
 1019 282 1019 282 1047 462 c 1,28,-1
 1240 462 l 1,0,1
EndSplineSet
Substitution2: "'ss06' Style Set 6 lookup 16 subtable" C.ss06
Substitution2: "'c2sc' Capitals to Small Capitals lookup 0 subtable" C.c2sc
Position2: "'cpsp' Capital Spacing lookup 0 subtable" dx=36 dy=0 dh=72 dv=0
EndChar

StartChar: D
Encoding: 68 68 40
Width: 1343
GlyphClass: 2
Flags: W
LayerCount: 2
Fore
SplineSet
169 0 m 1,0,-1
 169 1456 l 1,1,-1
 580 1456 l 2,2,3
 770 1456 770 1456 916 1372 c 128,-1,4
 1062 1288 1062 1288 1141.5 1133 c 128,-1,5
 1221 978 1221 978 1222 777 c 2,6,-1
 1222 684 l 2,7,8
 1222 478 1222 478 1142.5 323 c 128,-1,9
 1063 168 1063 168 915.5 85 c 128,-1,10
 768 2 768 2 572 0 c 2,11,-1
 169 0 l 1,0,-1
361 1298 m 1,12,-1
 361 157 l 1,13,-1
 563 157 l 2,14,15
 785 157 785 157 908.5 295 c 128,-1,16
 1032 433 1032 433 1032 688 c 2,17,-1
 1032 773 l 2,18,19
 1032 1021 1032 1021 915.5 1158.5 c 128,-1,20
 799 1296 799 1296 585 1298 c 2,21,-1
 361 1298 l 1,12,-1
EndSplineSet
Substitution2: "'ss06' Style Set 6 lookup 16 subtable" D.ss06
Substitution2: "'c2sc' Capitals to Small Capitals lookup 0 subtable" D.c2sc
Position2: "'cpsp' Capital Spacing lookup 0 subtable" dx=36 dy=0 dh=72 dv=0
EndChar

StartChar: E
Encoding: 69 69 41
Width: 1164
GlyphClass: 2
Flags: W
LayerCount: 2
Fore
SplineSet
992 673 m 1,0,-1
 361 673 l 1,1,-1
 361 157 l 1,2,-1
 1094 157 l 1,3,-1
 1094 0 l 1,4,-1
 169 0 l 1,5,-1
 169 1456 l 1,6,-1
 1084 1456 l 1,7,-1
 1084 1298 l 1,8,-1
 361 1298 l 1,9,-1
 361 830 l 1,10,-1
 992 830 l 1,11,-1
 992 673 l 1,0,-1
EndSplineSet
Substitution2: "'c2sc' Capitals to Small Capitals lookup 0 subtable" E.c2sc
Position2: "'cpsp' Capital Spacing lookup 0 subtable" dx=36 dy=0 dh=72 dv=0
EndChar

StartChar: F
Encoding: 70 70 42
Width: 1132
GlyphClass: 2
Flags: W
LayerCount: 2
Fore
SplineSet
972 643 m 1,0,-1
 361 643 l 1,1,-1
 361 0 l 1,2,-1
 169 0 l 1,3,-1
 169 1456 l 1,4,-1
 1071 1456 l 1,5,-1
 1071 1298 l 1,6,-1
 361 1298 l 1,7,-1
 361 800 l 1,8,-1
 972 800 l 1,9,-1
 972 643 l 1,0,-1
EndSplineSet
Substitution2: "'c2sc' Capitals to Small Capitals lookup 0 subtable" F.c2sc
Position2: "'cpsp' Capital Spacing lookup 0 subtable" dx=36 dy=0 dh=72 dv=0
EndChar

StartChar: G
Encoding: 71 71 43
Width: 1395
GlyphClass: 2
Flags: W
LayerCount: 2
Fore
SplineSet
1244 191 m 1,0,1
 1170 85 1170 85 1037.5 32.5 c 128,-1,2
 905 -20 905 -20 729 -20 c 0,3,4
 551 -20 551 -20 413 63.5 c 128,-1,5
 275 147 275 147 199.5 301 c 128,-1,6
 124 455 124 455 122 658 c 2,7,-1
 122 785 l 2,8,9
 122 1114 122 1114 275.5 1295 c 128,-1,10
 429 1476 429 1476 707 1476 c 0,11,12
 935 1476 935 1476 1074 1359.5 c 128,-1,13
 1213 1243 1213 1243 1244 1029 c 1,14,-1
 1052 1029 l 1,15,16
 998 1318 998 1318 708 1318 c 0,17,18
 515 1318 515 1318 415.5 1182.5 c 128,-1,19
 316 1047 316 1047 315 790 c 2,20,-1
 315 671 l 2,21,22
 315 426 315 426 427 281.5 c 128,-1,23
 539 137 539 137 730 137 c 0,24,25
 838 137 838 137 919 161 c 128,-1,26
 1000 185 1000 185 1053 242 c 1,27,-1
 1053 569 l 1,28,-1
 716 569 l 1,29,-1
 716 725 l 1,30,-1
 1244 725 l 1,31,-1
 1244 191 l 1,0,1
EndSplineSet
Substitution2: "'ss06' Style Set 6 lookup 16 subtable" G.ss06
Substitution2: "'c2sc' Capitals to Small Capitals lookup 0 subtable" G.c2sc
Position2: "'cpsp' Capital Spacing lookup 0 subtable" dx=36 dy=0 dh=72 dv=0
EndChar

StartChar: H
Encoding: 72 72 44
Width: 1460
GlyphClass: 2
Flags: W
LayerCount: 2
Fore
SplineSet
1288 0 m 1,0,-1
 1095 0 l 1,1,-1
 1095 673 l 1,2,-1
 361 673 l 1,3,-1
 361 0 l 1,4,-1
 169 0 l 1,5,-1
 169 1456 l 1,6,-1
 361 1456 l 1,7,-1
 361 830 l 1,8,-1
 1095 830 l 1,9,-1
 1095 1456 l 1,10,-1
 1288 1456 l 1,11,-1
 1288 0 l 1,0,-1
EndSplineSet
Substitution2: "'c2sc' Capitals to Small Capitals lookup 0 subtable" H.c2sc
Position2: "'cpsp' Capital Spacing lookup 0 subtable" dx=36 dy=0 dh=72 dv=0
EndChar

StartChar: I
Encoding: 73 73 45
Width: 557
GlyphClass: 2
Flags: W
LayerCount: 2
Fore
SplineSet
375 0 m 1,0,-1
 183 0 l 1,1,-1
 183 1456 l 1,2,-1
 375 1456 l 1,3,-1
 375 0 l 1,0,-1
EndSplineSet
Substitution2: "'c2sc' Capitals to Small Capitals lookup 0 subtable" I.c2sc
Position2: "'cpsp' Capital Spacing lookup 0 subtable" dx=36 dy=0 dh=72 dv=0
EndChar

StartChar: J
Encoding: 74 74 46
Width: 1130
GlyphClass: 2
Flags: W
LayerCount: 2
Fore
SplineSet
779 1456 m 1,0,-1
 972 1456 l 1,1,-1
 972 425 l 2,2,3
 972 216 972 216 846.5 98 c 128,-1,4
 721 -20 721 -20 512 -20 c 0,5,6
 295 -20 295 -20 174 91 c 128,-1,7
 53 202 53 202 53 402 c 1,8,-1
 245 402 l 1,9,10
 245 277 245 277 313.5 207 c 128,-1,11
 382 137 382 137 512 137 c 0,12,13
 631 137 631 137 704.5 212 c 128,-1,14
 778 287 778 287 779 422 c 2,15,-1
 779 1456 l 1,0,-1
EndSplineSet
Substitution2: "'c2sc' Capitals to Small Capitals lookup 0 subtable" J.c2sc
Position2: "'cpsp' Capital Spacing lookup 0 subtable" dx=36 dy=0 dh=72 dv=0
EndChar

StartChar: K
Encoding: 75 75 47
Width: 1284
GlyphClass: 2
Flags: W
LayerCount: 2
Fore
SplineSet
539 677 m 1,0,-1
 361 492 l 1,1,-1
 361 0 l 1,2,-1
 169 0 l 1,3,-1
 169 1456 l 1,4,-1
 361 1456 l 1,5,-1
 361 736 l 1,6,-1
 1008 1456 l 1,7,-1
 1240 1456 l 1,8,-1
 667 813 l 1,9,-1
 1285 0 l 1,10,-1
 1055 0 l 1,11,-1
 539 677 l 1,0,-1
EndSplineSet
Substitution2: "'ss05' Style Set 5 lookup 15 subtable" K.ss05
Substitution2: "'ss04' Style Set 4 lookup 14 subtable" K.ss04
Substitution2: "'c2sc' Capitals to Small Capitals lookup 0 subtable" K.c2sc
Position2: "'cpsp' Capital Spacing lookup 0 subtable" dx=36 dy=0 dh=72 dv=0
EndChar

StartChar: L
Encoding: 76 76 48
Width: 1102
GlyphClass: 2
Flags: W
LayerCount: 2
Fore
SplineSet
362 157 m 1,0,-1
 1052 157 l 1,1,-1
 1052 0 l 1,2,-1
 169 0 l 1,3,-1
 169 1456 l 1,4,-1
 362 1456 l 1,5,-1
 362 157 l 1,0,-1
EndSplineSet
Substitution2: "'c2sc' Capitals to Small Capitals lookup 0 subtable" L.c2sc
Position2: "'cpsp' Capital Spacing lookup 0 subtable" dx=36 dy=0 dh=72 dv=0
EndChar

StartChar: M
Encoding: 77 77 49
Width: 1788
GlyphClass: 2
Flags: W
LayerCount: 2
Fore
SplineSet
417 1456 m 1,0,-1
 893 268 l 1,1,-1
 1369 1456 l 1,2,-1
 1618 1456 l 1,3,-1
 1618 0 l 1,4,-1
 1426 0 l 1,5,-1
 1426 567 l 1,6,-1
 1444 1179 l 1,7,-1
 966 0 l 1,8,-1
 819 0 l 1,9,-1
 342 1176 l 1,10,-1
 361 567 l 1,11,-1
 361 0 l 1,12,-1
 169 0 l 1,13,-1
 169 1456 l 1,14,-1
 417 1456 l 1,0,-1
EndSplineSet
Substitution2: "'c2sc' Capitals to Small Capitals lookup 0 subtable" M.c2sc
Position2: "'cpsp' Capital Spacing lookup 0 subtable" dx=36 dy=0 dh=72 dv=0
EndChar

StartChar: N
Encoding: 78 78 50
Width: 1460
GlyphClass: 2
Flags: W
LayerCount: 2
Fore
SplineSet
1288 0 m 1,0,-1
 1095 0 l 1,1,-1
 362 1122 l 1,2,-1
 362 0 l 1,3,-1
 169 0 l 1,4,-1
 169 1456 l 1,5,-1
 362 1456 l 1,6,-1
 1097 329 l 1,7,-1
 1097 1456 l 1,8,-1
 1288 1456 l 1,9,-1
 1288 0 l 1,0,-1
EndSplineSet
Substitution2: "'c2sc' Capitals to Small Capitals lookup 0 subtable" N.c2sc
Position2: "'cpsp' Capital Spacing lookup 0 subtable" dx=36 dy=0 dh=72 dv=0
EndChar

StartChar: O
Encoding: 79 79 51
Width: 1408
GlyphClass: 2
Flags: W
LayerCount: 2
Fore
SplineSet
1289 681 m 2,0,1
 1289 467 1289 467 1217 307.5 c 128,-1,2
 1145 148 1145 148 1013 64 c 128,-1,3
 881 -20 881 -20 705 -20 c 0,4,5
 533 -20 533 -20 400 64.5 c 128,-1,6
 267 149 267 149 193.5 305.5 c 128,-1,7
 120 462 120 462 118 668 c 2,8,-1
 118 773 l 2,9,10
 118 983 118 983 191 1144 c 128,-1,11
 264 1305 264 1305 397.5 1390.5 c 128,-1,12
 531 1476 531 1476 703 1476 c 0,13,14
 878 1476 878 1476 1011.5 1391.5 c 128,-1,15
 1145 1307 1145 1307 1217 1146.5 c 128,-1,16
 1289 986 1289 986 1289 773 c 2,17,-1
 1289 681 l 2,0,1
1098 775 m 2,18,19
 1098 1034 1098 1034 994 1172.5 c 128,-1,20
 890 1311 890 1311 703 1311 c 0,21,22
 521 1311 521 1311 416.5 1172.5 c 128,-1,23
 312 1034 312 1034 309 788 c 2,24,-1
 309 681 l 2,25,26
 309 430 309 430 414.5 286.5 c 128,-1,27
 520 143 520 143 705 143 c 0,28,29
 891 143 891 143 993 278.5 c 128,-1,30
 1095 414 1095 414 1098 667 c 2,31,-1
 1098 775 l 2,18,19
EndSplineSet
Substitution2: "'ss06' Style Set 6 lookup 16 subtable" O.ss06
Substitution2: "'c2sc' Capitals to Small Capitals lookup 0 subtable" O.c2sc
Position2: "'cpsp' Capital Spacing lookup 0 subtable" dx=36 dy=0 dh=72 dv=0
EndChar

StartChar: P
Encoding: 80 80 52
Width: 1292
GlyphClass: 2
Flags: W
LayerCount: 2
Fore
SplineSet
361 570 m 1,0,-1
 361 0 l 1,1,-1
 169 0 l 1,2,-1
 169 1456 l 1,3,-1
 706 1456 l 2,4,5
 945 1456 945 1456 1080.5 1334 c 128,-1,6
 1216 1212 1216 1212 1216 1011 c 0,7,8
 1216 799 1216 799 1083.5 684.5 c 128,-1,9
 951 570 951 570 704 570 c 2,10,-1
 361 570 l 1,0,-1
361 727 m 1,11,-1
 706 727 l 2,12,13
 860 727 860 727 942 799.5 c 128,-1,14
 1024 872 1024 872 1024 1009 c 0,15,16
 1024 1139 1024 1139 942 1217 c 128,-1,17
 860 1295 860 1295 717 1298 c 2,18,-1
 361 1298 l 1,19,-1
 361 727 l 1,11,-1
EndSplineSet
Substitution2: "'c2sc' Capitals to Small Capitals lookup 0 subtable" P.c2sc
Position2: "'cpsp' Capital Spacing lookup 0 subtable" dx=36 dy=0 dh=72 dv=0
EndChar

StartChar: Q
Encoding: 81 81 53
Width: 1408
GlyphClass: 2
Flags: W
LayerCount: 2
Fore
SplineSet
1281 681 m 2,0,1
 1281 470 1281 470 1214 317.5 c 128,-1,2
 1147 165 1147 165 1026 79 c 1,3,-1
 1286 -125 l 1,4,-1
 1155 -246 l 1,5,-1
 848 -2 l 1,6,7
 776 -20 776 -20 696 -20 c 0,8,9
 524 -20 524 -20 391 64.5 c 128,-1,10
 258 149 258 149 184.5 305.5 c 128,-1,11
 111 462 111 462 109 668 c 2,12,-1
 109 773 l 2,13,14
 109 983 109 983 182 1144 c 128,-1,15
 255 1305 255 1305 388.5 1390.5 c 128,-1,16
 522 1476 522 1476 694 1476 c 0,17,18
 870 1476 870 1476 1003.5 1391 c 128,-1,19
 1137 1306 1137 1306 1209 1146.5 c 128,-1,20
 1281 987 1281 987 1281 774 c 2,21,-1
 1281 681 l 2,0,1
1089 775 m 2,22,23
 1089 1032 1089 1032 986.5 1171.5 c 128,-1,24
 884 1311 884 1311 694 1311 c 0,25,26
 513 1311 513 1311 408.5 1172.5 c 128,-1,27
 304 1034 304 1034 301 788 c 2,28,-1
 301 681 l 2,29,30
 301 431 301 431 405.5 287 c 128,-1,31
 510 143 510 143 696 143 c 128,-1,32
 882 143 882 143 984 278.5 c 128,-1,33
 1086 414 1086 414 1089 667 c 2,34,-1
 1089 775 l 2,22,23
EndSplineSet
Substitution2: "'ss06' Style Set 6 lookup 16 subtable" Q.ss06
Substitution2: "'c2sc' Capitals to Small Capitals lookup 0 subtable" Q.c2sc
Position2: "'cpsp' Capital Spacing lookup 0 subtable" dx=36 dy=0 dh=72 dv=0
EndChar

StartChar: R
Encoding: 82 82 54
Width: 1261
GlyphClass: 2
Flags: W
LayerCount: 2
Fore
SplineSet
703 589 m 1,0,-1
 361 589 l 1,1,-1
 361 0 l 1,2,-1
 168 0 l 1,3,-1
 168 1456 l 1,4,-1
 650 1456 l 2,5,6
 896 1456 896 1456 1028.5 1344 c 128,-1,7
 1161 1232 1161 1232 1161 1018 c 0,8,9
 1161 882 1161 882 1087.5 781 c 128,-1,10
 1014 680 1014 680 883 630 c 1,11,-1
 1225 12 l 1,12,-1
 1225 0 l 1,13,-1
 1019 0 l 1,14,-1
 703 589 l 1,0,-1
361 746 m 1,15,-1
 656 746 l 2,16,17
 799 746 799 746 883.5 820 c 128,-1,18
 968 894 968 894 968 1018 c 0,19,20
 968 1153 968 1153 887.5 1225 c 128,-1,21
 807 1297 807 1297 655 1298 c 2,22,-1
 361 1298 l 1,23,-1
 361 746 l 1,15,-1
EndSplineSet
Substitution2: "'ss03' Style Set 3 lookup 13 subtable" R.ss03
Substitution2: "'c2sc' Capitals to Small Capitals lookup 0 subtable" R.c2sc
Position2: "'cpsp' Capital Spacing lookup 0 subtable" dx=36 dy=0 dh=72 dv=0
EndChar

StartChar: S
Encoding: 83 83 55
Width: 1215
GlyphClass: 2
Flags: W
LayerCount: 2
Fore
SplineSet
598 649 m 0,0,1
 351 720 351 720 238.5 823.5 c 128,-1,2
 126 927 126 927 126 1079 c 0,3,4
 126 1251 126 1251 263.5 1363.5 c 128,-1,5
 401 1476 401 1476 621 1476 c 0,6,7
 771 1476 771 1476 888.5 1418 c 128,-1,8
 1006 1360 1006 1360 1070.5 1258 c 128,-1,9
 1135 1156 1135 1156 1135 1035 c 1,10,-1
 942 1035 l 1,11,12
 942 1167 942 1167 858 1242.5 c 128,-1,13
 774 1318 774 1318 621 1318 c 0,14,15
 479 1318 479 1318 399.5 1255.5 c 128,-1,16
 320 1193 320 1193 320 1082 c 0,17,18
 320 993 320 993 395.5 931.5 c 128,-1,19
 471 870 471 870 652.5 819 c 128,-1,20
 834 768 834 768 936.5 706.5 c 128,-1,21
 1039 645 1039 645 1088.5 563 c 128,-1,22
 1138 481 1138 481 1138 370 c 0,23,24
 1138 193 1138 193 1000 86.5 c 128,-1,25
 862 -20 862 -20 631 -20 c 0,26,27
 481 -20 481 -20 351 37.5 c 128,-1,28
 221 95 221 95 150.5 195 c 128,-1,29
 80 295 80 295 80 422 c 1,30,-1
 273 422 l 1,31,32
 273 290 273 290 370.5 213.5 c 128,-1,33
 468 137 468 137 631 137 c 0,34,35
 783 137 783 137 864 199 c 128,-1,36
 945 261 945 261 945 368 c 128,-1,37
 945 475 945 475 870 533.5 c 128,-1,38
 795 592 795 592 598 649 c 0,0,1
EndSplineSet
Substitution2: "'c2sc' Capitals to Small Capitals lookup 0 subtable" S.c2sc
Position2: "'cpsp' Capital Spacing lookup 0 subtable" dx=36 dy=0 dh=72 dv=0
EndChar

StartChar: T
Encoding: 84 84 56
Width: 1222
GlyphClass: 2
Flags: W
LayerCount: 2
Fore
SplineSet
1175 1298 m 1,0,-1
 707 1298 l 1,1,-1
 707 0 l 1,2,-1
 516 0 l 1,3,-1
 516 1298 l 1,4,-1
 49 1298 l 1,5,-1
 49 1456 l 1,6,-1
 1175 1456 l 1,7,-1
 1175 1298 l 1,0,-1
EndSplineSet
Substitution2: "'c2sc' Capitals to Small Capitals lookup 0 subtable" T.c2sc
Position2: "'cpsp' Capital Spacing lookup 0 subtable" dx=36 dy=0 dh=72 dv=0
EndChar

StartChar: U
Encoding: 85 85 57
Width: 1328
GlyphClass: 2
Flags: W
LayerCount: 2
Fore
SplineSet
1194 1456 m 1,0,-1
 1194 466 l 2,1,2
 1193 260 1193 260 1064.5 129 c 128,-1,3
 936 -2 936 -2 716 -18 c 1,4,-1
 665 -20 l 1,5,6
 426 -20 426 -20 284 109 c 128,-1,7
 142 238 142 238 140 464 c 2,8,-1
 140 1456 l 1,9,-1
 330 1456 l 1,10,-1
 330 470 l 2,11,12
 330 312 330 312 417 224.5 c 128,-1,13
 504 137 504 137 665 137 c 0,14,15
 828 137 828 137 914.5 224 c 128,-1,16
 1001 311 1001 311 1001 469 c 2,17,-1
 1001 1456 l 1,18,-1
 1194 1456 l 1,0,-1
EndSplineSet
Substitution2: "'c2sc' Capitals to Small Capitals lookup 0 subtable" U.c2sc
Position2: "'cpsp' Capital Spacing lookup 0 subtable" dx=36 dy=0 dh=72 dv=0
EndChar

StartChar: V
Encoding: 86 86 58
Width: 1303
GlyphClass: 2
Flags: W
LayerCount: 2
Fore
SplineSet
651 255 m 1,0,-1
 1067 1456 l 1,1,-1
 1277 1456 l 1,2,-1
 737 0 l 1,3,-1
 567 0 l 1,4,-1
 28 1456 l 1,5,-1
 237 1456 l 1,6,-1
 651 255 l 1,0,-1
EndSplineSet
Substitution2: "'c2sc' Capitals to Small Capitals lookup 0 subtable" V.c2sc
Position2: "'cpsp' Capital Spacing lookup 0 subtable" dx=36 dy=0 dh=72 dv=0
EndChar

StartChar: W
Encoding: 87 87 59
Width: 1817
GlyphClass: 2
Flags: W
LayerCount: 2
Fore
SplineSet
483 459 m 1,0,-1
 511 267 l 1,1,-1
 552 440 l 1,2,-1
 840 1456 l 1,3,-1
 1002 1456 l 1,4,-1
 1283 440 l 1,5,-1
 1323 264 l 1,6,-1
 1354 460 l 1,7,-1
 1580 1456 l 1,8,-1
 1773 1456 l 1,9,-1
 1420 0 l 1,10,-1
 1245 0 l 1,11,-1
 945 1061 l 1,12,-1
 922 1172 l 1,13,-1
 899 1061 l 1,14,-1
 588 0 l 1,15,-1
 413 0 l 1,16,-1
 61 1456 l 1,17,-1
 253 1456 l 1,18,-1
 483 459 l 1,0,-1
EndSplineSet
Substitution2: "'c2sc' Capitals to Small Capitals lookup 0 subtable" W.c2sc
Position2: "'cpsp' Capital Spacing lookup 0 subtable" dx=36 dy=0 dh=72 dv=0
EndChar

StartChar: X
Encoding: 88 88 60
Width: 1284
GlyphClass: 2
Flags: W
LayerCount: 2
Fore
SplineSet
644 898 m 1,0,-1
 993 1456 l 1,1,-1
 1219 1456 l 1,2,-1
 759 734 l 1,3,-1
 1230 0 l 1,4,-1
 1002 0 l 1,5,-1
 644 568 l 1,6,-1
 284 0 l 1,7,-1
 57 0 l 1,8,-1
 529 734 l 1,9,-1
 68 1456 l 1,10,-1
 293 1456 l 1,11,-1
 644 898 l 1,0,-1
EndSplineSet
Substitution2: "'c2sc' Capitals to Small Capitals lookup 0 subtable" X.c2sc
Position2: "'cpsp' Capital Spacing lookup 0 subtable" dx=36 dy=0 dh=72 dv=0
EndChar

StartChar: Y
Encoding: 89 89 61
Width: 1230
GlyphClass: 2
Flags: W
LayerCount: 2
Fore
SplineSet
613 725 m 1,0,-1
 993 1456 l 1,1,-1
 1211 1456 l 1,2,-1
 709 543 l 1,3,-1
 709 0 l 1,4,-1
 517 0 l 1,5,-1
 517 543 l 1,6,-1
 15 1456 l 1,7,-1
 235 1456 l 1,8,-1
 613 725 l 1,0,-1
EndSplineSet
Substitution2: "'c2sc' Capitals to Small Capitals lookup 0 subtable" Y.c2sc
Position2: "'cpsp' Capital Spacing lookup 0 subtable" dx=36 dy=0 dh=72 dv=0
EndChar

StartChar: Z
Encoding: 90 90 62
Width: 1226
GlyphClass: 2
Flags: W
LayerCount: 2
Fore
SplineSet
313 157 m 1,0,-1
 1146 157 l 1,1,-1
 1146 0 l 1,2,-1
 86 0 l 1,3,-1
 86 144 l 1,4,-1
 884 1298 l 1,5,-1
 99 1298 l 1,6,-1
 99 1456 l 1,7,-1
 1114 1456 l 1,8,-1
 1114 1315 l 1,9,-1
 313 157 l 1,0,-1
EndSplineSet
Substitution2: "'c2sc' Capitals to Small Capitals lookup 0 subtable" Z.c2sc
Position2: "'cpsp' Capital Spacing lookup 0 subtable" dx=36 dy=0 dh=72 dv=0
EndChar

StartChar: bracketleft
Encoding: 91 91 63
Width: 543
GlyphClass: 1
Flags: W
LayerCount: 2
Fore
SplineSet
523 1512 m 1,0,-1
 332 1512 l 1,1,-1
 332 -160 l 1,2,-1
 523 -160 l 1,3,-1
 523 -312 l 1,4,-1
 146 -312 l 1,5,-1
 146 1664 l 1,6,-1
 523 1664 l 1,7,-1
 523 1512 l 1,0,-1
EndSplineSet
EndChar

StartChar: backslash
Encoding: 92 92 64
Width: 840
GlyphClass: 1
Flags: W
LayerCount: 2
Fore
SplineSet
40 1456 m 1,0,-1
 216 1456 l 1,1,-1
 824 -125 l 1,2,-1
 648 -125 l 1,3,-1
 40 1456 l 1,0,-1
EndSplineSet
EndChar

StartChar: bracketright
Encoding: 93 93 65
Width: 543
GlyphClass: 1
Flags: W
LayerCount: 2
Fore
SplineSet
9 1664 m 1,0,-1
 387 1664 l 1,1,-1
 387 -312 l 1,2,-1
 9 -312 l 1,3,-1
 9 -160 l 1,4,-1
 202 -160 l 1,5,-1
 202 1512 l 1,6,-1
 9 1512 l 1,7,-1
 9 1664 l 1,0,-1
EndSplineSet
EndChar

StartChar: asciicircum
Encoding: 94 94 66
Width: 856
GlyphClass: 1
Flags: W
LayerCount: 2
Fore
SplineSet
426 1211 m 1,0,-1
 236 729 l 1,1,-1
 64 729 l 1,2,-1
 363 1456 l 1,3,-1
 490 1456 l 1,4,-1
 788 729 l 1,5,-1
 617 729 l 1,6,-1
 426 1211 l 1,0,-1
EndSplineSet
EndChar

StartChar: underscore
Encoding: 95 95 67
Width: 924
GlyphClass: 1
Flags: W
LayerCount: 2
Fore
SplineSet
920 -151 m 1,0,-1
 4 -151 l 1,1,-1
 4 0 l 1,2,-1
 920 0 l 1,3,-1
 920 -151 l 1,0,-1
EndSplineSet
EndChar

StartChar: grave
Encoding: 96 96 68
Width: 633
GlyphClass: 1
Flags: W
LayerCount: 2
Fore
SplineSet
474 1242 m 1,0,-1
 315 1242 l 1,1,-1
 57 1536 l 1,2,-1
 280 1536 l 1,3,-1
 474 1242 l 1,0,-1
EndSplineSet
EndChar

StartChar: a
Encoding: 97 97 69
Width: 1114
GlyphClass: 2
Flags: W
LayerCount: 2
Fore
SplineSet
808 0 m 1,0,1
 792 32 792 32 782 114 c 1,2,3
 653 -20 653 -20 474 -20 c 0,4,5
 314 -20 314 -20 211.5 70.5 c 128,-1,6
 109 161 109 161 109 300 c 0,7,8
 109 469 109 469 237.5 562.5 c 128,-1,9
 366 656 366 656 599 656 c 2,10,-1
 779 656 l 1,11,-1
 779 741 l 2,12,13
 779 838 779 838 721 895.5 c 128,-1,14
 663 953 663 953 550 953 c 0,15,16
 451 953 451 953 384 903 c 128,-1,17
 317 853 317 853 317 782 c 1,18,-1
 131 782 l 1,19,20
 131 863 131 863 188.5 938.5 c 128,-1,21
 246 1014 246 1014 344.5 1058 c 128,-1,22
 443 1102 443 1102 561 1102 c 0,23,24
 748 1102 748 1102 854 1008.5 c 128,-1,25
 960 915 960 915 964 751 c 1,26,-1
 964 253 l 2,27,28
 964 104 964 104 1002 16 c 1,29,-1
 1002 0 l 1,30,-1
 808 0 l 1,0,1
501 141 m 0,31,32
 588 141 588 141 666 186 c 128,-1,33
 744 231 744 231 779 303 c 1,34,-1
 779 525 l 1,35,-1
 634 525 l 2,36,37
 294 525 294 525 294 326 c 0,38,39
 294 239 294 239 352 190 c 128,-1,40
 410 141 410 141 501 141 c 0,31,32
EndSplineSet
Substitution2: "'smcp' Lowercase to Small Capitals lookup 1 subtable" A.c2sc
EndChar

StartChar: b
Encoding: 98 98 70
Width: 1149
GlyphClass: 2
Flags: W
LayerCount: 2
Fore
SplineSet
1056 529 m 2,0,1
 1056 281 1056 281 942 130.5 c 128,-1,2
 828 -20 828 -20 636 -20 c 0,3,4
 431 -20 431 -20 319 125 c 1,5,-1
 310 0 l 1,6,-1
 140 0 l 1,7,-1
 140 1536 l 1,8,-1
 325 1536 l 1,9,-1
 325 963 l 1,10,11
 437 1102 437 1102 634 1102 c 128,-1,12
 831 1102 831 1102 943.5 953 c 128,-1,13
 1056 804 1056 804 1056 545 c 2,14,-1
 1056 529 l 2,0,1
871 550 m 0,15,16
 871 739 871 739 798 842 c 128,-1,17
 725 945 725 945 588 945 c 0,18,19
 405 945 405 945 325 775 c 1,20,-1
 325 307 l 1,21,22
 410 137 410 137 590 137 c 0,23,24
 723 137 723 137 797 240 c 128,-1,25
 871 343 871 343 871 550 c 0,15,16
EndSplineSet
Substitution2: "'ss06' Style Set 6 lookup 16 subtable" b.ss06
Substitution2: "'smcp' Lowercase to Small Capitals lookup 1 subtable" B.c2sc
EndChar

StartChar: c
Encoding: 99 99 71
Width: 1072
GlyphClass: 2
Flags: W
LayerCount: 2
Fore
SplineSet
574 131 m 0,0,1
 673 131 673 131 747 191 c 128,-1,2
 821 251 821 251 829 341 c 1,3,-1
 1004 341 l 1,4,5
 999 248 999 248 940 164 c 128,-1,6
 881 80 881 80 782.5 30 c 128,-1,7
 684 -20 684 -20 574 -20 c 0,8,9
 353 -20 353 -20 222.5 127.5 c 128,-1,10
 92 275 92 275 92 531 c 2,11,-1
 92 562 l 2,12,13
 92 720 92 720 150 843 c 128,-1,14
 208 966 208 966 316.5 1034 c 128,-1,15
 425 1102 425 1102 573 1102 c 0,16,17
 755 1102 755 1102 875.5 993 c 128,-1,18
 996 884 996 884 1004 710 c 1,19,-1
 829 710 l 1,20,21
 821 815 821 815 749.5 882.5 c 128,-1,22
 678 950 678 950 573 950 c 0,23,24
 432 950 432 950 354.5 848.5 c 128,-1,25
 277 747 277 747 277 555 c 2,26,-1
 277 520 l 2,27,28
 277 333 277 333 354 232 c 128,-1,29
 431 131 431 131 574 131 c 0,0,1
EndSplineSet
Substitution2: "'ss06' Style Set 6 lookup 16 subtable" c.ss06
Substitution2: "'smcp' Lowercase to Small Capitals lookup 1 subtable" C.c2sc
EndChar

StartChar: d
Encoding: 100 100 72
Width: 1155
GlyphClass: 2
Flags: W
LayerCount: 2
Fore
SplineSet
95 550 m 2,0,1
 95 799 95 799 213 950.5 c 128,-1,2
 331 1102 331 1102 522 1102 c 0,3,4
 712 1102 712 1102 823 972 c 1,5,-1
 823 1536 l 1,6,-1
 1008 1536 l 1,7,-1
 1008 0 l 1,8,-1
 838 0 l 1,9,-1
 829 116 l 1,10,11
 718 -20 718 -20 520 -20 c 0,12,13
 332 -20 332 -20 213.5 134 c 128,-1,14
 95 288 95 288 95 536 c 2,15,-1
 95 550 l 2,0,1
280 529 m 0,16,17
 280 345 280 345 356 241 c 128,-1,18
 432 137 432 137 566 137 c 0,19,20
 742 137 742 137 823 295 c 1,21,-1
 823 792 l 1,22,23
 740 945 740 945 568 945 c 0,24,25
 432 945 432 945 356 840 c 128,-1,26
 280 735 280 735 280 529 c 0,16,17
EndSplineSet
Substitution2: "'ss06' Style Set 6 lookup 16 subtable" d.ss06
Substitution2: "'smcp' Lowercase to Small Capitals lookup 1 subtable" D.c2sc
EndChar

StartChar: e
Encoding: 101 101 73
Width: 1085
GlyphClass: 2
Flags: W
LayerCount: 2
Fore
SplineSet
589 -20 m 0,0,1
 369 -20 369 -20 231 124.5 c 128,-1,2
 93 269 93 269 93 511 c 2,3,-1
 93 545 l 2,4,5
 93 706 93 706 154.5 832.5 c 128,-1,6
 216 959 216 959 326.5 1030.5 c 128,-1,7
 437 1102 437 1102 566 1102 c 0,8,9
 777 1102 777 1102 894 963 c 128,-1,10
 1011 824 1011 824 1011 565 c 2,11,-1
 1011 488 l 1,12,-1
 278 488 l 1,13,14
 282 328 282 328 371.5 229.5 c 128,-1,15
 461 131 461 131 599 131 c 0,16,17
 697 131 697 131 765 171 c 128,-1,18
 833 211 833 211 884 277 c 1,19,-1
 997 189 l 1,20,21
 861 -20 861 -20 589 -20 c 0,0,1
566 950 m 0,22,23
 454 950 454 950 378 868.5 c 128,-1,24
 302 787 302 787 284 640 c 1,25,-1
 826 640 l 1,26,-1
 826 654 l 1,27,28
 818 795 818 795 750 872.5 c 128,-1,29
 682 950 682 950 566 950 c 0,22,23
EndSplineSet
Substitution2: "'ss07' Style Set 7 lookup 17 subtable" e.ss07
Substitution2: "'smcp' Lowercase to Small Capitals lookup 1 subtable" E.c2sc
EndChar

StartChar: f
Encoding: 102 102 74
Width: 711
GlyphClass: 2
Flags: W
LayerCount: 2
Fore
SplineSet
231 0 m 1,0,-1
 231 939 l 1,1,-1
 60 939 l 1,2,-1
 60 1082 l 1,3,-1
 231 1082 l 1,4,-1
 231 1193 l 2,5,6
 231 1367 231 1367 324 1462 c 128,-1,7
 417 1557 417 1557 587 1557 c 0,8,9
 651 1557 651 1557 714 1540 c 1,10,-1
 704 1390 l 1,11,12
 657 1399 657 1399 604 1399 c 0,13,14
 514 1399 514 1399 465 1346.5 c 128,-1,15
 416 1294 416 1294 416 1196 c 2,16,-1
 416 1082 l 1,17,-1
 647 1082 l 1,18,-1
 647 939 l 1,19,-1
 416 939 l 1,20,-1
 416 0 l 1,21,-1
 231 0 l 1,0,-1
EndSplineSet
Substitution2: "'smcp' Lowercase to Small Capitals lookup 1 subtable" F.c2sc
EndChar

StartChar: g
Encoding: 103 103 75
Width: 1149
GlyphClass: 2
Flags: W
LayerCount: 2
Fore
SplineSet
96 550 m 0,0,1
 96 803 96 803 213 952.5 c 128,-1,2
 330 1102 330 1102 523 1102 c 0,3,4
 721 1102 721 1102 832 962 c 1,5,-1
 841 1082 l 1,6,-1
 1010 1082 l 1,7,-1
 1010 26 l 2,8,9
 1010 -184 1010 -184 885.5 -305 c 128,-1,10
 761 -426 761 -426 551 -426 c 0,11,12
 434 -426 434 -426 322 -376 c 128,-1,13
 210 -326 210 -326 151 -239 c 1,14,-1
 247 -128 l 1,15,16
 366 -275 366 -275 538 -275 c 0,17,18
 673 -275 673 -275 748.5 -199 c 128,-1,19
 824 -123 824 -123 824 15 c 2,20,-1
 824 108 l 1,21,22
 713 -20 713 -20 521 -20 c 0,23,24
 331 -20 331 -20 213.5 133 c 128,-1,25
 96 286 96 286 96 550 c 0,0,1
282 529 m 0,26,27
 282 346 282 346 357 241.5 c 128,-1,28
 432 137 432 137 567 137 c 0,29,30
 742 137 742 137 824 296 c 1,31,-1
 824 790 l 1,32,33
 739 945 739 945 569 945 c 0,34,35
 434 945 434 945 358 840 c 128,-1,36
 282 735 282 735 282 529 c 0,26,27
EndSplineSet
Substitution2: "'ss07' Style Set 7 lookup 17 subtable" g.ss07
Substitution2: "'ss06' Style Set 6 lookup 16 subtable" g.ss06
Substitution2: "'ss01' Style Set 1 lookup 11 subtable" g.ss01
Substitution2: "'smcp' Lowercase to Small Capitals lookup 1 subtable" G.c2sc
EndChar

StartChar: h
Encoding: 104 104 76
Width: 1128
GlyphClass: 2
Flags: W
LayerCount: 2
Fore
SplineSet
325 951 m 1,0,1
 448 1102 448 1102 645 1102 c 0,2,3
 988 1102 988 1102 991 715 c 2,4,-1
 991 0 l 1,5,-1
 806 0 l 1,6,-1
 806 716 l 2,7,8
 805 833 805 833 752.5 889 c 128,-1,9
 700 945 700 945 589 945 c 0,10,11
 499 945 499 945 431 897 c 128,-1,12
 363 849 363 849 325 771 c 1,13,-1
 325 0 l 1,14,-1
 140 0 l 1,15,-1
 140 1536 l 1,16,-1
 325 1536 l 1,17,-1
 325 951 l 1,0,1
EndSplineSet
Substitution2: "'smcp' Lowercase to Small Capitals lookup 1 subtable" H.c2sc
EndChar

StartChar: i
Encoding: 105 105 77
Width: 497
GlyphClass: 2
Flags: W
LayerCount: 2
Fore
SplineSet
341 0 m 1,0,-1
 156 0 l 1,1,-1
 156 1082 l 1,2,-1
 341 1082 l 1,3,-1
 341 0 l 1,0,-1
141 1369 m 256,4,5
 141 1414 141 1414 168.5 1445 c 128,-1,6
 196 1476 196 1476 250 1476 c 128,-1,7
 304 1476 304 1476 332 1445 c 128,-1,8
 360 1414 360 1414 360 1369 c 128,-1,9
 360 1324 360 1324 332 1294 c 128,-1,10
 304 1264 304 1264 250 1264 c 128,-1,11
 196 1264 196 1264 168.5 1294 c 128,-1,12
 141 1324 141 1324 141 1369 c 256,4,5
EndSplineSet
Substitution2: "Single Substitution lookup 3 subtable" glyph609
Substitution2: "'smcp' Lowercase to Small Capitals lookup 1 subtable" I.c2sc
EndChar

StartChar: j
Encoding: 106 106 78
Width: 489
GlyphClass: 2
Flags: W
LayerCount: 2
Fore
SplineSet
331 1082 m 1,0,-1
 331 -125 l 2,1,2
 331 -437 331 -437 48 -437 c 0,3,4
 -13 -437 -13 -437 -65 -419 c 1,5,-1
 -65 -271 l 1,6,7
 -33 -279 -33 -279 19 -279 c 0,8,9
 81 -279 81 -279 113.5 -245.5 c 128,-1,10
 146 -212 146 -212 146 -129 c 2,11,-1
 146 1082 l 1,12,-1
 331 1082 l 1,0,-1
127 1369 m 0,13,14
 127 1413 127 1413 154.5 1444.5 c 128,-1,15
 182 1476 182 1476 235 1476 c 0,16,17
 289 1476 289 1476 317 1445 c 128,-1,18
 345 1414 345 1414 345 1369 c 128,-1,19
 345 1324 345 1324 317 1294 c 128,-1,20
 289 1264 289 1264 235 1264 c 128,-1,21
 181 1264 181 1264 154 1294 c 128,-1,22
 127 1324 127 1324 127 1369 c 0,13,14
EndSplineSet
Substitution2: "Single Substitution lookup 3 subtable" glyph607
Substitution2: "'smcp' Lowercase to Small Capitals lookup 1 subtable" J.c2sc
EndChar

StartChar: k
Encoding: 107 107 79
Width: 1038
GlyphClass: 2
Flags: W
LayerCount: 2
Fore
SplineSet
442 501 m 1,0,-1
 326 380 l 1,1,-1
 326 0 l 1,2,-1
 141 0 l 1,3,-1
 141 1536 l 1,4,-1
 326 1536 l 1,5,-1
 326 607 l 1,6,-1
 425 726 l 1,7,-1
 762 1082 l 1,8,-1
 987 1082 l 1,9,-1
 566 630 l 1,10,-1
 1036 0 l 1,11,-1
 819 0 l 1,12,-1
 442 501 l 1,0,-1
EndSplineSet
Substitution2: "'ss05' Style Set 5 lookup 15 subtable" k.ss05
Substitution2: "'ss04' Style Set 4 lookup 14 subtable" k.ss04
Substitution2: "'smcp' Lowercase to Small Capitals lookup 1 subtable" K.c2sc
EndChar

StartChar: l
Encoding: 108 108 80
Width: 497
GlyphClass: 2
Flags: W
LayerCount: 2
Fore
SplineSet
341 0 m 1,0,-1
 156 0 l 1,1,-1
 156 1536 l 1,2,-1
 341 1536 l 1,3,-1
 341 0 l 1,0,-1
EndSplineSet
Substitution2: "'smcp' Lowercase to Small Capitals lookup 1 subtable" L.c2sc
EndChar

StartChar: m
Encoding: 109 109 81
Width: 1795
GlyphClass: 2
Flags: W
LayerCount: 2
Fore
SplineSet
314 1082 m 1,0,-1
 319 962 l 1,1,2
 438 1102 438 1102 640 1102 c 0,3,4
 867 1102 867 1102 949 928 c 1,5,6
 1003 1006 1003 1006 1089.5 1054 c 128,-1,7
 1176 1102 1176 1102 1294 1102 c 0,8,9
 1650 1102 1650 1102 1656 725 c 1,10,-1
 1656 0 l 1,11,-1
 1471 0 l 1,12,-1
 1471 714 l 2,13,14
 1471 830 1471 830 1418 887.5 c 128,-1,15
 1365 945 1365 945 1240 945 c 0,16,17
 1137 945 1137 945 1069 883.5 c 128,-1,18
 1001 822 1001 822 990 718 c 1,19,-1
 990 0 l 1,20,-1
 804 0 l 1,21,-1
 804 709 l 2,22,23
 804 945 804 945 573 945 c 0,24,25
 391 945 391 945 324 790 c 1,26,-1
 324 0 l 1,27,-1
 139 0 l 1,28,-1
 139 1082 l 1,29,-1
 314 1082 l 1,0,-1
EndSplineSet
Substitution2: "'smcp' Lowercase to Small Capitals lookup 1 subtable" M.c2sc
EndChar

StartChar: n
Encoding: 110 110 82
Width: 1130
GlyphClass: 2
Flags: W
LayerCount: 2
Fore
SplineSet
315 1082 m 1,0,-1
 321 946 l 1,1,2
 445 1102 445 1102 645 1102 c 0,3,4
 988 1102 988 1102 991 715 c 2,5,-1
 991 0 l 1,6,-1
 806 0 l 1,7,-1
 806 716 l 2,8,9
 805 833 805 833 752.5 889 c 128,-1,10
 700 945 700 945 589 945 c 0,11,12
 499 945 499 945 431 897 c 128,-1,13
 363 849 363 849 325 771 c 1,14,-1
 325 0 l 1,15,-1
 140 0 l 1,16,-1
 140 1082 l 1,17,-1
 315 1082 l 1,0,-1
EndSplineSet
Substitution2: "'smcp' Lowercase to Small Capitals lookup 1 subtable" N.c2sc
EndChar

StartChar: o
Encoding: 111 111 83
Width: 1168
GlyphClass: 2
Flags: W
LayerCount: 2
Fore
SplineSet
91 551 m 2,0,1
 91 710 91 710 153.5 837 c 128,-1,2
 216 964 216 964 327.5 1033 c 128,-1,3
 439 1102 439 1102 582 1102 c 0,4,5
 803 1102 803 1102 939.5 949 c 128,-1,6
 1076 796 1076 796 1076 542 c 2,7,-1
 1076 529 l 2,8,9
 1076 371 1076 371 1015.5 245.5 c 128,-1,10
 955 120 955 120 842.5 50 c 128,-1,11
 730 -20 730 -20 584 -20 c 0,12,13
 364 -20 364 -20 227.5 133 c 128,-1,14
 91 286 91 286 91 538 c 2,15,-1
 91 551 l 2,0,1
277 529 m 0,16,17
 277 349 277 349 360.5 240 c 128,-1,18
 444 131 444 131 584 131 c 0,19,20
 725 131 725 131 808 241.5 c 128,-1,21
 891 352 891 352 891 551 c 0,22,23
 891 729 891 729 806.5 839.5 c 128,-1,24
 722 950 722 950 582 950 c 0,25,26
 445 950 445 950 361 841 c 128,-1,27
 277 732 277 732 277 529 c 0,16,17
EndSplineSet
Substitution2: "'ss06' Style Set 6 lookup 16 subtable" o.ss06
Substitution2: "'smcp' Lowercase to Small Capitals lookup 1 subtable" O.c2sc
EndChar

StartChar: p
Encoding: 112 112 84
Width: 1149
GlyphClass: 2
Flags: W
LayerCount: 2
Fore
SplineSet
1054 529 m 2,0,1
 1054 282 1054 282 941 131 c 128,-1,2
 828 -20 828 -20 635 -20 c 0,3,4
 438 -20 438 -20 325 105 c 1,5,-1
 325 -416 l 1,6,-1
 140 -416 l 1,7,-1
 140 1082 l 1,8,-1
 309 1082 l 1,9,-1
 318 962 l 1,10,11
 431 1102 431 1102 632 1102 c 0,12,13
 827 1102 827 1102 940.5 955 c 128,-1,14
 1054 808 1054 808 1054 546 c 2,15,-1
 1054 529 l 2,0,1
869 550 m 0,16,17
 869 733 869 733 791 839 c 128,-1,18
 713 945 713 945 577 945 c 0,19,20
 409 945 409 945 325 796 c 1,21,-1
 325 279 l 1,22,23
 408 131 408 131 579 131 c 0,24,25
 712 131 712 131 790.5 236.5 c 128,-1,26
 869 342 869 342 869 550 c 0,16,17
EndSplineSet
Substitution2: "'ss06' Style Set 6 lookup 16 subtable" p.ss06
Substitution2: "'smcp' Lowercase to Small Capitals lookup 1 subtable" P.c2sc
EndChar

StartChar: q
Encoding: 113 113 85
Width: 1164
GlyphClass: 2
Flags: W
LayerCount: 2
Fore
SplineSet
95 550 m 2,0,1
 95 805 95 805 212 953.5 c 128,-1,2
 329 1102 329 1102 526 1102 c 0,3,4
 718 1102 718 1102 829 973 c 1,5,-1
 837 1082 l 1,6,-1
 1007 1082 l 1,7,-1
 1007 -416 l 1,8,-1
 822 -416 l 1,9,-1
 822 100 l 1,10,11
 710 -20 710 -20 524 -20 c 0,12,13
 328 -20 328 -20 211.5 132.5 c 128,-1,14
 95 285 95 285 95 537 c 2,15,-1
 95 550 l 2,0,1
280 529 m 0,16,17
 280 343 280 343 358.5 237 c 128,-1,18
 437 131 437 131 570 131 c 0,19,20
 735 131 735 131 822 277 c 1,21,-1
 822 807 l 1,22,23
 734 950 734 950 572 950 c 0,24,25
 438 950 438 950 359 843.5 c 128,-1,26
 280 737 280 737 280 529 c 0,16,17
EndSplineSet
Substitution2: "'ss06' Style Set 6 lookup 16 subtable" q.ss06
Substitution2: "'smcp' Lowercase to Small Capitals lookup 1 subtable" Q.c2sc
EndChar

StartChar: r
Encoding: 114 114 86
Width: 693
GlyphClass: 2
Flags: W
LayerCount: 2
Fore
SplineSet
663 916 m 1,0,1
 621 923 621 923 572 923 c 0,2,3
 390 923 390 923 325 768 c 1,4,-1
 325 0 l 1,5,-1
 140 0 l 1,6,-1
 140 1082 l 1,7,-1
 320 1082 l 1,8,-1
 323 957 l 1,9,10
 414 1102 414 1102 581 1102 c 0,11,12
 635 1102 635 1102 663 1088 c 1,13,-1
 663 916 l 1,0,1
EndSplineSet
Substitution2: "'smcp' Lowercase to Small Capitals lookup 1 subtable" R.c2sc
EndChar

StartChar: s
Encoding: 115 115 87
Width: 1056
GlyphClass: 2
Flags: W
LayerCount: 2
Fore
SplineSet
770 287 m 0,0,1
 770 362 770 362 713.5 403.5 c 128,-1,2
 657 445 657 445 516.5 475 c 128,-1,3
 376 505 376 505 293.5 547 c 128,-1,4
 211 589 211 589 171.5 647 c 128,-1,5
 132 705 132 705 132 785 c 0,6,7
 132 918 132 918 244.5 1010 c 128,-1,8
 357 1102 357 1102 532 1102 c 0,9,10
 716 1102 716 1102 830.5 1007 c 128,-1,11
 945 912 945 912 945 764 c 1,12,-1
 759 764 l 1,13,14
 759 840 759 840 694.5 895 c 128,-1,15
 630 950 630 950 532 950 c 0,16,17
 431 950 431 950 374 906 c 128,-1,18
 317 862 317 862 317 791 c 0,19,20
 317 724 317 724 370 690 c 128,-1,21
 423 656 423 656 561.5 625 c 128,-1,22
 700 594 700 594 786 551 c 128,-1,23
 872 508 872 508 913.5 447.5 c 128,-1,24
 955 387 955 387 955 300 c 0,25,26
 955 155 955 155 839 67.5 c 128,-1,27
 723 -20 723 -20 538 -20 c 0,28,29
 408 -20 408 -20 308 26 c 128,-1,30
 208 72 208 72 151.5 154.5 c 128,-1,31
 95 237 95 237 95 333 c 1,32,-1
 280 333 l 1,33,34
 285 240 285 240 354.5 185.5 c 128,-1,35
 424 131 424 131 538 131 c 0,36,37
 643 131 643 131 706.5 173.5 c 128,-1,38
 770 216 770 216 770 287 c 0,0,1
EndSplineSet
Substitution2: "'smcp' Lowercase to Small Capitals lookup 1 subtable" S.c2sc
EndChar

StartChar: t
Encoding: 116 116 88
Width: 669
GlyphClass: 2
Flags: W
LayerCount: 2
Fore
SplineSet
391 1344 m 1,0,-1
 391 1082 l 1,1,-1
 593 1082 l 1,2,-1
 593 939 l 1,3,-1
 391 939 l 1,4,-1
 391 268 l 2,5,6
 391 203 391 203 418 170.5 c 128,-1,7
 445 138 445 138 510 138 c 0,8,9
 542 138 542 138 598 150 c 1,10,-1
 598 0 l 1,11,12
 525 -20 525 -20 456 -20 c 0,13,14
 332 -20 332 -20 269 55 c 128,-1,15
 206 130 206 130 206 268 c 2,16,-1
 206 939 l 1,17,-1
 9 939 l 1,18,-1
 9 1082 l 1,19,-1
 206 1082 l 1,20,-1
 206 1344 l 1,21,-1
 391 1344 l 1,0,-1
EndSplineSet
Substitution2: "'smcp' Lowercase to Small Capitals lookup 1 subtable" T.c2sc
EndChar

StartChar: u
Encoding: 117 117 89
Width: 1129
GlyphClass: 2
Flags: W
LayerCount: 2
Fore
SplineSet
808 107 m 1,0,1
 700 -20 700 -20 491 -20 c 0,2,3
 318 -20 318 -20 227.5 80.5 c 128,-1,4
 137 181 137 181 136 378 c 2,5,-1
 136 1082 l 1,6,-1
 321 1082 l 1,7,-1
 321 383 l 2,8,9
 321 137 321 137 521 137 c 0,10,11
 733 137 733 137 803 295 c 1,12,-1
 803 1082 l 1,13,-1
 988 1082 l 1,14,-1
 988 0 l 1,15,-1
 812 0 l 1,16,-1
 808 107 l 1,0,1
EndSplineSet
Substitution2: "'smcp' Lowercase to Small Capitals lookup 1 subtable" U.c2sc
EndChar

StartChar: v
Encoding: 118 118 90
Width: 992
GlyphClass: 2
Flags: W
LayerCount: 2
Fore
SplineSet
497 251 m 1,0,-1
 765 1082 l 1,1,-1
 954 1082 l 1,2,-1
 566 0 l 1,3,-1
 425 0 l 1,4,-1
 33 1082 l 1,5,-1
 222 1082 l 1,6,-1
 497 251 l 1,0,-1
EndSplineSet
Substitution2: "'smcp' Lowercase to Small Capitals lookup 1 subtable" V.c2sc
EndChar

StartChar: w
Encoding: 119 119 91
Width: 1539
GlyphClass: 2
Flags: W
LayerCount: 2
Fore
SplineSet
1098 255 m 1,0,-1
 1306 1082 l 1,1,-1
 1491 1082 l 1,2,-1
 1176 0 l 1,3,-1
 1026 0 l 1,4,-1
 763 820 l 1,5,-1
 507 0 l 1,6,-1
 357 0 l 1,7,-1
 43 1082 l 1,8,-1
 227 1082 l 1,9,-1
 440 272 l 1,10,-1
 692 1082 l 1,11,-1
 841 1082 l 1,12,-1
 1098 255 l 1,0,-1
EndSplineSet
Substitution2: "'smcp' Lowercase to Small Capitals lookup 1 subtable" W.c2sc
EndChar

StartChar: x
Encoding: 120 120 92
Width: 1015
GlyphClass: 2
Flags: W
LayerCount: 2
Fore
SplineSet
503 687 m 1,0,-1
 743 1082 l 1,1,-1
 959 1082 l 1,2,-1
 605 547 l 1,3,-1
 970 0 l 1,4,-1
 756 0 l 1,5,-1
 506 405 l 1,6,-1
 256 0 l 1,7,-1
 41 0 l 1,8,-1
 406 547 l 1,9,-1
 52 1082 l 1,10,-1
 266 1082 l 1,11,-1
 503 687 l 1,0,-1
EndSplineSet
Substitution2: "'smcp' Lowercase to Small Capitals lookup 1 subtable" X.c2sc
EndChar

StartChar: y
Encoding: 121 121 93
Width: 969
GlyphClass: 2
Flags: W
LayerCount: 2
Fore
SplineSet
494 271 m 1,0,-1
 746 1082 l 1,1,-1
 944 1082 l 1,2,-1
 509 -167 l 1,3,4
 408 -437 408 -437 188 -437 c 1,5,-1
 153 -434 l 1,6,-1
 84 -421 l 1,7,-1
 84 -271 l 1,8,-1
 134 -275 l 1,9,10
 228 -275 228 -275 280.5 -237 c 128,-1,11
 333 -199 333 -199 367 -98 c 2,12,-1
 408 12 l 1,13,-1
 22 1082 l 1,14,-1
 224 1082 l 1,15,-1
 494 271 l 1,0,-1
EndSplineSet
Substitution2: "'smcp' Lowercase to Small Capitals lookup 1 subtable" Y.c2sc
EndChar

StartChar: z
Encoding: 122 122 94
Width: 1015
GlyphClass: 2
Flags: W
LayerCount: 2
Fore
SplineSet
314 151 m 1,0,-1
 947 151 l 1,1,-1
 947 0 l 1,2,-1
 88 0 l 1,3,-1
 88 136 l 1,4,-1
 685 929 l 1,5,-1
 97 929 l 1,6,-1
 97 1082 l 1,7,-1
 917 1082 l 1,8,-1
 917 951 l 1,9,-1
 314 151 l 1,0,-1
EndSplineSet
Substitution2: "'smcp' Lowercase to Small Capitals lookup 1 subtable" Z.c2sc
EndChar

StartChar: braceleft
Encoding: 123 123 95
Width: 693
GlyphClass: 1
Flags: W
LayerCount: 2
Fore
SplineSet
632 -366 m 1,0,1
 455 -316 455 -316 365.5 -201.5 c 128,-1,2
 276 -87 276 -87 276 101 c 2,3,-1
 276 300 l 2,4,5
 276 543 276 543 64 543 c 1,6,-1
 64 688 l 1,7,8
 276 688 276 688 276 930 c 2,9,-1
 276 1138 l 2,10,11
 278 1321 278 1321 365.5 1433.5 c 128,-1,12
 453 1546 453 1546 632 1597 c 1,13,-1
 670 1482 l 1,14,15
 461 1415 461 1415 461 1133 c 2,16,-1
 461 931 l 2,17,18
 461 704 461 704 294 615 c 1,19,20
 461 525 461 525 461 296 c 2,21,-1
 461 90 l 2,22,23
 464 -185 464 -185 670 -251 c 1,24,-1
 632 -366 l 1,0,1
EndSplineSet
EndChar

StartChar: bar
Encoding: 124 124 96
Width: 499
GlyphClass: 1
Flags: W
LayerCount: 2
Fore
SplineSet
324 -270 m 1,0,-1
 175 -270 l 1,1,-1
 175 1456 l 1,2,-1
 324 1456 l 1,3,-1
 324 -270 l 1,0,-1
EndSplineSet
EndChar

StartChar: braceright
Encoding: 125 125 97
Width: 693
GlyphClass: 1
Flags: W
LayerCount: 2
Fore
SplineSet
19 -251 m 1,0,1
 222 -186 222 -186 229 80 c 1,2,-1
 229 300 l 2,3,4
 229 531 229 531 410 615 c 1,5,6
 229 697 229 697 229 930 c 2,7,-1
 229 1133 l 2,8,9
 229 1415 229 1415 20 1482 c 1,10,-1
 58 1597 l 1,11,12
 235 1547 235 1547 324 1434.5 c 128,-1,13
 413 1322 413 1322 414 1137 c 2,14,-1
 414 927 l 2,15,16
 414 688 414 688 626 688 c 1,17,-1
 626 543 l 1,18,19
 414 543 414 543 414 300 c 2,20,-1
 414 98 l 2,21,22
 414 -90 414 -90 323.5 -203 c 128,-1,23
 233 -316 233 -316 58 -366 c 1,24,-1
 19 -251 l 1,0,1
EndSplineSet
EndChar

StartChar: asciitilde
Encoding: 126 126 98
Width: 1393
GlyphClass: 1
Flags: W
LayerCount: 2
Fore
SplineSet
1263 777 m 1,0,1
 1263 619 1263 619 1169.5 510.5 c 128,-1,2
 1076 402 1076 402 939 402 c 0,3,4
 867 402 867 402 803 428.5 c 128,-1,5
 739 455 739 455 654.5 529 c 128,-1,6
 570 603 570 603 533 621 c 128,-1,7
 496 639 496 639 454 639 c 0,8,9
 376 639 376 639 334 585.5 c 128,-1,10
 292 532 292 532 292 438 c 1,11,-1
 131 436 l 1,12,13
 131 596 131 596 223 699 c 128,-1,14
 315 802 315 802 454 802 c 0,15,16
 530 802 530 802 600 770 c 128,-1,17
 670 738 670 738 758 657.5 c 128,-1,18
 846 577 846 577 910 567 c 1,19,-1
 939 565 l 1,20,21
 1015 565 1015 565 1062.5 623 c 128,-1,22
 1110 681 1110 681 1110 776 c 1,23,-1
 1263 777 l 1,0,1
EndSplineSet
EndChar

StartChar: exclamdown
Encoding: 161 161 99
Width: 499
GlyphClass: 1
Flags: W
LayerCount: 2
Fore
SplineSet
170 684 m 1,0,-1
 338 684 l 1,1,-1
 351 -360 l 1,2,-1
 157 -360 l 1,3,-1
 170 684 l 1,0,-1
358 996 m 256,4,5
 358 951 358 951 330.5 920 c 128,-1,6
 303 889 303 889 249 889 c 128,-1,7
 195 889 195 889 167 920 c 128,-1,8
 139 951 139 951 139 996 c 128,-1,9
 139 1041 139 1041 167 1071 c 128,-1,10
 195 1101 195 1101 249 1101 c 128,-1,11
 303 1101 303 1101 330.5 1071 c 128,-1,12
 358 1041 358 1041 358 996 c 256,4,5
EndSplineSet
EndChar

StartChar: cent
Encoding: 162 162 100
Width: 1120
GlyphClass: 1
Flags: W
LayerCount: 2
Fore
SplineSet
586 131 m 0,0,1
 686 131 686 131 760 191.5 c 128,-1,2
 834 252 834 252 842 341 c 1,3,-1
 1017 341 l 1,4,5
 1011 215 1011 215 912 114.5 c 128,-1,6
 813 14 813 14 669 -12 c 1,7,-1
 669 -245 l 1,8,-1
 484 -245 l 1,9,-1
 484 -11 l 1,10,11
 305 23 305 23 205 165 c 128,-1,12
 105 307 105 307 105 527 c 2,13,-1
 105 562 l 2,14,15
 105 774 105 774 206 916.5 c 128,-1,16
 307 1059 307 1059 484 1092 c 1,17,-1
 484 1318 l 1,18,-1
 669 1318 l 1,19,-1
 669 1095 l 1,20,21
 819 1072 819 1072 915 966 c 128,-1,22
 1011 860 1011 860 1017 710 c 1,23,-1
 842 710 l 1,24,25
 834 815 834 815 762.5 882.5 c 128,-1,26
 691 950 691 950 586 950 c 0,27,28
 445 950 445 950 367.5 848.5 c 128,-1,29
 290 747 290 747 290 555 c 2,30,-1
 290 520 l 2,31,32
 290 333 290 333 367.5 232 c 128,-1,33
 445 131 445 131 586 131 c 0,0,1
EndSplineSet
EndChar

StartChar: sterling
Encoding: 163 163 101
Width: 1190
GlyphClass: 1
Flags: W
LayerCount: 2
Fore
SplineSet
449 622 m 1,0,-1
 457 402 l 1,1,2
 457 248 457 248 395 157 c 1,3,-1
 1128 157 l 1,4,-1
 1127 0 l 1,5,-1
 95 0 l 1,6,-1
 95 157 l 1,7,-1
 172 157 l 1,8,9
 212 166 212 166 237 231.5 c 128,-1,10
 262 297 262 297 264 393 c 2,11,-1
 264 401 l 1,12,-1
 256 622 l 1,13,-1
 91 622 l 1,14,-1
 91 779 l 1,15,-1
 251 779 l 1,16,-1
 242 1039 l 1,17,18
 242 1238 242 1238 364.5 1357 c 128,-1,19
 487 1476 487 1476 687 1476 c 0,20,21
 877 1476 877 1476 988 1370 c 128,-1,22
 1099 1264 1099 1264 1099 1087 c 1,23,-1
 908 1087 l 1,24,25
 908 1194 908 1194 844.5 1256 c 128,-1,26
 781 1318 781 1318 670 1318 c 0,27,28
 565 1318 565 1318 500 1241 c 128,-1,29
 435 1164 435 1164 435 1039 c 1,30,-1
 444 779 l 1,31,-1
 763 779 l 1,32,-1
 763 622 l 1,33,-1
 449 622 l 1,0,-1
EndSplineSet
Substitution2: "'c2sc' Capitals to Small Capitals lookup 0 subtable" sterling.c2sc
Position2: "'cpsp' Capital Spacing lookup 0 subtable" dx=36 dy=0 dh=72 dv=0
EndChar

StartChar: multiply
Encoding: 215 215 102
Width: 1092
GlyphClass: 1
Flags: W
LayerCount: 2
Fore
SplineSet
89 329 m 1,0,-1
 419 665 l 1,1,-1
 91 1000 l 1,2,-1
 210 1123 l 1,3,-1
 539 788 l 1,4,-1
 868 1123 l 1,5,-1
 987 1000 l 1,6,-1
 659 665 l 1,7,-1
 989 329 l 1,8,-1
 870 206 l 1,9,-1
 539 543 l 1,10,-1
 208 206 l 1,11,-1
 89 329 l 1,0,-1
EndSplineSet
EndChar

StartChar: germandbls
Encoding: 223 223 103
Width: 1218
GlyphClass: 1
Flags: W
LayerCount: 2
Fore
SplineSet
324 0 m 1,0,-1
 139 0 l 1,1,-1
 139 1111 l 2,2,3
 139 1319 139 1319 242.5 1436.5 c 128,-1,4
 346 1554 346 1554 532 1554 c 0,5,6
 712 1554 712 1554 810.5 1464.5 c 128,-1,7
 909 1375 909 1375 909 1216 c 0,8,9
 909 1091 909 1091 845 989.5 c 128,-1,10
 781 888 781 888 781 819 c 0,11,12
 781 768 781 768 818.5 720.5 c 128,-1,13
 856 673 856 673 950 601 c 128,-1,14
 1044 529 1044 529 1087 461 c 128,-1,15
 1130 393 1130 393 1130 317 c 0,16,17
 1130 158 1130 158 1028.5 69 c 128,-1,18
 927 -20 927 -20 745 -20 c 0,19,20
 664 -20 664 -20 573.5 2 c 128,-1,21
 483 24 483 24 445 52 c 1,22,-1
 488 207 l 1,23,24
 537 175 537 175 604.5 153 c 128,-1,25
 672 131 672 131 725 131 c 0,26,27
 832 131 832 131 888.5 178 c 128,-1,28
 945 225 945 225 945 307 c 0,29,30
 945 359 945 359 908 407 c 128,-1,31
 871 455 871 455 776.5 528.5 c 128,-1,32
 682 602 682 602 638.5 671 c 128,-1,33
 595 740 595 740 595 821 c 0,34,35
 595 910 595 910 664.5 1013.5 c 128,-1,36
 734 1117 734 1117 734 1201 c 0,37,38
 734 1295 734 1295 682 1348.5 c 128,-1,39
 630 1402 630 1402 542 1402 c 0,40,41
 324 1402 324 1402 324 1109 c 2,42,-1
 324 0 l 1,0,-1
EndSplineSet
Substitution2: "'smcp' Lowercase to Small Capitals lookup 1 subtable" germandbls.sc
EndChar

StartChar: divide
Encoding: 247 247 104
Width: 1169
GlyphClass: 1
Flags: W
LayerCount: 2
Fore
SplineSet
1069 600 m 1,0,-1
 71 600 l 1,1,-1
 71 784 l 1,2,-1
 1069 784 l 1,3,-1
 1069 600 l 1,0,-1
461 1098 m 0,4,5
 461 1146 461 1146 489.5 1178 c 128,-1,6
 518 1210 518 1210 575 1210 c 128,-1,7
 632 1210 632 1210 661.5 1178 c 128,-1,8
 691 1146 691 1146 691 1098 c 0,9,10
 691 1051 691 1051 661.5 1020 c 128,-1,11
 632 989 632 989 575 989 c 128,-1,12
 518 989 518 989 489.5 1020 c 128,-1,13
 461 1051 461 1051 461 1098 c 0,4,5
461 281 m 0,14,15
 461 329 461 329 489.5 361 c 128,-1,16
 518 393 518 393 575 393 c 128,-1,17
 632 393 632 393 661.5 361 c 128,-1,18
 691 329 691 329 691 281 c 0,19,20
 691 235 691 235 661.5 203.5 c 128,-1,21
 632 172 632 172 575 172 c 128,-1,22
 518 172 518 172 489.5 203.5 c 128,-1,23
 461 235 461 235 461 281 c 0,14,15
EndSplineSet
EndChar

StartChar: dcroat
Encoding: 273 273 105
Width: 1223
GlyphClass: 2
Flags: W
LayerCount: 2
Fore
SplineSet
1196 1233 m 1,0,-1
 1008 1233 l 1,1,-1
 1008 0 l 1,2,-1
 838 0 l 1,3,-1
 829 116 l 1,4,5
 718 -20 718 -20 520 -20 c 0,6,7
 332 -20 332 -20 213.5 134 c 128,-1,8
 95 288 95 288 95 536 c 2,9,-1
 95 550 l 2,10,11
 95 799 95 799 213 950.5 c 128,-1,12
 331 1102 331 1102 522 1102 c 0,13,14
 712 1102 712 1102 823 972 c 1,15,-1
 823 1233 l 1,16,-1
 559 1233 l 1,17,-1
 559 1384 l 1,18,-1
 823 1384 l 1,19,-1
 823 1536 l 1,20,-1
 1008 1536 l 1,21,-1
 1008 1384 l 1,22,-1
 1196 1384 l 1,23,-1
 1196 1233 l 1,0,-1
280 529 m 0,24,25
 280 345 280 345 356 241 c 128,-1,26
 432 137 432 137 566 137 c 0,27,28
 742 137 742 137 823 295 c 1,29,-1
 823 792 l 1,30,31
 740 945 740 945 568 945 c 0,32,33
 432 945 432 945 356 840 c 128,-1,34
 280 735 280 735 280 529 c 0,24,25
EndSplineSet
Substitution2: "'smcp' Lowercase to Small Capitals lookup 1 subtable" Dcroat.c2sc
EndChar

StartChar: alpha
Encoding: 945 945 106
Width: 1157
GlyphClass: 2
Flags: W
LayerCount: 2
Fore
SplineSet
1006 1082 m 1,0,-1
 1006 285 l 2,1,2
 1008 145 1008 145 1086 145 c 0,3,4
 1105 145 1105 145 1120 150 c 1,5,-1
 1143 13 l 1,6,7
 1095 -21 1095 -21 1021 -21 c 0,8,9
 874 -21 874 -21 836 144 c 1,10,11
 729 -21 729 -21 520 -21 c 0,12,13
 328 -21 328 -21 214 120.5 c 128,-1,14
 100 262 100 262 100 506 c 2,15,-1
 100 521 l 2,16,17
 100 785 100 785 213 943.5 c 128,-1,18
 326 1102 326 1102 522 1102 c 0,19,20
 725 1102 725 1102 832 941 c 1,21,-1
 849 1082 l 1,22,-1
 1006 1082 l 1,0,-1
285 500 m 0,23,24
 285 325 285 325 358 227.5 c 128,-1,25
 431 130 431 130 566 130 c 0,26,27
 739 130 739 130 821 316 c 1,28,-1
 821 762 l 1,29,30
 736 950 736 950 568 950 c 0,31,32
 434 950 434 950 359.5 836.5 c 128,-1,33
 285 723 285 723 285 500 c 0,23,24
EndSplineSet
Substitution2: "'ss02' Style Set 2 lookup 12 subtable" alpha.ss02
Substitution2: "'smcp' Lowercase to Small Capitals lookup 1 subtable" Alpha.c2sc
EndChar

StartChar: tau
Encoding: 964 964 107
Width: 1068
GlyphClass: 1
Flags: W
LayerCount: 2
Fore
SplineSet
985 932 m 1,0,-1
 614 932 l 1,1,-1
 614 269 l 2,2,3
 614 136 614 136 719 136 c 0,4,5
 762 136 762 136 811 162 c 1,6,-1
 853 32 l 1,7,8
 777 -20 777 -20 671 -20 c 0,9,10
 546 -20 546 -20 487.5 53.5 c 128,-1,11
 429 127 429 127 428 273 c 2,12,-1
 428 932 l 1,13,-1
 81 932 l 1,14,-1
 81 1082 l 1,15,-1
 985 1082 l 1,16,-1
 985 932 l 1,0,-1
EndSplineSet
Substitution2: "'smcp' Lowercase to Small Capitals lookup 1 subtable" Tau.c2sc
EndChar

StartChar: uni0432
Encoding: 1074 1074 108
Width: 1170
GlyphClass: 2
Flags: W
LayerCount: 2
Fore
SplineSet
157 0 m 1,0,-1
 157 1082 l 1,1,-1
 579 1082 l 2,2,3
 795 1082 795 1082 910.5 1006.5 c 128,-1,4
 1026 931 1026 931 1026 785 c 0,5,6
 1026 710 1026 710 981 649.5 c 128,-1,7
 936 589 936 589 848 557 c 1,8,9
 946 534 946 534 1005.5 467 c 128,-1,10
 1065 400 1065 400 1065 307 c 0,11,12
 1065 158 1065 158 955.5 79 c 128,-1,13
 846 0 846 0 646 0 c 2,14,-1
 157 0 l 1,0,-1
342 475 m 1,15,-1
 342 149 l 1,16,-1
 648 149 l 2,17,18
 764 149 764 149 821.5 192 c 128,-1,19
 879 235 879 235 879 313 c 0,20,21
 879 475 879 475 641 475 c 2,22,-1
 342 475 l 1,15,-1
342 623 m 1,23,-1
 581 623 l 2,24,25
 841 623 841 623 841 775 c 128,-1,26
 841 927 841 927 595 932 c 1,27,-1
 342 932 l 1,28,-1
 342 623 l 1,23,-1
EndSplineSet
Substitution2: "'smcp' Lowercase to Small Capitals lookup 1 subtable" uni0412.c2sc
EndChar

StartChar: uni0437
Encoding: 1079 1079 109
Width: 1040
GlyphClass: 2
Flags: W
LayerCount: 2
Fore
SplineSet
735 786 m 0,0,1
 735 862 735 862 677 906.5 c 128,-1,2
 619 951 619 951 518 951 c 0,3,4
 420 951 420 951 354.5 900 c 128,-1,5
 289 849 289 849 289 780 c 1,6,-1
 105 780 l 1,7,8
 105 921 105 921 223 1011 c 128,-1,9
 341 1101 341 1101 518 1101 c 0,10,11
 708 1101 708 1101 814 1019.5 c 128,-1,12
 920 938 920 938 920 787 c 0,13,14
 920 714 920 714 876 653 c 128,-1,15
 832 592 832 592 751 556 c 1,16,17
 940 492 940 492 940 304 c 0,18,19
 940 155 940 155 825 68 c 128,-1,20
 710 -19 710 -19 518 -19 c 0,21,22
 331 -19 331 -19 209.5 72.5 c 128,-1,23
 88 164 88 164 88 320 c 1,24,-1
 272 320 l 1,25,26
 272 241 272 241 342.5 184.5 c 128,-1,27
 413 128 413 128 518 128 c 0,28,29
 624 128 624 128 689 177 c 128,-1,30
 754 226 754 226 754 304 c 0,31,32
 754 395 754 395 699.5 434.5 c 128,-1,33
 645 474 645 474 530 474 c 2,34,-1
 345 474 l 1,35,-1
 345 630 l 1,36,-1
 546 630 l 1,37,38
 735 635 735 635 735 786 c 0,0,1
EndSplineSet
Substitution2: "'smcp' Lowercase to Small Capitals lookup 1 subtable" uni0417.c2sc
EndChar

StartChar: uni043A
Encoding: 1082 1082 110
Width: 1106
GlyphClass: 2
Flags: W
LayerCount: 2
Fore
SplineSet
477 461 m 1,0,-1
 342 461 l 1,1,-1
 342 0 l 1,2,-1
 156 0 l 1,3,-1
 156 1082 l 1,4,-1
 342 1082 l 1,5,-1
 342 624 l 1,6,-1
 463 624 l 1,7,-1
 827 1082 l 1,8,-1
 1051 1082 l 1,9,-1
 623 562 l 1,10,-1
 1087 0 l 1,11,-1
 852 0 l 1,12,-1
 477 461 l 1,0,-1
EndSplineSet
Substitution2: "'smcp' Lowercase to Small Capitals lookup 1 subtable" uni041A.c2sc
EndChar

StartChar: uni043C
Encoding: 1084 1084 111
Width: 1519
GlyphClass: 2
Flags: W
LayerCount: 2
Fore
SplineSet
763 245 m 1,0,-1
 1131 1082 l 1,1,-1
 1362 1082 l 1,2,-1
 1362 0 l 1,3,-1
 1177 0 l 1,4,-1
 1177 787 l 1,5,-1
 827 0 l 1,6,-1
 699 0 l 1,7,-1
 342 804 l 1,8,-1
 342 0 l 1,9,-1
 157 0 l 1,10,-1
 157 1082 l 1,11,-1
 397 1082 l 1,12,-1
 763 245 l 1,0,-1
EndSplineSet
Substitution2: "'smcp' Lowercase to Small Capitals lookup 1 subtable" uni041C.c2sc
EndChar

StartChar: uni043D
Encoding: 1085 1085 112
Width: 1181
GlyphClass: 2
Flags: W
LayerCount: 2
Fore
SplineSet
1024 0 m 1,0,-1
 839 0 l 1,1,-1
 839 462 l 1,2,-1
 342 462 l 1,3,-1
 342 0 l 1,4,-1
 156 0 l 1,5,-1
 156 1082 l 1,6,-1
 342 1082 l 1,7,-1
 342 613 l 1,8,-1
 839 613 l 1,9,-1
 839 1082 l 1,10,-1
 1024 1082 l 1,11,-1
 1024 0 l 1,0,-1
EndSplineSet
Substitution2: "'smcp' Lowercase to Small Capitals lookup 1 subtable" uni041D.c2sc
EndChar

StartChar: uni0442
Encoding: 1090 1090 113
Width: 984
GlyphClass: 2
Flags: W
LayerCount: 2
Fore
SplineSet
944 932 m 1,0,-1
 581 932 l 1,1,-1
 581 0 l 1,2,-1
 396 0 l 1,3,-1
 396 932 l 1,4,-1
 40 932 l 1,5,-1
 40 1082 l 1,6,-1
 944 1082 l 1,7,-1
 944 932 l 1,0,-1
EndSplineSet
Substitution2: "'smcp' Lowercase to Small Capitals lookup 1 subtable" uni0422.c2sc
EndChar

StartChar: uni0461
Encoding: 1121 1121 114
Width: 1579
GlyphClass: 2
Flags: W
LayerCount: 2
Fore
SplineSet
1453 1082 m 1,0,-1
 1453 353 l 2,1,2
 1453 177 1453 177 1352 78 c 128,-1,3
 1251 -21 1251 -21 1077 -21 c 0,4,5
 879 -21 879 -21 790 127 c 1,6,7
 695 -21 695 -21 489 -21 c 0,8,9
 322 -21 322 -21 226 76.5 c 128,-1,10
 130 174 130 174 129 350 c 2,11,-1
 129 1082 l 1,12,-1
 314 1082 l 1,13,-1
 314 349 l 2,14,15
 315 247 315 247 360.5 188.5 c 128,-1,16
 406 130 406 130 489 130 c 0,17,18
 587 130 587 130 642.5 190 c 128,-1,19
 698 250 698 250 698 353 c 2,20,-1
 698 1082 l 1,21,-1
 884 1082 l 1,22,-1
 884 353 l 2,23,24
 884 250 884 250 934.5 190 c 128,-1,25
 985 130 985 130 1077 130 c 0,26,27
 1166 130 1166 130 1216.5 188.5 c 128,-1,28
 1267 247 1267 247 1268 349 c 2,29,-1
 1268 1082 l 1,30,-1
 1453 1082 l 1,0,-1
EndSplineSet
EndChar

StartChar: uni0472
Encoding: 1138 1138 115
Width: 1393
GlyphClass: 2
Flags: W
LayerCount: 2
Fore
SplineSet
1274 681 m 2,0,1
 1274 468 1274 468 1202.5 309 c 128,-1,2
 1131 150 1131 150 999 65 c 128,-1,3
 867 -20 867 -20 690 -20 c 0,4,5
 518 -20 518 -20 385 64.5 c 128,-1,6
 252 149 252 149 178.5 305.5 c 128,-1,7
 105 462 105 462 103 668 c 2,8,-1
 103 773 l 2,9,10
 103 983 103 983 176 1144 c 128,-1,11
 249 1305 249 1305 382.5 1390.5 c 128,-1,12
 516 1476 516 1476 688 1476 c 0,13,14
 863 1476 863 1476 995 1392 c 128,-1,15
 1127 1308 1127 1308 1199.5 1150.5 c 128,-1,16
 1272 993 1272 993 1274 786 c 2,17,-1
 1274 681 l 2,0,1
688 1311 m 0,18,19
 506 1311 506 1311 402 1173.5 c 128,-1,20
 298 1036 298 1036 294 794 c 1,21,-1
 1082 794 l 1,22,23
 1078 1042 1078 1042 975 1176.5 c 128,-1,24
 872 1311 872 1311 688 1311 c 0,18,19
690 143 m 0,25,26
 872 143 872 143 973 271 c 128,-1,27
 1074 399 1074 399 1082 643 c 1,28,-1
 294 643 l 1,29,30
 302 407 302 407 407.5 275 c 128,-1,31
 513 143 513 143 690 143 c 0,25,26
EndSplineSet
EndChar

StartChar: uni0473
Encoding: 1139 1139 116
Width: 1163
GlyphClass: 2
Flags: W
LayerCount: 2
Fore
SplineSet
91 551 m 2,0,1
 91 710 91 710 152.5 836.5 c 128,-1,2
 214 963 214 963 326.5 1032.5 c 128,-1,3
 439 1102 439 1102 582 1102 c 0,4,5
 794 1102 794 1102 929 959 c 128,-1,6
 1064 816 1064 816 1075 587 c 1,7,-1
 1076 529 l 2,8,9
 1076 371 1076 371 1014 244 c 128,-1,10
 952 117 952 117 840 48.5 c 128,-1,11
 728 -20 728 -20 584 -20 c 0,12,13
 362 -20 362 -20 226.5 133.5 c 128,-1,14
 91 287 91 287 91 538 c 2,15,-1
 91 551 l 2,0,1
887 470 m 1,16,-1
 278 470 l 1,17,18
 291 315 291 315 373 223 c 128,-1,19
 455 131 455 131 584 131 c 128,-1,20
 713 131 713 131 793.5 224 c 128,-1,21
 874 317 874 317 887 470 c 1,16,-1
582 950 m 0,22,23
 457 950 457 950 376 859.5 c 128,-1,24
 295 769 295 769 280 622 c 1,25,-1
 886 622 l 1,26,27
 868 773 868 773 786.5 861.5 c 128,-1,28
 705 950 705 950 582 950 c 0,22,23
EndSplineSet
EndChar

StartChar: uni0500
Encoding: 1280 1280 117
Width: 1270
GlyphClass: 1
Flags: W
LayerCount: 2
Fore
SplineSet
931 883 m 1,0,-1
 931 1456 l 1,1,-1
 1125 1456 l 1,2,-1
 1125 0 l 1,3,-1
 580 0 l 2,4,5
 352 0 352 0 219.5 121 c 128,-1,6
 87 242 87 242 87 445 c 0,7,8
 87 644 87 644 214.5 761.5 c 128,-1,9
 342 879 342 879 566 883 c 1,10,-1
 931 883 l 1,0,-1
931 157 m 1,11,-1
 931 725 l 1,12,-1
 580 725 l 2,13,14
 440 725 440 725 359.5 650 c 128,-1,15
 279 575 279 575 279 447 c 0,16,17
 279 317 279 317 358.5 237.5 c 128,-1,18
 438 158 438 158 576 157 c 2,19,-1
 931 157 l 1,11,-1
EndSplineSet
EndChar

StartChar: uni0502
Encoding: 1282 1282 118
Width: 1684
GlyphClass: 1
Flags: W
LayerCount: 2
Fore
SplineSet
583 0 m 2,0,1
 354 0 354 0 221.5 122 c 128,-1,2
 89 244 89 244 89 445 c 0,3,4
 89 643 89 643 217.5 761.5 c 128,-1,5
 346 880 346 880 573 883 c 2,6,-1
 935 883 l 1,7,-1
 935 1456 l 1,8,-1
 1128 1456 l 1,9,-1
 1128 155 l 1,10,-1
 1216 156 l 2,11,12
 1327 158 1327 158 1384 231 c 128,-1,13
 1441 304 1441 304 1444 427 c 0,14,15
 1448 589 1448 589 1384 756 c 1,16,-1
 1570 756 l 1,17,-1
 1592 688 l 2,18,19
 1639 537 1639 537 1636 427 c 0,20,21
 1632 232 1632 232 1517.5 116 c 128,-1,22
 1403 0 1403 0 1208 0 c 2,23,-1
 583 0 l 2,0,1
935 157 m 1,24,-1
 935 725 l 1,25,-1
 583 725 l 2,26,27
 441 725 441 725 362 649.5 c 128,-1,28
 283 574 283 574 283 447 c 128,-1,29
 283 320 283 320 359 240.5 c 128,-1,30
 435 161 435 161 568 157 c 1,31,-1
 935 157 l 1,24,-1
EndSplineSet
EndChar

StartChar: uni0503
Encoding: 1283 1283 119
Width: 1764
GlyphClass: 1
Flags: W
LayerCount: 2
Fore
SplineSet
100 521 m 2,0,1
 100 785 100 785 213 943.5 c 128,-1,2
 326 1102 326 1102 522 1102 c 0,3,4
 705 1102 705 1102 811 971 c 1,5,-1
 811 1560 l 1,6,-1
 996 1560 l 1,7,-1
 996 345 l 2,8,9
 994 250 994 250 1041.5 190 c 128,-1,10
 1089 130 1089 130 1167 130 c 0,11,12
 1304 132 1304 132 1379.5 236 c 128,-1,13
 1455 340 1455 340 1459 529 c 0,14,15
 1463 715 1463 715 1398 931 c 1,16,-1
 1577 932 l 1,17,18
 1605 830 1605 830 1625.5 730.5 c 128,-1,19
 1646 631 1646 631 1644 529 c 0,20,21
 1642 360 1642 360 1581.5 235.5 c 128,-1,22
 1521 111 1521 111 1412.5 45 c 128,-1,23
 1304 -21 1304 -21 1167 -21 c 0,24,25
 925 -25 925 -25 847 161 c 1,26,27
 739 -21 739 -21 520 -21 c 0,28,29
 328 -21 328 -21 214 120.5 c 128,-1,30
 100 262 100 262 100 506 c 2,31,-1
 100 521 l 2,0,1
811 811 m 1,32,33
 729 945 729 945 568 945 c 0,34,35
 433 945 433 945 359 833.5 c 128,-1,36
 285 722 285 722 285 500 c 0,37,38
 285 327 285 327 357.5 231.5 c 128,-1,39
 430 136 430 136 566 136 c 0,40,41
 733 136 733 136 816 283 c 1,42,-1
 811 345 l 1,43,-1
 811 811 l 1,32,33
EndSplineSet
EndChar

StartChar: glyph369
Encoding: 65537 -1 120
Width: 800
GlyphClass: 1
Flags: W
LayerCount: 2
Fore
SplineSet
401 1172 m 1,0,-1
 517 1494 l 1,1,-1
 713 1494 l 1,2,-1
 713 1473 l 1,3,-1
 490 1156 l 1,4,-1
 401 1156 l 1,5,-1
 401 1172 l 1,0,-1
111 1494 m 1,6,-1
 279 1494 l 1,7,-1
 279 1403 l 2,8,9
 282 1280 282 1280 362 1195 c 1,10,-1
 289 1136 l 1,11,12
 111 1231 111 1231 111 1418 c 2,13,-1
 111 1494 l 1,6,-1
EndSplineSet
EndChar

StartChar: summation
Encoding: 8721 8721 122
Width: 1199
GlyphClass: 1
Flags: W
LayerCount: 2
Fore
SplineSet
875 577 m 1,0,-1
 294 -117 l 1,1,-1
 1195 -117 l 1,2,-1
 1195 -269 l 1,3,-1
 69 -269 l 1,4,-1
 69 -126 l 1,5,-1
 678 590 l 1,6,-1
 69 1312 l 1,7,-1
 69 1456 l 1,8,-1
 1118 1456 l 1,9,-1
 1118 1304 l 1,10,-1
 293 1304 l 1,11,-1
 875 602 l 1,12,-1
 875 577 l 1,0,-1
EndSplineSet
EndChar

StartChar: radical
Encoding: 8730 8730 123
Width: 1221
GlyphClass: 1
Flags: W
LayerCount: 2
Fore
SplineSet
560 284 m 1,0,-1
 987 1456 l 1,1,-1
 1176 1456 l 1,2,-1
 634 0 l 1,3,-1
 493 0 l 1,4,-1
 248 628 l 1,5,-1
 63 628 l 1,6,-1
 63 782 l 1,7,-1
 378 782 l 1,8,-1
 560 284 l 1,0,-1
EndSplineSet
EndChar

StartChar: integral
Encoding: 8747 8747 124
Width: 524
GlyphClass: 1
Flags: W
LayerCount: 2
Fore
SplineSet
357 -107 m 2,0,1
 357 -269 357 -269 275 -353 c 128,-1,2
 193 -437 193 -437 35 -437 c 0,3,4
 -22 -437 -22 -437 -80 -417 c 1,5,-1
 -62 -272 l 1,6,7
 -16 -285 -16 -285 17 -285 c 0,8,9
 172 -285 172 -285 172 -108 c 2,10,-1
 172 1197 l 2,11,12
 172 1367 172 1367 260.5 1462 c 128,-1,13
 349 1557 349 1557 510 1557 c 0,14,15
 570 1557 570 1557 654 1536 c 1,16,-1
 630 1394 l 1,17,18
 593 1405 593 1405 539 1405 c 0,19,20
 357 1405 357 1405 357 1186 c 2,21,-1
 357 -107 l 2,0,1
EndSplineSet
EndChar

StartChar: approxequal
Encoding: 8776 8776 125
Width: 1154
GlyphClass: 1
Flags: W
LayerCount: 2
Fore
SplineSet
102 901 m 1,0,1
 150 952 150 952 215.5 981 c 128,-1,2
 281 1010 281 1010 347 1010 c 0,3,4
 429 1012 429 1012 503 977 c 2,5,-1
 655 899 l 2,6,7
 721 868 721 868 799 868 c 0,8,9
 933 868 933 868 1035 996 c 1,10,-1
 1035 806 l 1,11,12
 932 697 932 697 799 697 c 0,13,14
 721 697 721 697 655 728 c 2,15,-1
 494 811 l 2,16,17
 426 842 426 842 347 840 c 0,18,19
 281 840 281 840 215.5 806 c 128,-1,20
 150 772 150 772 102 712 c 1,21,-1
 102 901 l 1,0,1
101 483 m 1,22,23
 149 534 149 534 214 563.5 c 128,-1,24
 279 593 279 593 345 593 c 0,25,26
 427 595 427 595 501 560 c 2,27,-1
 650 483 l 2,28,29
 718 450 718 450 798 450 c 0,30,31
 931 450 931 450 1033 578 c 1,32,-1
 1034 389 l 1,33,34
 931 280 931 280 798 280 c 0,35,36
 720 280 720 280 654 311 c 2,37,-1
 502 389 l 2,38,39
 428 424 428 424 346 422 c 0,40,41
 280 422 280 422 214.5 388 c 128,-1,42
 149 354 149 354 101 294 c 1,43,-1
 101 483 l 1,22,23
EndSplineSet
EndChar

StartChar: notequal
Encoding: 8800 8800 126
Width: 1124
GlyphClass: 1
Flags: W
LayerCount: 2
Fore
SplineSet
986 399 m 1,0,-1
 455 399 l 1,1,-1
 313 155 l 1,2,-1
 218 214 l 1,3,-1
 326 399 l 1,4,-1
 152 399 l 1,5,-1
 152 559 l 1,6,-1
 419 559 l 1,7,-1
 568 814 l 1,8,-1
 152 814 l 1,9,-1
 152 975 l 1,10,-1
 662 975 l 1,11,-1
 815 1237 l 1,12,-1
 910 1178 l 1,13,-1
 791 975 l 1,14,-1
 986 975 l 1,15,-1
 986 814 l 1,16,-1
 697 814 l 1,17,-1
 549 559 l 1,18,-1
 986 559 l 1,19,-1
 986 399 l 1,0,-1
EndSplineSet
EndChar

StartChar: lessequal
Encoding: 8804 8804 127
Width: 1041
GlyphClass: 1
Flags: W
LayerCount: 2
Fore
SplineSet
897 2 m 1
 62 2 l 1
 62 153 l 1
 897 153 l 1
 897 2 l 1
EndSplineSet
Refer: 32 60 N 1 0 0 0.900024 0 97 2
EndChar

StartChar: greaterequal
Encoding: 8805 8805 128
Width: 1071
GlyphClass: 1
Flags: W
LayerCount: 2
Fore
SplineSet
968 1 m 1
 133 1 l 1
 133 152 l 1
 968 152 l 1
 968 1 l 1
EndSplineSet
Refer: 34 62 N 1 0 0 0.900024 0 115 2
EndChar

StartChar: uniFB01
Encoding: 64257 64257 130
Width: 1134
GlyphClass: 3
Flags: W
LayerCount: 2
Fore
SplineSet
202 0 m 1,0,-1
 202 939 l 1,1,-1
 31 939 l 1,2,-1
 31 1082 l 1,3,-1
 202 1082 l 1,4,-1
 202 1174 l 2,5,6
 202 1355 202 1355 305.5 1456 c 128,-1,7
 409 1557 409 1557 598 1557 c 0,8,9
 710 1557 710 1557 881 1496 c 1,10,-1
 850 1340 l 1,11,12
 725 1390 725 1390 612 1390 c 0,13,14
 493 1390 493 1390 440.5 1336.5 c 128,-1,15
 388 1283 388 1283 388 1176 c 2,16,-1
 388 1082 l 1,17,-1
 609 1082 l 1,18,-1
 609 939 l 1,19,-1
 388 939 l 1,20,-1
 388 0 l 1,21,-1
 202 0 l 1,0,-1
973 0 m 1,22,-1
 787 0 l 1,23,-1
 787 1082 l 1,24,-1
 973 1082 l 1,25,-1
 973 0 l 1,22,-1
EndSplineSet
Ligature2: "'liga' Standard Ligatures in Latin lookup 8 subtable" f i
EndChar

StartChar: uniFB02
Encoding: 64258 64258 131
Width: 1163
GlyphClass: 3
Flags: W
LayerCount: 2
Fore
SplineSet
816 1379 m 1,0,1
 692 1399 692 1399 616 1399 c 0,2,3
 416 1399 416 1399 416 1189 c 2,4,-1
 416 1082 l 1,5,-1
 647 1082 l 1,6,-1
 647 939 l 1,7,-1
 416 939 l 1,8,-1
 416 0 l 1,9,-1
 231 0 l 1,10,-1
 231 939 l 1,11,-1
 60 939 l 1,12,-1
 60 1082 l 1,13,-1
 231 1082 l 1,14,-1
 231 1200 l 2,15,16
 232 1373 232 1373 328 1465 c 128,-1,17
 424 1557 424 1557 601 1557 c 0,18,19
 702 1557 702 1557 1001 1496 c 1,20,-1
 1001 0 l 1,21,-1
 816 0 l 1,22,-1
 816 1379 l 1,0,1
EndSplineSet
Ligature2: "'liga' Standard Ligatures in Latin lookup 9 subtable" f l
EndChar

StartChar: uniFB03
Encoding: 64259 64259 132
Width: 1748
GlyphClass: 3
Flags: W
LayerCount: 2
Fore
SplineSet
231 0 m 1,0,-1
 231 939 l 1,1,-1
 60 939 l 1,2,-1
 60 1082 l 1,3,-1
 231 1082 l 1,4,-1
 231 1193 l 2,5,6
 231 1367 231 1367 324 1462 c 128,-1,7
 417 1557 417 1557 587 1557 c 0,8,9
 651 1557 651 1557 714 1540 c 1,10,-1
 704 1390 l 1,11,12
 657 1399 657 1399 604 1399 c 0,13,14
 514 1399 514 1399 465 1346.5 c 128,-1,15
 416 1294 416 1294 416 1196 c 2,16,-1
 416 1082 l 1,17,-1
 816 1082 l 1,18,-1
 816 1174 l 2,19,20
 816 1355 816 1355 919.5 1456 c 128,-1,21
 1023 1557 1023 1557 1212 1557 c 0,22,23
 1324 1557 1324 1557 1495 1496 c 1,24,-1
 1464 1340 l 1,25,26
 1339 1390 1339 1390 1225 1390 c 0,27,28
 1106 1390 1106 1390 1053.5 1337 c 128,-1,29
 1001 1284 1001 1284 1001 1176 c 2,30,-1
 1001 1082 l 1,31,-1
 1223 1082 l 1,32,-1
 1223 939 l 1,33,-1
 1001 939 l 1,34,-1
 1001 0 l 1,35,-1
 816 0 l 1,36,-1
 816 939 l 1,37,-1
 416 939 l 1,38,-1
 416 0 l 1,39,-1
 231 0 l 1,0,-1
1586 0 m 1,40,-1
 1401 0 l 1,41,-1
 1401 1082 l 1,42,-1
 1586 1082 l 1,43,-1
 1586 0 l 1,40,-1
EndSplineSet
Ligature2: "'liga' Standard Ligatures in Latin lookup 8 subtable" f f i
EndChar

StartChar: uniFB04
Encoding: 64260 64260 133
Width: 1748
GlyphClass: 3
Flags: W
LayerCount: 2
Fore
SplineSet
231 0 m 1,0,-1
 231 939 l 1,1,-1
 60 939 l 1,2,-1
 60 1082 l 1,3,-1
 231 1082 l 1,4,-1
 231 1193 l 2,5,6
 231 1367 231 1367 324 1462 c 128,-1,7
 417 1557 417 1557 587 1557 c 0,8,9
 651 1557 651 1557 714 1540 c 1,10,-1
 704 1390 l 1,11,12
 657 1399 657 1399 604 1399 c 0,13,14
 514 1399 514 1399 465 1346.5 c 128,-1,15
 416 1294 416 1294 416 1196 c 2,16,-1
 416 1082 l 1,17,-1
 816 1082 l 1,18,-1
 816 1200 l 2,19,20
 817 1373 817 1373 913 1465 c 128,-1,21
 1009 1557 1009 1557 1186 1557 c 0,22,23
 1287 1557 1287 1557 1586 1496 c 1,24,-1
 1586 0 l 1,25,-1
 1401 0 l 1,26,-1
 1401 1379 l 1,27,28
 1277 1399 1277 1399 1201 1399 c 0,29,30
 1001 1399 1001 1399 1001 1189 c 2,31,-1
 1001 1082 l 1,32,-1
 1232 1082 l 1,33,-1
 1232 939 l 1,34,-1
 1001 939 l 1,35,-1
 1001 0 l 1,36,-1
 816 0 l 1,37,-1
 816 939 l 1,38,-1
 416 939 l 1,39,-1
 416 0 l 1,40,-1
 231 0 l 1,0,-1
EndSplineSet
Ligature2: "'liga' Standard Ligatures in Latin lookup 9 subtable" f f l
EndChar

StartChar: longs_t.dlig
Encoding: 65540 -1 134
Width: 1262
GlyphClass: 3
Flags: W
LayerCount: 2
Fore
SplineSet
1174 939 m 1,0,-1
 972 939 l 1,1,-1
 972 268 l 2,2,3
 972 203 972 203 999 170.5 c 128,-1,4
 1026 138 1026 138 1091 138 c 0,5,6
 1126 138 1126 138 1178 150 c 1,7,-1
 1179 0 l 1,8,9
 1106 -20 1106 -20 1036 -20 c 0,10,11
 912 -20 912 -20 849 55 c 128,-1,12
 786 130 786 130 786 268 c 2,13,-1
 786 939 l 1,14,-1
 589 939 l 1,15,-1
 589 1082 l 1,16,-1
 786 1082 l 1,17,-1
 786 1369 l 1,18,19
 725 1397 725 1397 623 1404 c 2,20,-1
 599 1405 l 1,21,22
 416 1405 416 1405 416 1184 c 2,23,-1
 416 0 l 1,24,-1
 231 0 l 1,25,-1
 231 939 l 1,26,-1
 60 939 l 1,27,-1
 60 1082 l 1,28,-1
 231 1082 l 1,29,-1
 231 1194 l 2,30,31
 231 1367 231 1367 320.5 1462 c 128,-1,32
 410 1557 410 1557 570 1557 c 0,33,34
 663 1557 663 1557 772.5 1528.5 c 128,-1,35
 882 1500 882 1500 972 1456 c 1,36,-1
 972 1082 l 1,37,-1
 1174 1082 l 1,38,-1
 1174 939 l 1,0,-1
EndSplineSet
Ligature2: "'dlig' Discretionary Ligatures lookup 10 subtable" longs t
EndChar

StartChar: s_t.dlig
Encoding: 65541 -1 135
Width: 1691
GlyphClass: 3
Flags: W
LayerCount: 2
Fore
SplineSet
1615 939 m 1,0,-1
 1413 939 l 1,1,-1
 1413 297 l 2,2,3
 1413 138 1413 138 1532 138 c 0,4,5
 1567 138 1567 138 1619 150 c 1,6,-1
 1620 0 l 1,7,8
 1543 -20 1543 -20 1477 -20 c 0,9,10
 1359 -20 1359 -20 1293 63 c 128,-1,11
 1227 146 1227 146 1227 297 c 2,12,-1
 1227 939 l 1,13,-1
 1039 939 l 1,14,-1
 1039 1082 l 1,15,-1
 1227 1082 l 1,16,-1
 1227 1167 l 2,17,18
 1227 1281 1227 1281 1176 1339.5 c 128,-1,19
 1125 1398 1125 1398 1027 1398 c 0,20,21
 939 1398 939 1398 893 1354 c 128,-1,22
 847 1310 847 1310 847 1240 c 0,23,24
 847 1181 847 1181 862.5 1128.5 c 128,-1,25
 878 1076 878 1076 896.5 1020 c 128,-1,26
 915 964 915 964 930 902 c 128,-1,27
 945 840 945 840 945 764 c 1,28,-1
 759 764 l 1,29,30
 759 840 759 840 694.5 895 c 128,-1,31
 630 950 630 950 532 950 c 0,32,33
 431 950 431 950 374 906 c 128,-1,34
 317 862 317 862 317 791 c 0,35,36
 317 724 317 724 370 690 c 128,-1,37
 423 656 423 656 561.5 625 c 128,-1,38
 700 594 700 594 786 551 c 128,-1,39
 872 508 872 508 913.5 447.5 c 128,-1,40
 955 387 955 387 955 300 c 0,41,42
 955 155 955 155 839 67.5 c 128,-1,43
 723 -20 723 -20 538 -20 c 0,44,45
 408 -20 408 -20 308 26 c 128,-1,46
 208 72 208 72 151.5 154.5 c 128,-1,47
 95 237 95 237 95 333 c 1,48,-1
 280 333 l 1,49,50
 285 240 285 240 354.5 185.5 c 128,-1,51
 424 131 424 131 538 131 c 0,52,53
 643 131 643 131 706.5 173.5 c 128,-1,54
 770 216 770 216 770 287 c 0,55,56
 770 362 770 362 713.5 403.5 c 128,-1,57
 657 445 657 445 516.5 475 c 128,-1,58
 376 505 376 505 293.5 547 c 128,-1,59
 211 589 211 589 171.5 647 c 128,-1,60
 132 705 132 705 132 785 c 0,61,62
 132 918 132 918 244.5 1010 c 128,-1,63
 357 1102 357 1102 532 1102 c 0,64,65
 628 1102 628 1102 714 1072 c 1,66,67
 670 1182 670 1182 670 1264 c 0,68,69
 670 1388 670 1388 771 1470.5 c 128,-1,70
 872 1553 872 1553 1027 1553 c 0,71,72
 1212 1553 1212 1553 1312.5 1453.5 c 128,-1,73
 1413 1354 1413 1354 1413 1159 c 2,74,-1
 1413 1082 l 1,75,-1
 1615 1082 l 1,76,-1
 1615 939 l 1,0,-1
EndSplineSet
Ligature2: "'dlig' Discretionary Ligatures lookup 10 subtable" s t
EndChar

StartChar: uniFFFC
Encoding: 65532 65532 137
Width: 2099
GlyphClass: 1
Flags: W
LayerCount: 2
Fore
SplineSet
825 468 m 2,0,1
 825 370 825 370 760.5 309.5 c 128,-1,2
 696 249 696 249 596 249 c 0,3,4
 494 249 494 249 430 309 c 128,-1,5
 366 369 366 369 364 463 c 2,6,-1
 364 580 l 2,7,8
 364 675 364 675 427 737 c 128,-1,9
 490 799 490 799 594 799 c 0,10,11
 695 799 695 799 759 739 c 128,-1,12
 823 679 823 679 825 585 c 2,13,-1
 825 468 l 2,0,1
892 252 m 1,14,-1
 892 801 l 1,15,-1
 1080 801 l 2,16,17
 1178 801 1178 801 1235 764.5 c 128,-1,18
 1292 728 1292 728 1292 651 c 0,19,20
 1292 567 1292 567 1208 535 c 1,21,22
 1258 522 1258 522 1284 487 c 128,-1,23
 1310 452 1310 452 1310 407 c 0,24,25
 1310 252 1310 252 1102 252 c 2,26,-1
 892 252 l 1,14,-1
733 580 m 2,27,28
 733 649 733 649 696 688 c 128,-1,29
 659 727 659 727 594 727 c 0,30,31
 530 727 530 727 493 688 c 128,-1,32
 456 649 456 649 456 580 c 2,33,-1
 456 468 l 2,34,35
 456 399 456 399 493 360 c 128,-1,36
 530 321 530 321 596 321 c 0,37,38
 660 321 660 321 696.5 360 c 128,-1,39
 733 399 733 399 733 468 c 2,40,-1
 733 580 l 2,27,28
1687 803 m 1,41,-1
 1779 803 l 1,42,-1
 1779 425 l 2,43,44
 1779 347 1779 347 1726.5 300.5 c 128,-1,45
 1674 254 1674 254 1592 254 c 0,46,47
 1504 254 1504 254 1449.5 294.5 c 128,-1,48
 1395 335 1395 335 1395 418 c 1,49,-1
 1488 418 l 1,50,51
 1488 327 1488 327 1592 327 c 0,52,53
 1633 327 1633 327 1660 354 c 128,-1,54
 1687 381 1687 381 1687 425 c 2,55,-1
 1687 803 l 1,41,-1
91 -398 m 1,56,-1
 91 -83 l 1,57,-1
 204 -83 l 1,58,-1
 204 -285 l 1,59,-1
 400 -285 l 1,60,-1
 400 -398 l 1,61,-1
 91 -398 l 1,56,-1
1720 -398 m 1,62,-1
 1720 -285 l 1,63,-1
 1919 -285 l 1,64,-1
 1919 -83 l 1,65,-1
 2030 -83 l 1,66,-1
 2030 -398 l 1,67,-1
 1720 -398 l 1,62,-1
91 1169 m 1,68,-1
 91 1454 l 1,69,-1
 400 1454 l 1,70,-1
 400 1338 l 1,71,-1
 204 1338 l 1,72,-1
 204 1169 l 1,73,-1
 91 1169 l 1,68,-1
1720 1338 m 1,74,-1
 1720 1454 l 1,75,-1
 2030 1454 l 1,76,-1
 2030 1169 l 1,77,-1
 1919 1169 l 1,78,-1
 1919 1338 l 1,79,-1
 1720 1338 l 1,74,-1
987 496 m 1,80,-1
 987 327 l 1,81,-1
 1113 327 l 2,82,83
 1216 327 1216 327 1216 410 c 0,84,85
 1216 492 1216 492 1118 496 c 1,86,-1
 987 496 l 1,80,-1
1321 1338 m 1,87,-1
 1321 1454 l 1,88,-1
 1599 1454 l 1,89,-1
 1599 1338 l 1,90,-1
 1321 1338 l 1,87,-1
922 1338 m 1,91,-1
 922 1454 l 1,92,-1
 1199 1454 l 1,93,-1
 1199 1338 l 1,94,-1
 922 1338 l 1,91,-1
523 1338 m 1,95,-1
 523 1454 l 1,96,-1
 799 1454 l 1,97,-1
 799 1338 l 1,98,-1
 523 1338 l 1,95,-1
1321 -398 m 1,99,-1
 1321 -285 l 1,100,-1
 1599 -285 l 1,101,-1
 1599 -398 l 1,102,-1
 1321 -398 l 1,99,-1
922 -398 m 1,103,-1
 922 -285 l 1,104,-1
 1199 -285 l 1,105,-1
 1199 -398 l 1,106,-1
 922 -398 l 1,103,-1
523 -398 m 1,107,-1
 523 -285 l 1,108,-1
 799 -285 l 1,109,-1
 799 -398 l 1,110,-1
 523 -398 l 1,107,-1
987 566 m 1,111,-1
 1080 566 l 2,112,113
 1198 566 1198 566 1198 646 c 0,114,115
 1198 687 1198 687 1169 702 c 128,-1,116
 1140 717 1140 717 1080 717 c 2,117,-1
 987 717 l 1,118,-1
 987 566 l 1,111,-1
204 416 m 1,119,-1
 91 416 l 1,120,-1
 91 668 l 1,121,-1
 204 668 l 1,122,-1
 204 416 l 1,119,-1
204 794 m 1,123,-1
 91 794 l 1,124,-1
 91 1044 l 1,125,-1
 204 1044 l 1,126,-1
 204 794 l 1,123,-1
204 41 m 1,127,-1
 91 41 l 1,128,-1
 91 290 l 1,129,-1
 204 290 l 1,130,-1
 204 41 l 1,127,-1
2030 416 m 1,131,-1
 1919 416 l 1,132,-1
 1919 668 l 1,133,-1
 2030 668 l 1,134,-1
 2030 416 l 1,131,-1
2030 794 m 1,135,-1
 1919 794 l 1,136,-1
 1919 1044 l 1,137,-1
 2030 1044 l 1,138,-1
 2030 794 l 1,135,-1
2030 41 m 1,139,-1
 1919 41 l 1,140,-1
 1919 290 l 1,141,-1
 2030 290 l 1,142,-1
 2030 41 l 1,139,-1
EndSplineSet
EndChar

StartChar: uniFFFD
Encoding: 65533 65533 138
Width: 2101
GlyphClass: 1
Flags: W
LayerCount: 2
Fore
SplineSet
1048 1618 m 1,0,-1
 2007 643 l 1,1,-1
 1048 -332 l 1,2,-1
 92 643 l 1,3,-1
 1048 1618 l 1,0,-1
1131 402 m 1,4,5
 1131 460 1131 460 1146 489 c 128,-1,6
 1161 518 1161 518 1197 542 c 1,7,8
 1271 581 1271 581 1317 648.5 c 128,-1,9
 1363 716 1363 716 1363 790 c 0,10,11
 1363 918 1363 918 1279.5 993.5 c 128,-1,12
 1196 1069 1196 1069 1047 1069 c 0,13,14
 903 1069 903 1069 823 999.5 c 128,-1,15
 743 930 743 930 741 803 c 1,16,-1
 944 803 l 1,17,18
 946 854 946 854 975 880 c 128,-1,19
 1004 906 1004 906 1047 906 c 0,20,21
 1104 906 1104 906 1132 874 c 128,-1,22
 1160 842 1160 842 1160 790 c 0,23,24
 1160 695 1160 695 1067 635 c 1,25,26
 976 570 976 570 952.5 524 c 128,-1,27
 929 478 929 478 929 402 c 1,28,-1
 1131 402 l 1,4,5
1131 311 m 1,29,-1
 929 311 l 1,30,-1
 929 141 l 1,31,-1
 1131 141 l 1,32,-1
 1131 311 l 1,29,-1
1056 -551 m 1,33,-1
 1060 -551 l 1,34,-1
 1060 -555 l 1,35,-1
 1056 -555 l 1,36,-1
 1056 -551 l 1,33,-1
1054 2163 m 1,37,-1
 1058 2163 l 1,38,-1
 1058 2159 l 1,39,-1
 1054 2159 l 1,40,-1
 1054 2163 l 1,37,-1
EndSplineSet
EndChar

StartChar: two.dnom
Encoding: 65542 -1 139
Width: 751
GlyphClass: 1
Flags: W
LayerCount: 2
Fore
SplineSet
683 0 m 1,0,-1
 84 0 l 1,1,-1
 84 108 l 1,2,-1
 384 390 l 2,3,4
 493 492 493 492 493 561 c 0,5,6
 493 610 493 610 461 640.5 c 128,-1,7
 429 671 429 671 369 671 c 0,8,9
 294 671 294 671 258.5 633 c 128,-1,10
 223 595 223 595 223 538 c 1,11,-1
 66 538 l 1,12,13
 66 652 66 652 149.5 726 c 128,-1,14
 233 800 233 800 365 800 c 128,-1,15
 497 800 497 800 574 736.5 c 128,-1,16
 651 673 651 673 651 563 c 0,17,18
 651 459 651 459 544 352 c 1,19,-1
 460 273 l 1,20,-1
 284 128 l 1,21,-1
 683 128 l 1,22,-1
 683 0 l 1,0,-1
EndSplineSet
EndChar

StartChar: one.dnom
Encoding: 65543 -1 140
Width: 751
GlyphClass: 1
Flags: W
LayerCount: 2
Fore
SplineSet
495 0 m 1,0,-1
 338 0 l 1,1,-1
 338 601 l 1,2,-1
 122 544 l 1,3,-1
 122 672 l 1,4,-1
 477 789 l 1,5,-1
 495 789 l 1,6,-1
 495 0 l 1,0,-1
EndSplineSet
EndChar

StartChar: zero.dnom
Encoding: 65544 -1 141
Width: 751
GlyphClass: 1
Flags: W
LayerCount: 2
Fore
SplineSet
669 325 m 2,0,1
 669 163 669 163 593 76 c 128,-1,2
 517 -11 517 -11 376 -11 c 0,3,4
 237 -11 237 -11 159 75 c 128,-1,5
 81 161 81 161 80 321 c 2,6,-1
 80 463 l 2,7,8
 80 626 80 626 157.5 713 c 128,-1,9
 235 800 235 800 374 800 c 0,10,11
 515 800 515 800 591 714 c 128,-1,12
 667 628 667 628 669 471 c 2,13,-1
 669 325 l 2,0,1
512 478 m 2,14,15
 512 670 512 670 374 670 c 0,16,17
 241 670 241 670 237 490 c 1,18,-1
 237 311 l 2,19,20
 237 117 237 117 376 117 c 0,21,22
 508 117 508 117 512 298 c 1,23,-1
 512 478 l 2,14,15
EndSplineSet
EndChar

StartChar: nine.c2sc
Encoding: 65545 -1 142
Width: 1039
GlyphClass: 1
Flags: W
LayerCount: 2
Fore
SplineSet
735 492 m 1,0,1
 634 382 634 382 463 382 c 0,2,3
 289 382 289 382 187 489.5 c 128,-1,4
 85 597 85 597 85 773 c 0,5,6
 85 953 85 953 199.5 1067 c 128,-1,7
 314 1181 314 1181 500 1181 c 0,8,9
 698 1181 698 1181 810 1054 c 128,-1,10
 922 927 922 927 922 701 c 2,11,-1
 922 638 l 2,12,13
 922 319 922 319 768 159 c 128,-1,14
 614 -1 614 -1 314 -6 c 1,15,-1
 273 -6 l 1,16,-1
 273 146 l 1,17,-1
 308 146 l 1,18,19
 712 153 712 153 735 492 c 1,0,1
497 529 m 0,20,21
 576 529 576 529 641.5 568.5 c 128,-1,22
 707 608 707 608 737 672 c 1,23,-1
 737 738 l 2,24,25
 737 870 737 870 671 949 c 128,-1,26
 605 1028 605 1028 500 1028 c 0,27,28
 396 1028 396 1028 332.5 956.5 c 128,-1,29
 269 885 269 885 269 777 c 0,30,31
 269 668 269 668 331 598.5 c 128,-1,32
 393 529 393 529 497 529 c 0,20,21
EndSplineSet
EndChar

StartChar: eight.c2sc
Encoding: 65546 -1 143
Width: 1039
GlyphClass: 1
Flags: W
LayerCount: 2
Fore
SplineSet
912 858 m 0,0,1
 912 772 912 772 862.5 704.5 c 128,-1,2
 813 637 813 637 728 599 c 1,3,4
 826 561 826 561 883.5 487.5 c 128,-1,5
 941 414 941 414 941 316 c 0,6,7
 941 165 941 165 825 74.5 c 128,-1,8
 709 -16 709 -16 519 -16 c 128,-1,9
 329 -16 329 -16 212.5 73.5 c 128,-1,10
 96 163 96 163 96 316 c 0,11,12
 96 415 96 415 152.5 488 c 128,-1,13
 209 561 209 561 307 600 c 1,14,15
 222 638 222 638 174 705 c 128,-1,16
 126 772 126 772 126 858 c 0,17,18
 126 1006 126 1006 233 1093.5 c 128,-1,19
 340 1181 340 1181 517 1181 c 128,-1,20
 694 1181 694 1181 803 1093.5 c 128,-1,21
 912 1006 912 1006 912 858 c 0,0,1
756 326 m 0,22,23
 756 412 756 412 690.5 467 c 128,-1,24
 625 522 625 522 517 522 c 0,25,26
 410 522 410 522 346 468 c 128,-1,27
 282 414 282 414 282 326 c 0,28,29
 282 235 282 235 345.5 185 c 128,-1,30
 409 135 409 135 519 135 c 0,31,32
 628 135 628 135 692 186.5 c 128,-1,33
 756 238 756 238 756 326 c 0,22,23
726 851 m 0,34,35
 726 929 726 929 668 979 c 128,-1,36
 610 1029 610 1029 517 1029 c 0,37,38
 423 1029 423 1029 368 980.5 c 128,-1,39
 313 932 313 932 313 851 c 0,40,41
 313 771 313 771 368.5 722 c 128,-1,42
 424 673 424 673 519 673 c 128,-1,43
 614 673 614 673 670 722.5 c 128,-1,44
 726 772 726 772 726 851 c 0,34,35
EndSplineSet
EndChar

StartChar: seven.c2sc
Encoding: 65547 -1 144
Width: 1039
GlyphClass: 1
Flags: W
LayerCount: 2
Fore
SplineSet
960 1060 m 1,0,-1
 424 0 l 1,1,-1
 229 0 l 1,2,-1
 764 1012 l 1,3,-1
 66 1012 l 1,4,-1
 66 1165 l 1,5,-1
 960 1165 l 1,6,-1
 960 1060 l 1,0,-1
EndSplineSet
EndChar

StartChar: six.c2sc
Encoding: 65548 -1 145
Width: 1038
GlyphClass: 1
Flags: W
LayerCount: 2
Fore
SplineSet
768 1171 m 1,0,-1
 768 1015 l 1,1,-1
 738 1015 l 2,2,3
 538 1012 538 1012 426 920 c 128,-1,4
 314 828 314 828 300 651 c 1,5,6
 352 708 352 708 427 739.5 c 128,-1,7
 502 771 502 771 580 771 c 0,8,9
 754 771 754 771 854.5 663.5 c 128,-1,10
 955 556 955 556 955 382 c 0,11,12
 955 206 955 206 843.5 95 c 128,-1,13
 732 -16 732 -16 542 -16 c 0,14,15
 348 -16 348 -16 231 109.5 c 128,-1,16
 114 235 114 235 114 447 c 2,17,-1
 114 522 l 2,18,19
 114 841 114 841 274 1006 c 128,-1,20
 434 1171 434 1171 750 1171 c 2,21,-1
 768 1171 l 1,0,-1
542 619 m 0,22,23
 462 619 462 619 396.5 580.5 c 128,-1,24
 331 542 331 542 299 478 c 1,25,-1
 299 438 l 2,26,27
 299 300 299 300 367.5 218 c 128,-1,28
 436 136 436 136 541 136 c 128,-1,29
 646 136 646 136 709 202.5 c 128,-1,30
 772 269 772 269 772 377 c 128,-1,31
 772 485 772 485 710.5 552 c 128,-1,32
 649 619 649 619 542 619 c 0,22,23
EndSplineSet
EndChar

StartChar: five.c2sc
Encoding: 65549 -1 146
Width: 1039
GlyphClass: 1
Flags: W
LayerCount: 2
Fore
SplineSet
164 579 m 1,0,-1
 233 1165 l 1,1,-1
 913 1165 l 1,2,-1
 913 1003 l 1,3,-1
 389 1003 l 1,4,-1
 352 714 l 1,5,6
 451 762 451 762 566 762 c 0,7,8
 750 762 750 762 857.5 657 c 128,-1,9
 965 552 965 552 965 372 c 0,10,11
 965 194 965 194 853.5 89 c 128,-1,12
 742 -16 742 -16 546 -16 c 0,13,14
 375 -16 375 -16 258 72.5 c 128,-1,15
 141 161 141 161 128 312 c 1,16,-1
 306 312 l 1,17,18
 320 221 320 221 384 178 c 128,-1,19
 448 135 448 135 546 135 c 0,20,21
 658 135 658 135 718.5 200 c 128,-1,22
 779 265 779 265 779 378 c 0,23,24
 779 484 779 484 709 547.5 c 128,-1,25
 639 611 639 611 524 611 c 0,26,27
 419 611 419 611 353 569 c 2,28,-1
 312 542 l 1,29,-1
 164 579 l 1,0,-1
EndSplineSet
EndChar

StartChar: four.c2sc
Encoding: 65550 -1 147
Width: 1039
GlyphClass: 1
Flags: W
LayerCount: 2
Fore
SplineSet
821 413 m 1,0,-1
 996 413 l 1,1,-1
 996 262 l 1,2,-1
 821 262 l 1,3,-1
 821 0 l 1,4,-1
 635 0 l 1,5,-1
 635 262 l 1,6,-1
 51 262 l 1,7,-1
 48 377 l 1,8,-1
 626 1165 l 1,9,-1
 821 1165 l 1,10,-1
 821 413 l 1,0,-1
246 413 m 1,11,-1
 635 413 l 1,12,-1
 635 921 l 1,13,-1
 609 874 l 1,14,-1
 246 413 l 1,11,-1
EndSplineSet
EndChar

StartChar: three.c2sc
Encoding: 65551 -1 148
Width: 1039
GlyphClass: 1
Flags: W
LayerCount: 2
Fore
SplineSet
352 667 m 1,0,-1
 474 667 l 2,1,2
 592 667 592 667 656.5 716.5 c 128,-1,3
 721 766 721 766 721 850 c 0,4,5
 721 933 721 933 667 981 c 128,-1,6
 613 1029 613 1029 501 1029 c 0,7,8
 403 1029 403 1029 339.5 983.5 c 128,-1,9
 276 938 276 938 276 861 c 1,10,-1
 91 861 l 1,11,12
 91 1001 91 1001 206 1091 c 128,-1,13
 321 1181 321 1181 500 1181 c 0,14,15
 688 1181 688 1181 797 1093.5 c 128,-1,16
 906 1006 906 1006 906 850 c 0,17,18
 906 771 906 771 855.5 702.5 c 128,-1,19
 805 634 805 634 714 597 c 1,20,21
 927 533 927 533 927 324 c 0,22,23
 927 170 927 170 810.5 77 c 128,-1,24
 694 -16 694 -16 501 -16 c 0,25,26
 312 -16 312 -16 195 73.5 c 128,-1,27
 78 163 78 163 78 313 c 1,28,-1
 263 313 l 1,29,30
 263 234 263 234 328.5 184.5 c 128,-1,31
 394 135 394 135 502 135 c 0,32,33
 614 135 614 135 677.5 184 c 128,-1,34
 741 233 741 233 741 324 c 0,35,36
 741 519 741 519 465 519 c 2,37,-1
 352 519 l 1,38,-1
 352 667 l 1,0,-1
EndSplineSet
EndChar

StartChar: two.c2sc
Encoding: 65552 -1 149
Width: 1039
GlyphClass: 1
Flags: W
LayerCount: 2
Fore
SplineSet
970 0 m 1,0,-1
 105 0 l 1,1,-1
 105 131 l 1,2,-1
 532 544 l 1,3,4
 635 638 635 638 681.5 707.5 c 128,-1,5
 728 777 728 777 728 842 c 0,6,7
 728 924 728 924 670 976.5 c 128,-1,8
 612 1029 612 1029 518 1029 c 0,9,10
 397 1029 397 1029 330.5 973 c 128,-1,11
 264 917 264 917 264 810 c 1,12,-1
 78 810 l 1,13,14
 78 975 78 975 200.5 1078 c 128,-1,15
 323 1181 323 1181 518 1181 c 0,16,17
 700 1181 700 1181 807 1088 c 128,-1,18
 914 995 914 995 914 846 c 0,19,20
 914 765 914 765 864.5 678 c 128,-1,21
 815 591 815 591 660 430 c 1,22,-1
 332 151 l 1,23,-1
 970 151 l 1,24,-1
 970 0 l 1,0,-1
EndSplineSet
EndChar

StartChar: one.c2sc
Encoding: 65553 -1 150
Width: 1039
GlyphClass: 1
Flags: W
LayerCount: 2
Fore
SplineSet
669 0 m 1,0,-1
 483 0 l 1,1,-1
 483 943 l 1,2,-1
 152 844 l 1,3,-1
 152 1003 l 1,4,-1
 643 1168 l 1,5,-1
 669 1168 l 1,6,-1
 669 0 l 1,0,-1
EndSplineSet
EndChar

StartChar: zero.c2sc
Encoding: 65554 -1 151
Width: 1039
GlyphClass: 1
Flags: W
LayerCount: 2
Fore
SplineSet
939 497 m 2,0,1
 939 249 939 249 831 116.5 c 128,-1,2
 723 -16 723 -16 520 -16 c 0,3,4
 319 -16 319 -16 210 114.5 c 128,-1,5
 101 245 101 245 99 489 c 2,6,-1
 99 671 l 2,7,8
 99 920 99 920 207.5 1050.5 c 128,-1,9
 316 1181 316 1181 518 1181 c 0,10,11
 721 1181 721 1181 828.5 1052 c 128,-1,12
 936 923 936 923 939 684 c 2,13,-1
 939 497 l 2,0,1
753 699 m 2,14,15
 753 1028 753 1028 518 1028 c 0,16,17
 284 1028 284 1028 284 695 c 2,18,-1
 284 470 l 2,19,20
 284 303 284 303 345 219 c 128,-1,21
 406 135 406 135 520 135 c 0,22,23
 753 135 753 135 753 474 c 2,24,-1
 753 699 l 2,14,15
EndSplineSet
EndChar

StartChar: Z.c2sc
Encoding: 65555 -1 152
Width: 1059
GlyphClass: 2
Flags: W
LayerCount: 2
Fore
SplineSet
303 151 m 1,0,-1
 992 151 l 1,1,-1
 992 0 l 1,2,-1
 71 0 l 1,3,-1
 71 124 l 1,4,-1
 735 1012 l 1,5,-1
 80 1012 l 1,6,-1
 80 1165 l 1,7,-1
 968 1165 l 1,8,-1
 968 1044 l 1,9,-1
 303 151 l 1,0,-1
EndSplineSet
EndChar

StartChar: Y.c2sc
Encoding: 65556 -1 153
Width: 1067
GlyphClass: 2
Flags: W
LayerCount: 2
Fore
SplineSet
532 586 m 1,0,-1
 844 1165 l 1,1,-1
 1052 1165 l 1,2,-1
 622 407 l 1,3,-1
 622 0 l 1,4,-1
 437 0 l 1,5,-1
 437 418 l 1,6,-1
 13 1165 l 1,7,-1
 221 1165 l 1,8,-1
 532 586 l 1,0,-1
EndSplineSet
EndChar

StartChar: X.c2sc
Encoding: 65557 -1 154
Width: 1108
GlyphClass: 2
Flags: W
LayerCount: 2
Fore
SplineSet
552 730 m 1,0,-1
 839 1165 l 1,1,-1
 1059 1165 l 1,2,-1
 664 587 l 1,3,-1
 1073 0 l 1,4,-1
 853 0 l 1,5,-1
 554 443 l 1,6,-1
 258 0 l 1,7,-1
 38 0 l 1,8,-1
 444 587 l 1,9,-1
 47 1165 l 1,10,-1
 266 1165 l 1,11,-1
 552 730 l 1,0,-1
EndSplineSet
EndChar

StartChar: W.c2sc
Encoding: 65558 -1 155
Width: 1557
GlyphClass: 2
Flags: W
LayerCount: 2
Fore
SplineSet
431 294 m 1,0,-1
 442 214 l 1,1,-1
 457 278 l 1,2,-1
 705 1165 l 1,3,-1
 870 1165 l 1,4,-1
 1114 275 l 1,5,-1
 1127 216 l 1,6,-1
 1139 296 l 1,7,-1
 1337 1165 l 1,8,-1
 1521 1165 l 1,9,-1
 1223 0 l 1,10,-1
 1049 0 l 1,11,-1
 789 917 l 1,12,-1
 788 922 l 1,13,-1
 787 917 l 1,14,-1
 519 0 l 1,15,-1
 346 0 l 1,16,-1
 49 1165 l 1,17,-1
 232 1165 l 1,18,-1
 431 294 l 1,0,-1
EndSplineSet
EndChar

StartChar: V.c2sc
Encoding: 65559 -1 156
Width: 1127
GlyphClass: 2
Flags: W
LayerCount: 2
Fore
SplineSet
538 292 m 1,0,-1
 563 198 l 1,1,-1
 589 290 l 1,2,-1
 909 1165 l 1,3,-1
 1107 1165 l 1,4,-1
 650 0 l 1,5,-1
 477 0 l 1,6,-1
 20 1165 l 1,7,-1
 219 1165 l 1,8,-1
 538 292 l 1,0,-1
EndSplineSet
EndChar

StartChar: U.c2sc
Encoding: 65560 -1 157
Width: 1148
GlyphClass: 2
Flags: W
LayerCount: 2
Fore
SplineSet
1034 1165 m 1,0,-1
 1034 385 l 2,1,2
 1034 203 1034 203 909 93.5 c 128,-1,3
 784 -16 784 -16 575 -16 c 0,4,5
 365 -16 365 -16 242 89.5 c 128,-1,6
 119 195 119 195 116 377 c 2,7,-1
 116 1165 l 1,8,-1
 299 1165 l 1,9,-1
 299 385 l 2,10,11
 299 264 299 264 370.5 199.5 c 128,-1,12
 442 135 442 135 575 135 c 0,13,14
 706 135 706 135 777.5 198.5 c 128,-1,15
 849 262 849 262 849 385 c 2,16,-1
 849 1165 l 1,17,-1
 1034 1165 l 1,0,-1
EndSplineSet
EndChar

StartChar: T.c2sc
Encoding: 65561 -1 158
Width: 1062
GlyphClass: 2
Flags: W
LayerCount: 2
Fore
SplineSet
1021 1012 m 1,0,-1
 622 1012 l 1,1,-1
 622 0 l 1,2,-1
 437 0 l 1,3,-1
 437 1012 l 1,4,-1
 40 1012 l 1,5,-1
 40 1165 l 1,6,-1
 1021 1165 l 1,7,-1
 1021 1012 l 1,0,-1
EndSplineSet
EndChar

StartChar: S.c2sc
Encoding: 65562 -1 159
Width: 1056
GlyphClass: 2
Flags: W
LayerCount: 2
Fore
SplineSet
803 298 m 0,0,1
 803 378 803 378 742.5 422 c 128,-1,2
 682 466 682 466 535 503 c 128,-1,3
 388 540 388 540 302 583 c 0,4,5
 107 681 107 681 107 860 c 0,6,7
 107 1003 107 1003 228.5 1092 c 128,-1,8
 350 1181 350 1181 541 1181 c 0,9,10
 737 1181 737 1181 861.5 1081 c 128,-1,11
 986 981 986 981 986 825 c 1,12,-1
 801 825 l 1,13,14
 801 923 801 923 730.5 976.5 c 128,-1,15
 660 1030 660 1030 539 1030 c 0,16,17
 426 1030 426 1030 359 985.5 c 128,-1,18
 292 941 292 941 292 861 c 0,19,20
 292 796 292 796 353.5 752 c 128,-1,21
 415 708 415 708 571 668 c 128,-1,22
 727 628 727 628 815 577.5 c 128,-1,23
 903 527 903 527 946 459 c 128,-1,24
 989 391 989 391 989 300 c 0,25,26
 989 153 989 153 867.5 68.5 c 128,-1,27
 746 -16 746 -16 547 -16 c 0,28,29
 340 -16 340 -16 203.5 85.5 c 128,-1,30
 67 187 67 187 67 349 c 1,31,-1
 253 349 l 1,32,33
 253 247 253 247 330 190 c 128,-1,34
 407 133 407 133 547 133 c 0,35,36
 673 133 673 133 738 178.5 c 128,-1,37
 803 224 803 224 803 298 c 0,0,1
EndSplineSet
EndChar

StartChar: R.c2sc
Encoding: 65563 -1 160
Width: 1098
GlyphClass: 2
Flags: W
LayerCount: 2
Fore
SplineSet
602 449 m 1,0,-1
 323 449 l 1,1,-1
 323 0 l 1,2,-1
 138 0 l 1,3,-1
 138 1165 l 1,4,-1
 564 1165 l 2,5,6
 777 1165 777 1165 892.5 1072 c 128,-1,7
 1008 979 1008 979 1008 809 c 0,8,9
 1008 581 1008 581 773 492 c 1,10,-1
 1061 10 l 1,11,-1
 1061 0 l 1,12,-1
 863 0 l 1,13,-1
 602 449 l 1,0,-1
323 600 m 1,14,-1
 569 600 l 2,15,16
 686 600 686 600 754.5 654.5 c 128,-1,17
 823 709 823 709 823 802 c 0,18,19
 823 902 823 902 756 957 c 128,-1,20
 689 1012 689 1012 563 1012 c 2,21,-1
 323 1012 l 1,22,-1
 323 600 l 1,14,-1
EndSplineSet
EndChar

StartChar: Q.c2sc
Encoding: 65564 -1 161
Width: 1211
GlyphClass: 2
Flags: W
LayerCount: 2
Fore
SplineSet
1109 548 m 2,0,1
 1109 382 1109 382 1053 260.5 c 128,-1,2
 997 139 997 139 895 69 c 1,3,-1
 1111 -91 l 1,4,-1
 987 -202 l 1,5,-1
 724 -3 l 1,6,7
 670 -16 670 -16 600 -16 c 0,8,9
 372 -16 372 -16 230.5 136.5 c 128,-1,10
 89 289 89 289 89 553 c 2,11,-1
 89 615 l 2,12,13
 89 784 89 784 152.5 913.5 c 128,-1,14
 216 1043 216 1043 332 1112 c 128,-1,15
 448 1181 448 1181 598 1181 c 0,16,17
 832 1181 832 1181 970.5 1027.5 c 128,-1,18
 1109 874 1109 874 1109 611 c 2,19,-1
 1109 548 l 2,0,1
926 617 m 2,20,21
 926 815 926 815 840 920 c 128,-1,22
 754 1025 754 1025 598 1025 c 0,23,24
 450 1025 450 1025 364 921.5 c 128,-1,25
 278 818 278 818 274 633 c 1,26,-1
 274 548 l 2,27,28
 274 354 274 354 361 246 c 128,-1,29
 448 138 448 138 600 138 c 0,30,31
 756 138 756 138 841 243.5 c 128,-1,32
 926 349 926 349 926 548 c 2,33,-1
 926 617 l 2,20,21
EndSplineSet
EndChar

StartChar: P.c2sc
Encoding: 65565 -1 162
Width: 1116
GlyphClass: 2
Flags: W
LayerCount: 2
Fore
SplineSet
323 438 m 1,0,-1
 323 0 l 1,1,-1
 138 0 l 1,2,-1
 138 1165 l 1,3,-1
 605 1165 l 2,4,5
 809 1165 809 1165 930 1065.5 c 128,-1,6
 1051 966 1051 966 1051 798 c 0,7,8
 1051 628 1051 628 934 533 c 128,-1,9
 817 438 817 438 603 438 c 2,10,-1
 323 438 l 1,0,-1
323 590 m 1,11,-1
 605 590 l 2,12,13
 729 590 729 590 797 643 c 128,-1,14
 865 696 865 696 865 796 c 0,15,16
 865 892 865 892 797 951.5 c 128,-1,17
 729 1011 729 1011 610 1012 c 2,18,-1
 323 1012 l 1,19,-1
 323 590 l 1,11,-1
EndSplineSet
EndChar

StartChar: O.c2sc
Encoding: 65566 -1 163
Width: 1211
GlyphClass: 2
Flags: W
LayerCount: 2
Fore
SplineSet
1114 548 m 2,0,1
 1114 287 1114 287 976 135.5 c 128,-1,2
 838 -16 838 -16 606 -16 c 0,3,4
 377 -16 377 -16 236.5 137 c 128,-1,5
 96 290 96 290 96 553 c 2,6,-1
 96 615 l 2,7,8
 96 873 96 873 235.5 1027 c 128,-1,9
 375 1181 375 1181 604 1181 c 0,10,11
 837 1181 837 1181 974.5 1029 c 128,-1,12
 1112 877 1112 877 1114 622 c 2,13,-1
 1114 548 l 2,0,1
931 617 m 2,14,15
 931 815 931 815 845 920 c 128,-1,16
 759 1025 759 1025 604 1025 c 0,17,18
 454 1025 454 1025 366.5 918 c 128,-1,19
 279 811 279 811 279 614 c 2,20,-1
 279 548 l 2,21,22
 279 353 279 353 367 245.5 c 128,-1,23
 455 138 455 138 606 138 c 0,24,25
 762 138 762 138 846.5 243.5 c 128,-1,26
 931 349 931 349 931 548 c 2,27,-1
 931 617 l 2,14,15
EndSplineSet
EndChar

StartChar: N.c2sc
Encoding: 65567 -1 164
Width: 1251
GlyphClass: 2
Flags: W
LayerCount: 2
Fore
SplineSet
1112 0 m 1,0,-1
 928 0 l 1,1,-1
 323 876 l 1,2,-1
 323 0 l 1,3,-1
 138 0 l 1,4,-1
 138 1165 l 1,5,-1
 323 1165 l 1,6,-1
 928 288 l 1,7,-1
 928 1165 l 1,8,-1
 1112 1165 l 1,9,-1
 1112 0 l 1,0,-1
EndSplineSet
EndChar

StartChar: M.c2sc
Encoding: 65568 -1 165
Width: 1538
GlyphClass: 2
Flags: W
LayerCount: 2
Fore
SplineSet
378 1165 m 1,0,-1
 769 254 l 1,1,-1
 1158 1165 l 1,2,-1
 1399 1165 l 1,3,-1
 1399 0 l 1,4,-1
 1215 0 l 1,5,-1
 1215 401 l 1,6,-1
 1234 934 l 1,7,-1
 836 0 l 1,8,-1
 700 0 l 1,9,-1
 303 930 l 1,10,-1
 322 401 l 1,11,-1
 322 0 l 1,12,-1
 138 0 l 1,13,-1
 138 1165 l 1,14,-1
 378 1165 l 1,0,-1
EndSplineSet
EndChar

StartChar: L.c2sc
Encoding: 65569 -1 166
Width: 948
GlyphClass: 2
Flags: W
LayerCount: 2
Fore
SplineSet
323 151 m 1,0,-1
 907 151 l 1,1,-1
 907 0 l 1,2,-1
 138 0 l 1,3,-1
 138 1165 l 1,4,-1
 323 1165 l 1,5,-1
 323 151 l 1,0,-1
EndSplineSet
EndChar

StartChar: K.c2sc
Encoding: 65570 -1 167
Width: 1108
GlyphClass: 2
Flags: W
LayerCount: 2
Fore
SplineSet
470 519 m 1,0,-1
 323 377 l 1,1,-1
 323 0 l 1,2,-1
 138 0 l 1,3,-1
 138 1165 l 1,4,-1
 323 1165 l 1,5,-1
 323 610 l 1,6,-1
 453 754 l 1,7,-1
 850 1165 l 1,8,-1
 1077 1165 l 1,9,-1
 598 646 l 1,10,-1
 1111 0 l 1,11,-1
 886 0 l 1,12,-1
 470 519 l 1,0,-1
EndSplineSet
EndChar

StartChar: J.c2sc
Encoding: 65571 -1 168
Width: 975
GlyphClass: 2
Flags: W
LayerCount: 2
Fore
SplineSet
658 1165 m 1,0,-1
 845 1165 l 1,1,-1
 845 338 l 2,2,3
 845 181 845 181 739 82.5 c 128,-1,4
 633 -16 633 -16 456 -16 c 0,5,6
 262 -16 262 -16 152.5 75.5 c 128,-1,7
 43 167 43 167 43 331 c 1,8,-1
 229 331 l 1,9,10
 229 237 229 237 285.5 186 c 128,-1,11
 342 135 342 135 456 135 c 0,12,13
 548 135 548 135 603 189.5 c 128,-1,14
 658 244 658 244 658 339 c 2,15,-1
 658 1165 l 1,0,-1
EndSplineSet
EndChar

StartChar: I.c2sc
Encoding: 65572 -1 169
Width: 488
GlyphClass: 2
Flags: W
LayerCount: 2
Fore
SplineSet
337 0 m 1,0,-1
 151 0 l 1,1,-1
 151 1165 l 1,2,-1
 337 1165 l 1,3,-1
 337 0 l 1,0,-1
EndSplineSet
EndChar

StartChar: H.c2sc
Encoding: 65573 -1 170
Width: 1251
GlyphClass: 2
Flags: W
LayerCount: 2
Fore
SplineSet
1112 0 m 1,0,-1
 927 0 l 1,1,-1
 927 498 l 1,2,-1
 323 498 l 1,3,-1
 323 0 l 1,4,-1
 138 0 l 1,5,-1
 138 1165 l 1,6,-1
 323 1165 l 1,7,-1
 323 650 l 1,8,-1
 927 650 l 1,9,-1
 927 1165 l 1,10,-1
 1112 1165 l 1,11,-1
 1112 0 l 1,0,-1
EndSplineSet
EndChar

StartChar: G.c2sc
Encoding: 65574 -1 171
Width: 1196
GlyphClass: 2
Flags: W
LayerCount: 2
Fore
SplineSet
1077 150 m 1,0,1
 1011 67 1011 67 894.5 25.5 c 128,-1,2
 778 -16 778 -16 627 -16 c 0,3,4
 389 -16 389 -16 245 133 c 128,-1,5
 101 282 101 282 99 534 c 2,6,-1
 99 624 l 2,7,8
 99 886 99 886 232.5 1033.5 c 128,-1,9
 366 1181 366 1181 608 1181 c 0,10,11
 808 1181 808 1181 929 1087 c 128,-1,12
 1050 993 1050 993 1077 812 c 1,13,-1
 893 812 l 1,14,15
 855 1029 855 1029 610 1029 c 0,16,17
 451 1029 451 1029 368 926 c 128,-1,18
 285 823 285 823 285 624 c 2,19,-1
 285 540 l 2,20,21
 285 350 285 350 377.5 242.5 c 128,-1,22
 470 135 470 135 630 135 c 0,23,24
 812 135 812 135 893 209 c 1,25,-1
 893 447 l 1,26,-1
 612 447 l 1,27,-1
 612 591 l 1,28,-1
 1077 591 l 1,29,-1
 1077 150 l 1,0,1
EndSplineSet
EndChar

StartChar: F.c2sc
Encoding: 65575 -1 172
Width: 971
GlyphClass: 2
Flags: W
LayerCount: 2
Fore
SplineSet
843 499 m 1,0,-1
 323 499 l 1,1,-1
 323 0 l 1,2,-1
 138 0 l 1,3,-1
 138 1165 l 1,4,-1
 923 1165 l 1,5,-1
 923 1012 l 1,6,-1
 323 1012 l 1,7,-1
 323 652 l 1,8,-1
 843 652 l 1,9,-1
 843 499 l 1,0,-1
EndSplineSet
EndChar

StartChar: dollar.c2sc
Encoding: 65576 -1 173
Width: 1056
GlyphClass: 1
Flags: W
LayerCount: 2
Fore
SplineSet
803 298 m 0,0,1
 803 378 803 378 742.5 422 c 128,-1,2
 682 466 682 466 535 503 c 128,-1,3
 388 540 388 540 302 583 c 0,4,5
 107 681 107 681 107 860 c 0,6,7
 107 990 107 990 208.5 1076 c 128,-1,8
 310 1162 310 1162 476 1178 c 1,9,-1
 476 1395 l 1,10,-1
 625 1395 l 1,11,-1
 625 1176 l 1,12,13
 788 1155 788 1155 887 1058 c 128,-1,14
 986 961 986 961 986 825 c 1,15,-1
 801 825 l 1,16,17
 801 923 801 923 730.5 976.5 c 128,-1,18
 660 1030 660 1030 539 1030 c 0,19,20
 426 1030 426 1030 359 985.5 c 128,-1,21
 292 941 292 941 292 861 c 0,22,23
 292 796 292 796 353.5 752 c 128,-1,24
 415 708 415 708 571 668 c 128,-1,25
 727 628 727 628 815 577.5 c 128,-1,26
 903 527 903 527 946 459 c 128,-1,27
 989 391 989 391 989 300 c 0,28,29
 989 170 989 170 891.5 87 c 128,-1,30
 794 4 794 4 625 -12 c 1,31,-1
 625 -237 l 1,32,-1
 476 -237 l 1,33,-1
 476 -12 l 1,34,35
 290 7 290 7 178.5 104 c 128,-1,36
 67 201 67 201 67 349 c 1,37,-1
 253 349 l 1,38,39
 253 247 253 247 330 190 c 128,-1,40
 407 133 407 133 547 133 c 0,41,42
 673 133 673 133 738 178.5 c 128,-1,43
 803 224 803 224 803 298 c 0,0,1
EndSplineSet
EndChar

StartChar: sterling.c2sc
Encoding: 65577 -1 174
Width: 1075
GlyphClass: 1
Flags: W
LayerCount: 2
Fore
SplineSet
797 500 m 1,0,-1
 397 500 l 1,1,-1
 398 466 l 2,2,3
 403 263 403 263 347 152 c 1,4,-1
 1007 152 l 1,5,-1
 1006 0 l 1,6,-1
 114 0 l 1,7,-1
 114 152 l 1,8,-1
 124 152 l 1,9,10
 203 175 203 175 212 396 c 1,11,-1
 213 466 l 1,12,-1
 212 500 l 1,13,-1
 48 500 l 1,14,-1
 48 621 l 1,15,-1
 208 621 l 1,16,-1
 204 744 l 2,17,18
 198 945 198 945 299.5 1063 c 128,-1,19
 401 1181 401 1181 582 1181 c 0,20,21
 765 1181 765 1181 866 1079 c 128,-1,22
 967 977 967 977 967 794 c 1,23,-1
 782 794 l 1,24,25
 782 906 782 906 730 965.5 c 128,-1,26
 678 1025 678 1025 582 1025 c 0,27,28
 489 1025 489 1025 437 953.5 c 128,-1,29
 385 882 385 882 389 744 c 2,30,-1
 393 621 l 1,31,-1
 797 621 l 1,32,-1
 797 500 l 1,0,-1
EndSplineSet
EndChar

StartChar: yen.c2sc
Encoding: 65578 -1 175
Width: 929
GlyphClass: 1
Flags: W
LayerCount: 2
Fore
SplineSet
465 589 m 1,0,-1
 718 1165 l 1,1,-1
 914 1165 l 1,2,-1
 614 537 l 1,3,-1
 827 537 l 1,4,-1
 827 416 l 1,5,-1
 556 416 l 1,6,-1
 553 409 l 1,7,-1
 553 341 l 1,8,-1
 827 341 l 1,9,-1
 827 221 l 1,10,-1
 553 221 l 1,11,-1
 553 0 l 1,12,-1
 368 0 l 1,13,-1
 368 221 l 1,14,-1
 94 221 l 1,15,-1
 94 341 l 1,16,-1
 368 341 l 1,17,-1
 368 416 l 1,18,-1
 94 416 l 1,19,-1
 94 537 l 1,20,-1
 313 537 l 1,21,-1
 13 1165 l 1,22,-1
 212 1165 l 1,23,-1
 465 589 l 1,0,-1
EndSplineSet
EndChar

StartChar: Gamma.c2sc
Encoding: 65579 -1 176
Width: 943
GlyphClass: 2
Flags: W
LayerCount: 2
Fore
SplineSet
901 1012 m 1,0,-1
 323 1012 l 1,1,-1
 323 0 l 1,2,-1
 138 0 l 1,3,-1
 138 1165 l 1,4,-1
 901 1165 l 1,5,-1
 901 1012 l 1,0,-1
EndSplineSet
EndChar

StartChar: uni0394.c2sc
Encoding: 65580 -1 177
Width: 1127
GlyphClass: 1
Flags: W
LayerCount: 2
Fore
SplineSet
1107 0 m 1,0,-1
 20 0 l 1,1,-1
 477 1165 l 1,2,-1
 650 1165 l 1,3,-1
 1107 0 l 1,0,-1
589 874 m 1,4,-1
 563 966 l 1,5,-1
 538 872 l 1,6,-1
 274 152 l 1,7,-1
 853 152 l 1,8,-1
 589 874 l 1,4,-1
EndSplineSet
EndChar

StartChar: Theta.c2sc
Encoding: 65581 -1 178
Width: 1211
GlyphClass: 1
Flags: W
LayerCount: 2
Fore
SplineSet
853 505 m 1,0,-1
 372 505 l 1,1,-1
 372 658 l 1,2,-1
 853 658 l 1,3,-1
 853 505 l 1,0,-1
1114 548 m 2,4,5
 1114 287 1114 287 976 135.5 c 128,-1,6
 838 -16 838 -16 606 -16 c 0,7,8
 377 -16 377 -16 236.5 137 c 128,-1,9
 96 290 96 290 96 553 c 2,10,-1
 96 615 l 2,11,12
 96 873 96 873 235.5 1027 c 128,-1,13
 375 1181 375 1181 604 1181 c 0,14,15
 837 1181 837 1181 974.5 1029 c 128,-1,16
 1112 877 1112 877 1114 622 c 2,17,-1
 1114 548 l 2,4,5
931 617 m 2,18,19
 931 815 931 815 845 920 c 128,-1,20
 759 1025 759 1025 604 1025 c 0,21,22
 454 1025 454 1025 366.5 918 c 128,-1,23
 279 811 279 811 279 614 c 2,24,-1
 279 548 l 2,25,26
 279 353 279 353 367 245.5 c 128,-1,27
 455 138 455 138 606 138 c 0,28,29
 762 138 762 138 846.5 243.5 c 128,-1,30
 931 349 931 349 931 548 c 2,31,-1
 931 617 l 2,18,19
EndSplineSet
EndChar

StartChar: Lambda.c2sc
Encoding: 65582 -1 179
Width: 1127
GlyphClass: 1
Flags: W
LayerCount: 2
Fore
SplineSet
219 0 m 1,0,-1
 20 0 l 1,1,-1
 477 1165 l 1,2,-1
 650 1165 l 1,3,-1
 1107 0 l 1,4,-1
 909 0 l 1,5,-1
 589 874 l 1,6,-1
 563 966 l 1,7,-1
 538 872 l 1,8,-1
 219 0 l 1,0,-1
EndSplineSet
EndChar

StartChar: Xi.c2sc
Encoding: 65583 -1 180
Width: 905
GlyphClass: 1
Flags: W
LayerCount: 2
Fore
SplineSet
843 0 m 1,0,-1
 62 0 l 1,1,-1
 62 152 l 1,2,-1
 843 152 l 1,3,-1
 843 0 l 1,0,-1
776 531 m 1,4,-1
 127 531 l 1,5,-1
 127 683 l 1,6,-1
 776 683 l 1,7,-1
 776 531 l 1,4,-1
843 1012 m 1,8,-1
 62 1012 l 1,9,-1
 62 1165 l 1,10,-1
 843 1165 l 1,11,-1
 843 1012 l 1,8,-1
EndSplineSet
EndChar

StartChar: Pi.c2sc
Encoding: 65584 -1 181
Width: 1230
GlyphClass: 1
Flags: W
LayerCount: 2
Fore
SplineSet
1092 0 m 1,0,-1
 906 0 l 1,1,-1
 906 1012 l 1,2,-1
 323 1012 l 1,3,-1
 323 0 l 1,4,-1
 138 0 l 1,5,-1
 138 1165 l 1,6,-1
 1092 1165 l 1,7,-1
 1092 0 l 1,0,-1
EndSplineSet
EndChar

StartChar: Sigma.c2sc
Encoding: 65585 -1 182
Width: 1007
GlyphClass: 1
Flags: W
LayerCount: 2
Fore
SplineSet
623 570 m 1,0,-1
 293 153 l 1,1,-1
 968 153 l 1,2,-1
 968 0 l 1,3,-1
 63 0 l 1,4,-1
 63 144 l 1,5,-1
 400 583 l 1,6,-1
 63 1021 l 1,7,-1
 63 1165 l 1,8,-1
 918 1165 l 1,9,-1
 918 1012 l 1,10,-1
 293 1012 l 1,11,-1
 623 595 l 1,12,-1
 623 570 l 1,0,-1
EndSplineSet
EndChar

StartChar: Phi.c2sc
Encoding: 65586 -1 183
Width: 1383
GlyphClass: 1
Flags: W
LayerCount: 2
Fore
SplineSet
784 1046 m 1,0,1
 1014 1033 1014 1033 1150 908 c 128,-1,2
 1286 783 1286 783 1286 580 c 0,3,4
 1286 375 1286 375 1148.5 249 c 128,-1,5
 1011 123 1011 123 784 110 c 1,6,-1
 784 0 l 1,7,-1
 599 0 l 1,8,-1
 599 110 l 1,9,10
 365 123 365 123 230.5 249.5 c 128,-1,11
 96 376 96 376 96 578 c 0,12,13
 96 782 96 782 232 908 c 128,-1,14
 368 1034 368 1034 599 1047 c 1,15,-1
 599 1165 l 1,16,-1
 784 1165 l 1,17,-1
 784 1046 l 1,0,1
280 578 m 0,18,19
 280 282 280 282 599 265 c 1,20,-1
 599 891 l 1,21,22
 445 882 445 882 362.5 807 c 128,-1,23
 280 732 280 732 280 578 c 0,18,19
1102 580 m 0,24,25
 1102 733 1102 733 1019 807.5 c 128,-1,26
 936 882 936 882 784 891 c 1,27,-1
 784 265 l 1,28,29
 936 275 936 275 1019 350 c 128,-1,30
 1102 425 1102 425 1102 580 c 0,24,25
EndSplineSet
EndChar

StartChar: Psi.c2sc
Encoding: 65587 -1 184
Width: 1303
GlyphClass: 1
Flags: W
LayerCount: 2
Fore
SplineSet
744 443 m 1,0,1
 1021 494 1021 494 1021 857 c 2,2,-1
 1021 1165 l 1,3,-1
 1206 1165 l 1,4,-1
 1206 842 l 2,5,6
 1203 599 1203 599 1082 456 c 128,-1,7
 961 313 961 313 744 289 c 1,8,-1
 744 0 l 1,9,-1
 558 0 l 1,10,-1
 558 287 l 1,11,12
 341 307 341 307 221 449.5 c 128,-1,13
 101 592 101 592 96 834 c 1,14,-1
 96 1165 l 1,15,-1
 282 1165 l 1,16,-1
 282 856 l 2,17,18
 282 486 282 486 558 441 c 1,19,-1
 558 1165 l 1,20,-1
 744 1165 l 1,21,-1
 744 443 l 1,0,1
EndSplineSet
EndChar

StartChar: uni03A9.c2sc
Encoding: 65588 -1 185
Width: 1266
GlyphClass: 2
Flags: W
LayerCount: 2
Fore
SplineSet
699 157 m 1,0,1
 835 188 835 188 898.5 299.5 c 128,-1,2
 962 411 962 411 962 616 c 2,3,-1
 962 654 l 2,4,5
 962 833 962 833 875 929 c 128,-1,6
 788 1025 788 1025 631 1025 c 0,7,8
 475 1025 475 1025 389 928.5 c 128,-1,9
 303 832 303 832 303 649 c 2,10,-1
 303 616 l 2,11,12
 303 412 303 412 373.5 300.5 c 128,-1,13
 444 189 444 189 571 157 c 1,14,-1
 571 0 l 1,15,-1
 121 0 l 1,16,-1
 121 151 l 1,17,-1
 296 151 l 1,18,19
 117 308 117 308 117 622 c 2,20,-1
 117 652 l 2,21,22
 117 890 117 890 258.5 1035.5 c 128,-1,23
 400 1181 400 1181 631 1181 c 0,24,25
 863 1181 863 1181 1005 1035 c 128,-1,26
 1147 889 1147 889 1147 644 c 2,27,-1
 1147 616 l 2,28,29
 1147 307 1147 307 969 151 c 1,30,-1
 1150 151 l 1,31,-1
 1150 0 l 1,32,-1
 699 0 l 1,33,-1
 699 157 l 1,0,1
EndSplineSet
EndChar

StartChar: uni0402.c2sc
Encoding: 65589 -1 186
Width: 1394
GlyphClass: 1
Flags: W
LayerCount: 2
Fore
SplineSet
394 1012 m 1,0,-1
 38 1012 l 1,1,-1
 38 1165 l 1,2,-1
 943 1165 l 1,3,-1
 943 1012 l 1,4,-1
 579 1012 l 1,5,-1
 579 715 l 1,6,7
 730 764 730 764 886 764 c 0,8,9
 1098 764 1098 764 1211 660 c 128,-1,10
 1324 556 1324 556 1324 360 c 0,11,12
 1324 170 1324 170 1209.5 75 c 128,-1,13
 1095 -20 1095 -20 871 -20 c 1,14,-1
 871 131 l 1,15,16
 1012 131 1012 131 1075.5 185.5 c 128,-1,17
 1139 240 1139 240 1139 360 c 0,18,19
 1139 491 1139 491 1076.5 551.5 c 128,-1,20
 1014 612 1014 612 886 612 c 0,21,22
 729 612 729 612 579 562 c 1,23,-1
 579 0 l 1,24,-1
 394 0 l 1,25,-1
 394 1012 l 1,0,-1
EndSplineSet
EndChar

StartChar: uni0404.c2sc
Encoding: 65590 -1 187
Width: 1148
GlyphClass: 2
Flags: W
LayerCount: 2
Fore
SplineSet
1072 377 m 1,0,1
 1052 190 1052 190 926 87 c 128,-1,2
 800 -16 800 -16 591 -16 c 0,3,4
 367 -16 367 -16 231.5 131.5 c 128,-1,5
 96 279 96 279 96 538 c 2,6,-1
 96 632 l 2,7,8
 96 796 96 796 157.5 920.5 c 128,-1,9
 219 1045 219 1045 334.5 1113 c 128,-1,10
 450 1181 450 1181 602 1181 c 0,11,12
 806 1181 806 1181 929.5 1075.5 c 128,-1,13
 1053 970 1053 970 1072 783 c 1,14,-1
 887 783 l 1,15,16
 869 913 869 913 798.5 971 c 128,-1,17
 728 1029 728 1029 602 1029 c 0,18,19
 449 1029 449 1029 368 931.5 c 128,-1,20
 287 834 287 834 281 659 c 1,21,-1
 728 659 l 1,22,-1
 728 507 l 1,23,-1
 281 507 l 1,24,25
 285 329 285 329 365.5 232 c 128,-1,26
 446 135 446 135 591 135 c 0,27,28
 726 135 726 135 796.5 190.5 c 128,-1,29
 867 246 867 246 887 377 c 1,30,-1
 1072 377 l 1,0,1
EndSplineSet
EndChar

StartChar: uni0409.c2sc
Encoding: 65591 -1 188
Width: 1857
GlyphClass: 1
Flags: W
LayerCount: 2
Fore
SplineSet
1787 366 m 0,0,1
 1787 201 1787 201 1672 101.5 c 128,-1,2
 1557 2 1557 2 1362 0 c 2,3,-1
 893 0 l 1,4,-1
 893 1012 l 1,5,-1
 475 1012 l 1,6,-1
 460 601 l 2,7,8
 449 364 449 364 410.5 241 c 128,-1,9
 372 118 372 118 296.5 59.5 c 128,-1,10
 221 1 221 1 98 0 c 2,11,-1
 39 0 l 1,12,-1
 43 165 l 1,13,-1
 89 166 l 2,14,15
 185 170 185 170 225.5 265 c 128,-1,16
 266 360 266 360 276 625 c 2,17,-1
 296 1165 l 1,18,-1
 1078 1165 l 1,19,-1
 1078 727 l 1,20,-1
 1370 727 l 1,21,22
 1563 723 1563 723 1675 626.5 c 128,-1,23
 1787 530 1787 530 1787 366 c 0,0,1
1078 575 m 1,24,-1
 1078 152 l 1,25,-1
 1355 152 l 2,26,27
 1469 152 1469 152 1535 210.5 c 128,-1,28
 1601 269 1601 269 1601 368 c 0,29,30
 1601 463 1601 463 1535.5 519 c 128,-1,31
 1470 575 1470 575 1355 575 c 2,32,-1
 1078 575 l 1,24,-1
EndSplineSet
EndChar

StartChar: uni040A.c2sc
Encoding: 65592 -1 189
Width: 1871
GlyphClass: 1
Flags: W
LayerCount: 2
Fore
SplineSet
323 650 m 1,0,-1
 907 650 l 1,1,-1
 907 1165 l 1,2,-1
 1092 1165 l 1,3,-1
 1092 727 l 1,4,-1
 1384 727 l 1,5,6
 1577 723 1577 723 1689 626.5 c 128,-1,7
 1801 530 1801 530 1801 366 c 0,8,9
 1801 201 1801 201 1686 101.5 c 128,-1,10
 1571 2 1571 2 1376 0 c 2,11,-1
 907 0 l 1,12,-1
 907 498 l 1,13,-1
 323 498 l 1,14,-1
 323 0 l 1,15,-1
 138 0 l 1,16,-1
 138 1165 l 1,17,-1
 323 1165 l 1,18,-1
 323 650 l 1,0,-1
1092 575 m 1,19,-1
 1092 152 l 1,20,-1
 1369 152 l 2,21,22
 1484 152 1484 152 1550 211.5 c 128,-1,23
 1616 271 1616 271 1616 368 c 0,24,25
 1616 459 1616 459 1553.5 515.5 c 128,-1,26
 1491 572 1491 572 1381 575 c 2,27,-1
 1092 575 l 1,19,-1
EndSplineSet
EndChar

StartChar: uni040B.c2sc
Encoding: 65593 -1 190
Width: 1396
GlyphClass: 1
Flags: W
LayerCount: 2
Fore
SplineSet
395 1012 m 1,0,-1
 40 1012 l 1,1,-1
 40 1165 l 1,2,-1
 945 1165 l 1,3,-1
 945 1012 l 1,4,-1
 581 1012 l 1,5,-1
 581 715 l 1,6,7
 728 764 728 764 888 764 c 0,8,9
 1100 764 1100 764 1211 663 c 128,-1,10
 1322 562 1322 562 1326 369 c 1,11,-1
 1326 0 l 1,12,-1
 1140 0 l 1,13,-1
 1140 356 l 2,14,15
 1140 491 1140 491 1077.5 551.5 c 128,-1,16
 1015 612 1015 612 888 612 c 0,17,18
 731 612 731 612 581 562 c 1,19,-1
 581 0 l 1,20,-1
 395 0 l 1,21,-1
 395 1012 l 1,0,-1
EndSplineSet
EndChar

StartChar: uni040F.c2sc
Encoding: 65594 -1 191
Width: 1229
GlyphClass: 1
Flags: W
LayerCount: 2
Fore
SplineSet
1091 0 m 1,0,-1
 708 0 l 1,1,-1
 708 -357 l 1,2,-1
 523 -357 l 1,3,-1
 523 0 l 1,4,-1
 138 0 l 1,5,-1
 138 1165 l 1,6,-1
 323 1165 l 1,7,-1
 323 152 l 1,8,-1
 906 152 l 1,9,-1
 906 1165 l 1,10,-1
 1091 1165 l 1,11,-1
 1091 0 l 1,0,-1
EndSplineSet
EndChar

StartChar: uni0411.c2sc
Encoding: 65595 -1 192
Width: 1113
GlyphClass: 1
Flags: W
LayerCount: 2
Fore
SplineSet
917 1015 m 1,0,-1
 323 1015 l 1,1,-1
 323 727 l 1,2,-1
 596 727 l 2,3,4
 802 727 802 727 917 629 c 128,-1,5
 1032 531 1032 531 1032 366 c 0,6,7
 1032 202 1032 202 918 102 c 128,-1,8
 804 2 804 2 607 0 c 2,9,-1
 138 0 l 1,10,-1
 138 1165 l 1,11,-1
 917 1165 l 1,12,-1
 917 1015 l 1,0,-1
600 152 m 2,13,14
 715 152 715 152 781 211.5 c 128,-1,15
 847 271 847 271 847 368 c 0,16,17
 847 459 847 459 784.5 515.5 c 128,-1,18
 722 572 722 572 612 575 c 2,19,-1
 323 575 l 1,20,-1
 323 152 l 1,21,-1
 600 152 l 2,13,14
EndSplineSet
EndChar

StartChar: uni0414.c2sc
Encoding: 65596 -1 193
Width: 1316
GlyphClass: 1
Flags: W
LayerCount: 2
Fore
SplineSet
133 152 m 1,0,-1
 174 201 l 2,1,2
 245 287 245 287 280.5 413.5 c 128,-1,3
 316 540 316 540 323 756 c 2,4,-1
 337 1165 l 1,5,-1
 1112 1165 l 1,6,-1
 1112 152 l 1,7,-1
 1255 152 l 1,8,-1
 1255 -340 l 1,9,-1
 1070 -340 l 1,10,-1
 1070 0 l 1,11,-1
 232 0 l 1,12,-1
 232 -339 l 1,13,-1
 46 -339 l 1,14,-1
 47 152 l 1,15,-1
 133 152 l 1,0,-1
349 152 m 1,16,-1
 927 152 l 1,17,-1
 927 1012 l 1,18,-1
 515 1012 l 1,19,-1
 503 700 l 2,20,21
 486 341 486 341 349 152 c 1,16,-1
EndSplineSet
EndChar

StartChar: uni0416.c2sc
Encoding: 65597 -1 194
Width: 1547
GlyphClass: 2
Flags: W
LayerCount: 2
Fore
SplineSet
965 502 m 1,0,-1
 866 502 l 1,1,-1
 866 0 l 1,2,-1
 680 0 l 1,3,-1
 680 502 l 1,4,-1
 580 502 l 1,5,-1
 265 0 l 1,6,-1
 31 0 l 1,7,-1
 421 593 l 1,8,-1
 67 1165 l 1,9,-1
 291 1165 l 1,10,-1
 591 656 l 1,11,-1
 680 656 l 1,12,-1
 680 1165 l 1,13,-1
 866 1165 l 1,14,-1
 866 656 l 1,15,-1
 955 656 l 1,16,-1
 1255 1165 l 1,17,-1
 1479 1165 l 1,18,-1
 1123 602 l 1,19,-1
 1515 0 l 1,20,-1
 1281 0 l 1,21,-1
 965 502 l 1,0,-1
EndSplineSet
EndChar

StartChar: uni0417.c2sc
Encoding: 65598 -1 195
Width: 1087
GlyphClass: 2
Flags: W
LayerCount: 2
Fore
SplineSet
776 848 m 0,0,1
 776 932 776 932 707 978.5 c 128,-1,2
 638 1025 638 1025 513 1025 c 0,3,4
 403 1025 403 1025 338.5 981 c 128,-1,5
 274 937 274 937 274 858 c 1,6,-1
 88 858 l 1,7,8
 88 1000 88 1000 206.5 1090.5 c 128,-1,9
 325 1181 325 1181 513 1181 c 0,10,11
 724 1181 724 1181 843 1097 c 128,-1,12
 962 1013 962 1013 962 863 c 0,13,14
 962 777 962 777 907 706.5 c 128,-1,15
 852 636 852 636 749 595 c 1,16,17
 867 559 867 559 923.5 486 c 128,-1,18
 980 413 980 413 980 322 c 0,19,20
 980 164 980 164 853 74 c 128,-1,21
 726 -16 726 -16 513 -16 c 0,22,23
 422 -16 422 -16 337.5 6 c 128,-1,24
 253 28 253 28 192 74 c 0,25,26
 71 163 71 163 71 320 c 1,27,-1
 256 320 l 1,28,29
 261 234 261 234 326.5 186 c 128,-1,30
 392 138 392 138 513 138 c 0,31,32
 649 138 649 138 722 186 c 128,-1,33
 795 234 795 234 795 322 c 0,34,35
 795 515 795 515 538 520 c 1,36,-1
 381 520 l 1,37,-1
 381 672 l 1,38,-1
 537 672 l 1,39,40
 776 677 776 677 776 848 c 0,0,1
EndSplineSet
EndChar

StartChar: uni0418.c2sc
Encoding: 65599 -1 196
Width: 1260
GlyphClass: 2
Flags: W
LayerCount: 2
Fore
SplineSet
936 1165 m 1,0,-1
 1121 1165 l 1,1,-1
 1121 0 l 1,2,-1
 936 0 l 1,3,-1
 936 884 l 1,4,-1
 323 0 l 1,5,-1
 138 0 l 1,6,-1
 138 1165 l 1,7,-1
 323 1165 l 1,8,-1
 323 281 l 1,9,-1
 936 1165 l 1,0,-1
EndSplineSet
EndChar

StartChar: uni041A.c2sc
Encoding: 65600 -1 197
Width: 1102
GlyphClass: 1
Flags: W
LayerCount: 2
Fore
SplineSet
430 502 m 1,0,-1
 324 502 l 1,1,-1
 324 0 l 1,2,-1
 139 0 l 1,3,-1
 139 1165 l 1,4,-1
 324 1165 l 1,5,-1
 324 656 l 1,6,-1
 424 656 l 1,7,-1
 813 1165 l 1,8,-1
 1036 1165 l 1,9,-1
 577 594 l 1,10,-1
 1068 0 l 1,11,-1
 829 0 l 1,12,-1
 430 502 l 1,0,-1
EndSplineSet
EndChar

StartChar: uni041B.c2sc
Encoding: 65601 -1 198
Width: 1217
GlyphClass: 2
Flags: W
LayerCount: 2
Fore
SplineSet
1078 1165 m 1,0,-1
 1078 0 l 1,1,-1
 893 0 l 1,2,-1
 893 1012 l 1,3,-1
 475 1012 l 1,4,-1
 460 630 l 2,5,6
 447 288 447 288 365 146.5 c 128,-1,7
 283 5 283 5 107 0 c 1,8,-1
 39 0 l 1,9,-1
 43 165 l 1,10,-1
 84 168 l 2,11,12
 178 175 178 175 218 254 c 128,-1,13
 258 333 258 333 271 559 c 2,14,-1
 296 1165 l 1,15,-1
 1078 1165 l 1,0,-1
EndSplineSet
EndChar

StartChar: uni0423.c2sc
Encoding: 65602 -1 199
Width: 1055
GlyphClass: 2
Flags: W
LayerCount: 2
Fore
SplineSet
501 560 m 1,0,-1
 546 440 l 1,1,-1
 822 1165 l 1,2,-1
 1035 1165 l 1,3,-1
 617 210 l 1,4,-1
 580 137 l 1,5,6
 500 -8 500 -8 330 -19 c 1,7,-1
 292 -20 l 2,8,9
 212 -20 212 -20 192 -12 c 1,10,-1
 198 135 l 1,11,-1
 290 130 l 2,12,13
 339 130 339 130 375.5 154.5 c 128,-1,14
 412 179 412 179 444 238 c 1,15,-1
 34 1165 l 1,16,-1
 248 1165 l 1,17,-1
 501 560 l 1,0,-1
EndSplineSet
EndChar

StartChar: uni0426.c2sc
Encoding: 65603 -1 200
Width: 1320
GlyphClass: 1
Flags: W
LayerCount: 2
Fore
SplineSet
1092 152 m 1,0,-1
 1265 152 l 1,1,-1
 1247 -340 l 1,2,-1
 1082 -340 l 1,3,-1
 1082 0 l 1,4,-1
 138 0 l 1,5,-1
 138 1165 l 1,6,-1
 323 1165 l 1,7,-1
 323 152 l 1,8,-1
 906 152 l 1,9,-1
 906 1165 l 1,10,-1
 1092 1165 l 1,11,-1
 1092 152 l 1,0,-1
EndSplineSet
EndChar

StartChar: uni0427.c2sc
Encoding: 65604 -1 201
Width: 1130
GlyphClass: 2
Flags: W
LayerCount: 2
Fore
SplineSet
991 0 m 1,0,-1
 806 0 l 1,1,-1
 806 450 l 1,2,3
 662 402 662 402 499 402 c 0,4,5
 287 402 287 402 176 503 c 128,-1,6
 65 604 65 604 61 797 c 1,7,-1
 61 1165 l 1,8,-1
 246 1165 l 1,9,-1
 246 810 l 2,10,11
 246 675 246 675 309 614.5 c 128,-1,12
 372 554 372 554 499 554 c 0,13,14
 656 554 656 554 806 604 c 1,15,-1
 806 1165 l 1,16,-1
 991 1165 l 1,17,-1
 991 0 l 1,0,-1
EndSplineSet
EndChar

StartChar: uni0428.c2sc
Encoding: 65605 -1 202
Width: 1617
GlyphClass: 1
Flags: W
LayerCount: 2
Fore
SplineSet
1478 0 m 1,0,-1
 138 0 l 1,1,-1
 138 1165 l 1,2,-1
 323 1165 l 1,3,-1
 323 152 l 1,4,-1
 715 152 l 1,5,-1
 715 1165 l 1,6,-1
 901 1165 l 1,7,-1
 901 152 l 1,8,-1
 1293 152 l 1,9,-1
 1293 1165 l 1,10,-1
 1478 1165 l 1,11,-1
 1478 0 l 1,0,-1
EndSplineSet
EndChar

StartChar: uni0429.c2sc
Encoding: 65606 -1 203
Width: 1708
GlyphClass: 1
Flags: W
LayerCount: 2
Fore
SplineSet
1479 152 m 1,0,-1
 1653 152 l 1,1,-1
 1635 -340 l 1,2,-1
 1469 -340 l 1,3,-1
 1469 0 l 1,4,-1
 138 0 l 1,5,-1
 138 1165 l 1,6,-1
 323 1165 l 1,7,-1
 323 152 l 1,8,-1
 715 152 l 1,9,-1
 715 1165 l 1,10,-1
 901 1165 l 1,11,-1
 901 152 l 1,12,-1
 1293 152 l 1,13,-1
 1293 1165 l 1,14,-1
 1479 1165 l 1,15,-1
 1479 152 l 1,0,-1
EndSplineSet
EndChar

StartChar: uni042A.c2sc
Encoding: 65607 -1 204
Width: 1309
GlyphClass: 1
Flags: W
LayerCount: 2
Fore
SplineSet
1238 366 m 0,0,1
 1238 202 1238 202 1124 102 c 128,-1,2
 1010 2 1010 2 814 0 c 2,3,-1
 344 0 l 1,4,-1
 344 1012 l 1,5,-1
 8 1012 l 1,6,-1
 8 1165 l 1,7,-1
 530 1165 l 1,8,-1
 530 727 l 1,9,-1
 808 727 l 2,10,11
 940 727 940 727 1037 683 c 128,-1,12
 1134 639 1134 639 1186 557.5 c 128,-1,13
 1238 476 1238 476 1238 366 c 0,0,1
807 152 m 2,14,15
 921 152 921 152 987 210.5 c 128,-1,16
 1053 269 1053 269 1053 368 c 0,17,18
 1053 463 1053 463 987.5 519 c 128,-1,19
 922 575 922 575 807 575 c 2,20,-1
 530 575 l 1,21,-1
 530 152 l 1,22,-1
 807 152 l 2,14,15
EndSplineSet
EndChar

StartChar: uni042C.c2sc
Encoding: 65609 -1 206
Width: 1102
GlyphClass: 1
Flags: W
LayerCount: 2
Fore
SplineSet
1032 366 m 0,0,1
 1032 202 1032 202 918 102 c 128,-1,2
 804 2 804 2 607 0 c 2,3,-1
 138 0 l 1,4,-1
 138 1165 l 1,5,-1
 323 1165 l 1,6,-1
 323 727 l 1,7,-1
 596 727 l 2,8,9
 802 727 802 727 917 629 c 128,-1,10
 1032 531 1032 531 1032 366 c 0,0,1
600 152 m 2,11,12
 715 152 715 152 781 211.5 c 128,-1,13
 847 271 847 271 847 368 c 0,14,15
 847 459 847 459 784.5 515.5 c 128,-1,16
 722 572 722 572 612 575 c 2,17,-1
 323 575 l 1,18,-1
 323 152 l 1,19,-1
 600 152 l 2,11,12
EndSplineSet
EndChar

StartChar: uni042D.c2sc
Encoding: 65610 -1 207
Width: 1147
GlyphClass: 2
Flags: W
LayerCount: 2
Fore
SplineSet
260 377 m 1,0,1
 280 246 280 246 350.5 190.5 c 128,-1,2
 421 135 421 135 556 135 c 0,3,4
 697 135 697 135 778 228.5 c 128,-1,5
 859 322 859 322 866 507 c 1,6,-1
 419 507 l 1,7,-1
 419 659 l 1,8,-1
 865 659 l 1,9,10
 860 834 860 834 778.5 931.5 c 128,-1,11
 697 1029 697 1029 545 1029 c 0,12,13
 419 1029 419 1029 348.5 971 c 128,-1,14
 278 913 278 913 260 783 c 1,15,-1
 75 783 l 1,16,17
 94 970 94 970 217.5 1075.5 c 128,-1,18
 341 1181 341 1181 545 1181 c 0,19,20
 773 1181 773 1181 909.5 1036.5 c 128,-1,21
 1046 892 1046 892 1051 648 c 1,22,-1
 1051 531 l 2,23,24
 1051 368 1051 368 991 243.5 c 128,-1,25
 931 119 931 119 818 51.5 c 128,-1,26
 705 -16 705 -16 556 -16 c 0,27,28
 349 -16 349 -16 222 87 c 128,-1,29
 95 190 95 190 75 377 c 1,30,-1
 260 377 l 1,0,1
EndSplineSet
EndChar

StartChar: uni042E.c2sc
Encoding: 65611 -1 208
Width: 1654
GlyphClass: 2
Flags: W
LayerCount: 2
Fore
SplineSet
1557 548 m 2,0,1
 1557 287 1557 287 1419 135.5 c 128,-1,2
 1281 -16 1281 -16 1049 -16 c 0,3,4
 828 -16 828 -16 689.5 126 c 128,-1,5
 551 268 551 268 539 510 c 1,6,-1
 323 510 l 1,7,-1
 323 0 l 1,8,-1
 138 0 l 1,9,-1
 138 1165 l 1,10,-1
 323 1165 l 1,11,-1
 323 662 l 1,12,-1
 539 662 l 1,13,14
 553 903 553 903 691 1042 c 128,-1,15
 829 1181 829 1181 1047 1181 c 0,16,17
 1280 1181 1280 1181 1417.5 1029 c 128,-1,18
 1555 877 1555 877 1557 622 c 2,19,-1
 1557 548 l 2,0,1
1374 617 m 2,20,21
 1374 815 1374 815 1288 920 c 128,-1,22
 1202 1025 1202 1025 1047 1025 c 0,23,24
 897 1025 897 1025 809.5 918 c 128,-1,25
 722 811 722 811 722 614 c 2,26,-1
 722 548 l 2,27,28
 722 353 722 353 810 245.5 c 128,-1,29
 898 138 898 138 1049 138 c 0,30,31
 1205 138 1205 138 1289.5 243.5 c 128,-1,32
 1374 349 1374 349 1374 548 c 2,33,-1
 1374 617 l 2,20,21
EndSplineSet
EndChar

StartChar: uni042F.c2sc
Encoding: 65612 -1 209
Width: 1159
GlyphClass: 2
Flags: W
LayerCount: 2
Fore
SplineSet
80 0 m 1,0,-1
 370 525 l 1,1,2
 248 563 248 563 191.5 641.5 c 128,-1,3
 135 720 135 720 135 824 c 0,4,5
 135 985 135 985 245 1074 c 128,-1,6
 355 1163 355 1163 555 1165 c 2,7,-1
 1020 1165 l 1,8,-1
 1020 0 l 1,9,-1
 835 0 l 1,10,-1
 835 479 l 1,11,-1
 531 479 l 1,12,-1
 276 0 l 1,13,-1
 80 0 l 1,0,-1
322 816 m 0,14,15
 322 636 322 636 552 632 c 1,16,-1
 835 632 l 1,17,-1
 835 1012 l 1,18,-1
 562 1012 l 2,19,20
 322 1012 322 1012 322 816 c 0,14,15
EndSplineSet
EndChar

StartChar: uni0492.c2sc
Encoding: 65613 -1 210
Width: 1041
GlyphClass: 1
Flags: W
LayerCount: 2
Fore
SplineSet
647 509 m 1,0,-1
 421 509 l 1,1,-1
 421 0 l 1,2,-1
 236 0 l 1,3,-1
 236 509 l 1,4,-1
 11 509 l 1,5,-1
 11 660 l 1,6,-1
 236 660 l 1,7,-1
 236 1165 l 1,8,-1
 999 1165 l 1,9,-1
 999 1012 l 1,10,-1
 421 1012 l 1,11,-1
 421 660 l 1,12,-1
 647 660 l 1,13,-1
 647 509 l 1,0,-1
EndSplineSet
EndChar

StartChar: uni0496.c2sc
Encoding: 65614 -1 211
Width: 1607
GlyphClass: 1
Flags: W
LayerCount: 2
Fore
SplineSet
1123 602 m 1,0,-1
 1417 150 l 1,1,-1
 1570 150 l 1,2,-1
 1570 -340 l 1,3,-1
 1403 -340 l 1,4,-1
 1403 0 l 1,5,-1
 1281 0 l 1,6,-1
 965 502 l 1,7,-1
 866 502 l 1,8,-1
 866 0 l 1,9,-1
 680 0 l 1,10,-1
 680 502 l 1,11,-1
 580 502 l 1,12,-1
 265 0 l 1,13,-1
 31 0 l 1,14,-1
 421 593 l 1,15,-1
 67 1165 l 1,16,-1
 291 1165 l 1,17,-1
 591 656 l 1,18,-1
 680 656 l 1,19,-1
 680 1165 l 1,20,-1
 866 1165 l 1,21,-1
 866 656 l 1,22,-1
 955 656 l 1,23,-1
 1255 1165 l 1,24,-1
 1479 1165 l 1,25,-1
 1123 602 l 1,0,-1
EndSplineSet
EndChar

StartChar: uni049A.c2sc
Encoding: 65615 -1 212
Width: 1145
GlyphClass: 1
Flags: W
LayerCount: 2
Fore
SplineSet
577 594 m 1,0,-1
 944 150 l 1,1,-1
 1102 150 l 1,2,-1
 1102 -340 l 1,3,-1
 934 -340 l 1,4,-1
 934 0 l 1,5,-1
 829 0 l 1,6,-1
 430 502 l 1,7,-1
 324 502 l 1,8,-1
 324 0 l 1,9,-1
 139 0 l 1,10,-1
 139 1165 l 1,11,-1
 324 1165 l 1,12,-1
 324 656 l 1,13,-1
 424 656 l 1,14,-1
 813 1165 l 1,15,-1
 1036 1165 l 1,16,-1
 577 594 l 1,0,-1
EndSplineSet
EndChar

StartChar: uni049C.c2sc
Encoding: 65616 -1 213
Width: 1289
GlyphClass: 1
Flags: W
LayerCount: 2
Fore
SplineSet
324 656 m 1,0,-1
 404 656 l 1,1,-1
 404 884 l 1,2,-1
 552 884 l 1,3,-1
 552 656 l 1,4,-1
 612 656 l 1,5,-1
 1000 1165 l 1,6,-1
 1224 1165 l 1,7,-1
 764 594 l 1,8,-1
 1255 0 l 1,9,-1
 1016 0 l 1,10,-1
 617 502 l 1,11,-1
 552 502 l 1,12,-1
 552 296 l 1,13,-1
 404 296 l 1,14,-1
 404 502 l 1,15,-1
 324 502 l 1,16,-1
 324 0 l 1,17,-1
 139 0 l 1,18,-1
 139 1165 l 1,19,-1
 324 1165 l 1,20,-1
 324 656 l 1,0,-1
EndSplineSet
EndChar

StartChar: uni04A0.c2sc
Encoding: 65617 -1 214
Width: 1335
GlyphClass: 1
Flags: W
LayerCount: 2
Fore
SplineSet
663 502 m 1,0,-1
 558 502 l 1,1,-1
 558 0 l 1,2,-1
 372 0 l 1,3,-1
 372 1013 l 1,4,-1
 35 1013 l 1,5,-1
 35 1165 l 1,6,-1
 558 1165 l 1,7,-1
 558 656 l 1,8,-1
 657 656 l 1,9,-1
 1046 1165 l 1,10,-1
 1270 1165 l 1,11,-1
 810 594 l 1,12,-1
 1301 0 l 1,13,-1
 1062 0 l 1,14,-1
 663 502 l 1,0,-1
EndSplineSet
EndChar

StartChar: uni04A8.c2sc
Encoding: 65618 -1 215
Width: 1474
GlyphClass: 2
Flags: W
LayerCount: 2
Fore
SplineSet
1371 -20 m 1,0,1
 1154 -20 1154 -20 988 39 c 1,2,3
 851 -21 851 -21 688 -21 c 0,4,5
 410 -21 410 -21 253 141.5 c 128,-1,6
 96 304 96 304 96 602 c 2,7,-1
 96 628 l 2,8,9
 96 887 96 887 218 1035 c 128,-1,10
 340 1183 340 1183 550 1183 c 1,11,-1
 551 1025 l 1,12,13
 425 1025 425 1025 353 927.5 c 128,-1,14
 281 830 281 830 281 630 c 2,15,-1
 281 597 l 2,16,17
 281 365 281 365 385 250.5 c 128,-1,18
 489 136 489 136 688 136 c 0,19,20
 742 136 742 136 792 144 c 1,21,22
 565 322 565 322 564 647 c 2,23,-1
 564 686 l 2,24,25
 564 921 564 921 667.5 1051 c 128,-1,26
 771 1181 771 1181 952 1181 c 0,27,28
 1136 1181 1136 1181 1238.5 1052.5 c 128,-1,29
 1341 924 1341 924 1341 683 c 2,30,-1
 1341 627 l 2,31,32
 1341 333 1341 333 1159 155 c 1,33,34
 1253 137 1253 137 1371 137 c 1,35,-1
 1371 -20 l 1,0,1
749 646 m 2,36,37
 749 338 749 338 974 217 c 1,38,39
 1156 346 1156 346 1156 632 c 2,40,-1
 1156 688 l 2,41,42
 1156 860 1156 860 1107 941.5 c 128,-1,43
 1058 1023 1058 1023 952 1023 c 0,44,45
 754 1023 754 1023 749 706 c 1,46,-1
 749 646 l 2,36,37
EndSplineSet
EndChar

StartChar: uni04B2.c2sc
Encoding: 65620 -1 217
Width: 1192
GlyphClass: 1
Flags: W
LayerCount: 2
Fore
SplineSet
552 730 m 1,0,-1
 839 1165 l 1,1,-1
 1059 1165 l 1,2,-1
 664 587 l 1,3,-1
 969 149 l 1,4,-1
 969 150 l 1,5,-1
 1137 150 l 1,6,-1
 1137 -340 l 1,7,-1
 969 -340 l 1,8,-1
 969 0 l 1,9,-1
 853 0 l 1,10,-1
 554 443 l 1,11,-1
 258 0 l 1,12,-1
 38 0 l 1,13,-1
 444 587 l 1,14,-1
 47 1165 l 1,15,-1
 266 1165 l 1,16,-1
 552 730 l 1,0,-1
EndSplineSet
EndChar

StartChar: uni04B4.c2sc
Encoding: 65621 -1 218
Width: 1633
GlyphClass: 1
Flags: W
LayerCount: 2
Fore
SplineSet
1348 152 m 1,0,-1
 1522 152 l 1,1,-1
 1504 -340 l 1,2,-1
 1339 -340 l 1,3,-1
 1339 0 l 1,4,-1
 395 0 l 1,5,-1
 395 1012 l 1,6,-1
 38 1012 l 1,7,-1
 38 1165 l 1,8,-1
 943 1165 l 1,9,-1
 943 1012 l 1,10,-1
 580 1012 l 1,11,-1
 580 152 l 1,12,-1
 1162 152 l 1,13,-1
 1162 1165 l 1,14,-1
 1348 1165 l 1,15,-1
 1348 152 l 1,0,-1
EndSplineSet
EndChar

StartChar: uni04B8.c2sc
Encoding: 65622 -1 219
Width: 1130
GlyphClass: 1
Flags: W
LayerCount: 2
Fore
SplineSet
991 0 m 1,0,-1
 806 0 l 1,1,-1
 806 450 l 1,2,3
 707 417 707 417 602 406 c 1,4,-1
 602 208 l 1,5,-1
 453 208 l 1,6,-1
 453 403 l 1,7,8
 265 413 265 413 164.5 513.5 c 128,-1,9
 64 614 64 614 61 800 c 2,10,-1
 61 1165 l 1,11,-1
 246 1165 l 1,12,-1
 246 810 l 2,13,14
 246 687 246 687 297.5 627 c 128,-1,15
 349 567 349 567 453 556 c 1,16,-1
 453 796 l 1,17,-1
 602 796 l 1,18,-1
 602 559 l 1,19,20
 705 570 705 570 806 604 c 1,21,-1
 806 1165 l 1,22,-1
 991 1165 l 1,23,-1
 991 0 l 1,0,-1
EndSplineSet
EndChar

StartChar: uni04BA.c2sc
Encoding: 65623 -1 220
Width: 1130
GlyphClass: 2
Flags: W
LayerCount: 2
Fore
SplineSet
138 1165 m 1,0,-1
 323 1165 l 1,1,-1
 323 715 l 1,2,3
 477 764 477 764 630 764 c 0,4,5
 842 764 842 764 953 663 c 128,-1,6
 1064 562 1064 562 1068 369 c 1,7,-1
 1068 0 l 1,8,-1
 883 0 l 1,9,-1
 883 356 l 2,10,11
 883 491 883 491 820 551.5 c 128,-1,12
 757 612 757 612 630 612 c 0,13,14
 478 612 478 612 323 561 c 1,15,-1
 323 0 l 1,16,-1
 138 0 l 1,17,-1
 138 1165 l 1,0,-1
EndSplineSet
EndChar

StartChar: uni04BC.c2sc
Encoding: 65624 -1 221
Width: 1475
GlyphClass: 2
Flags: W
LayerCount: 2
Fore
SplineSet
913 -16 m 0,0,1
 658 -16 658 -16 505 129 c 128,-1,2
 352 274 352 274 352 517 c 1,3,4
 186 528 186 528 94 627 c 128,-1,5
 2 726 2 726 2 894 c 1,6,-1
 155 894 l 1,7,8
 155 800 155 800 202.5 740.5 c 128,-1,9
 250 681 250 681 352 669 c 1,10,11
 357 816 357 816 424.5 934 c 128,-1,12
 492 1052 492 1052 608.5 1116.5 c 128,-1,13
 725 1181 725 1181 867 1181 c 0,14,15
 1115 1181 1115 1181 1251 1042.5 c 128,-1,16
 1387 904 1387 904 1387 645 c 2,17,-1
 1387 515 l 1,18,-1
 537 515 l 1,19,20
 537 338 537 338 633.5 242 c 128,-1,21
 730 146 730 146 913 146 c 0,22,23
 989 146 989 146 1056.5 161.5 c 128,-1,24
 1124 177 1124 177 1204 217 c 1,25,-1
 1261 71 l 1,26,27
 1201 31 1201 31 1109 7.5 c 128,-1,28
 1017 -16 1017 -16 913 -16 c 0,0,1
867 1025 m 0,29,30
 724 1025 724 1025 633.5 928 c 128,-1,31
 543 831 543 831 537 667 c 1,32,-1
 1202 667 l 1,33,-1
 1202 694 l 2,34,35
 1202 855 1202 855 1115 940 c 128,-1,36
 1028 1025 1028 1025 867 1025 c 0,29,30
EndSplineSet
EndChar

StartChar: uni04D8.c2sc
Encoding: 65625 -1 222
Width: 1226
GlyphClass: 2
Flags: W
LayerCount: 2
Fore
SplineSet
583 1181 m 0,0,1
 830 1181 830 1181 978.5 1037 c 128,-1,2
 1127 893 1127 893 1129 654 c 2,3,-1
 1129 518 l 2,4,5
 1129 365 1129 365 1063 243 c 128,-1,6
 997 121 997 121 879 52.5 c 128,-1,7
 761 -16 761 -16 614 -16 c 0,8,9
 366 -16 366 -16 230 122.5 c 128,-1,10
 94 261 94 261 94 518 c 2,11,-1
 94 648 l 1,12,-1
 944 648 l 1,13,-1
 944 649 l 2,14,15
 944 826 944 826 847.5 922.5 c 128,-1,16
 751 1019 751 1019 568 1019 c 0,17,18
 421 1019 421 1019 277 947 c 1,19,-1
 220 1093 l 1,20,21
 285 1134 285 1134 381 1157.5 c 128,-1,22
 477 1181 477 1181 583 1181 c 0,0,1
614 138 m 0,23,24
 759 138 759 138 848.5 237 c 128,-1,25
 938 336 938 336 944 497 c 1,26,-1
 279 497 l 1,27,-1
 279 470 l 2,28,29
 279 310 279 310 365.5 224 c 128,-1,30
 452 138 452 138 614 138 c 0,23,24
EndSplineSet
EndChar

StartChar: uni04E0.c2sc
Encoding: 65626 -1 223
Width: 1087
GlyphClass: 1
Flags: W
LayerCount: 2
Fore
SplineSet
691 1012 m 1,0,-1
 111 1012 l 1,1,-1
 111 1165 l 1,2,-1
 935 1165 l 1,3,-1
 937 1047 l 1,4,-1
 594 690 l 1,5,6
 771 674 771 674 875.5 575.5 c 128,-1,7
 980 477 980 477 980 338 c 0,8,9
 980 171 980 171 854 76 c 128,-1,10
 728 -19 728 -19 513 -19 c 0,11,12
 424 -19 424 -19 338.5 3.5 c 128,-1,13
 253 26 253 26 193 72 c 0,14,15
 71 162 71 162 71 320 c 1,16,-1
 256 320 l 1,17,18
 261 231 261 231 329.5 181 c 128,-1,19
 398 131 398 131 513 131 c 0,20,21
 649 131 649 131 722 183 c 128,-1,22
 795 235 795 235 795 341 c 0,23,24
 795 436 795 436 726 489 c 128,-1,25
 657 542 657 542 523 542 c 2,26,-1
 395 542 l 1,27,-1
 395 707 l 1,28,-1
 691 1012 l 1,0,-1
EndSplineSet
EndChar

StartChar: uni04E8.c2sc
Encoding: 65627 -1 224
Width: 1211
GlyphClass: 2
Flags: W
LayerCount: 2
Fore
SplineSet
1114 548 m 2,0,1
 1114 287 1114 287 976 135.5 c 128,-1,2
 838 -16 838 -16 606 -16 c 0,3,4
 377 -16 377 -16 236.5 137 c 128,-1,5
 96 290 96 290 96 553 c 2,6,-1
 96 615 l 2,7,8
 96 873 96 873 235.5 1027 c 128,-1,9
 375 1181 375 1181 604 1181 c 0,10,11
 837 1181 837 1181 974.5 1029 c 128,-1,12
 1112 877 1112 877 1114 622 c 2,13,-1
 1114 548 l 2,0,1
606 138 m 0,14,15
 753 138 753 138 837 232 c 128,-1,16
 921 326 921 326 930 506 c 1,17,-1
 280 506 l 1,18,19
 290 330 290 330 376.5 234 c 128,-1,20
 463 138 463 138 606 138 c 0,14,15
604 1025 m 0,21,22
 459 1025 459 1025 373.5 927.5 c 128,-1,23
 288 830 288 830 280 658 c 1,24,-1
 930 658 l 1,25,26
 921 837 921 837 836 931 c 128,-1,27
 751 1025 751 1025 604 1025 c 0,21,22
EndSplineSet
EndChar

StartChar: lira.c2sc
Encoding: 65628 -1 225
Width: 1075
GlyphClass: 1
Flags: W
LayerCount: 2
Fore
SplineSet
391 680 m 1,0,-1
 797 680 l 1,1,-1
 797 559 l 1,2,-1
 395 559 l 1,3,-1
 398 466 l 1,4,-1
 398 450 l 1,5,-1
 797 450 l 1,6,-1
 797 329 l 1,7,-1
 393 329 l 1,8,9
 383 223 383 223 347 152 c 1,10,-1
 1007 152 l 1,11,-1
 1006 0 l 1,12,-1
 114 0 l 1,13,-1
 114 152 l 1,14,-1
 124 152 l 1,15,16
 187 170 187 170 207 329 c 1,17,-1
 48 329 l 1,18,-1
 48 450 l 1,19,-1
 213 450 l 1,20,-1
 213 466 l 1,21,-1
 210 559 l 1,22,-1
 48 559 l 1,23,-1
 48 680 l 1,24,-1
 206 680 l 1,25,-1
 204 744 l 2,26,27
 198 945 198 945 299.5 1063 c 128,-1,28
 401 1181 401 1181 582 1181 c 0,29,30
 765 1181 765 1181 866 1079 c 128,-1,31
 967 977 967 977 967 794 c 1,32,-1
 782 794 l 1,33,34
 782 906 782 906 730 965.5 c 128,-1,35
 678 1025 678 1025 582 1025 c 0,36,37
 489 1025 489 1025 437 953.5 c 128,-1,38
 385 882 385 882 389 744 c 2,39,-1
 391 680 l 1,0,-1
EndSplineSet
EndChar

StartChar: Euro.c2sc
Encoding: 65629 -1 226
Width: 995
GlyphClass: 1
Flags: W
LayerCount: 2
Fore
SplineSet
815 406 m 1,0,-1
 407 406 l 1,1,2
 439 135 439 135 697 135 c 0,3,4
 795 135 795 135 899 163 c 1,5,-1
 926 14 l 1,6,7
 808 -16 808 -16 697 -16 c 0,8,9
 486 -16 486 -16 363.5 93 c 128,-1,10
 241 202 241 202 221 406 c 1,11,-1
 66 406 l 1,12,-1
 66 527 l 1,13,-1
 217 527 l 1,14,-1
 217 636 l 1,15,-1
 66 636 l 1,16,-1
 66 757 l 1,17,-1
 221 757 l 1,18,19
 243 961 243 961 365.5 1071 c 128,-1,20
 488 1181 488 1181 695 1181 c 0,21,22
 791 1181 791 1181 926 1150 c 1,23,-1
 905 1001 l 1,24,25
 816 1029 816 1029 695 1029 c 0,26,27
 439 1029 439 1029 407 757 c 1,28,-1
 815 757 l 1,29,-1
 815 636 l 1,30,-1
 403 636 l 1,31,-1
 403 527 l 1,32,-1
 815 527 l 1,33,-1
 815 406 l 1,0,-1
EndSplineSet
EndChar

StartChar: uni2116.c2sc
Encoding: 65630 -1 227
Width: 2082
GlyphClass: 1
Flags: W
LayerCount: 2
Fore
SplineSet
1902 189 m 1,0,-1
 1345 189 l 1,1,-1
 1345 331 l 1,2,-1
 1902 331 l 1,3,-1
 1902 189 l 1,0,-1
1280 846 m 2,4,5
 1280 995 1280 995 1374 1088 c 128,-1,6
 1468 1181 1468 1181 1622 1181 c 128,-1,7
 1776 1181 1776 1181 1870.5 1089 c 128,-1,8
 1965 997 1965 997 1965 842 c 2,9,-1
 1965 762 l 2,10,11
 1965 610 1965 610 1870 519 c 128,-1,12
 1775 428 1775 428 1624 428 c 0,13,14
 1471 428 1471 428 1375.5 519.5 c 128,-1,15
 1280 611 1280 611 1280 767 c 2,16,-1
 1280 846 l 2,4,5
1443 762 m 2,17,18
 1443 673 1443 673 1490 620 c 128,-1,19
 1537 567 1537 567 1624 567 c 0,20,21
 1708 567 1708 567 1755 619.5 c 128,-1,22
 1802 672 1802 672 1802 764 c 2,23,-1
 1802 846 l 2,24,25
 1802 936 1802 936 1753.5 988 c 128,-1,26
 1705 1040 1705 1040 1622 1040 c 0,27,28
 1540 1040 1540 1040 1491.5 988.5 c 128,-1,29
 1443 937 1443 937 1443 843 c 2,30,-1
 1443 762 l 2,17,18
1112 0 m 1,31,-1
 928 0 l 1,32,-1
 323 876 l 1,33,-1
 323 0 l 1,34,-1
 138 0 l 1,35,-1
 138 1165 l 1,36,-1
 323 1165 l 1,37,-1
 928 288 l 1,38,-1
 928 1165 l 1,39,-1
 1112 1165 l 1,40,-1
 1112 0 l 1,31,-1
EndSplineSet
EndChar

StartChar: uni20BD.c2sc
Encoding: 65631 -1 228
Width: 1195
GlyphClass: 1
Flags: W
LayerCount: 2
Fore
SplineSet
676 180 m 1,0,-1
 418 180 l 1,1,-1
 418 0 l 1,2,-1
 232 0 l 1,3,-1
 232 180 l 1,4,-1
 40 180 l 1,5,-1
 40 332 l 1,6,-1
 232 332 l 1,7,-1
 232 421 l 1,8,-1
 40 421 l 1,9,-1
 40 573 l 1,10,-1
 232 573 l 1,11,-1
 232 1165 l 1,12,-1
 695 1165 l 2,13,14
 892 1165 892 1165 1009 1063 c 128,-1,15
 1126 961 1126 961 1126 793 c 0,16,17
 1126 628 1126 628 1012.5 526.5 c 128,-1,18
 899 425 899 425 709 421 c 1,19,-1
 418 421 l 1,20,-1
 418 332 l 1,21,-1
 676 332 l 1,22,-1
 676 180 l 1,0,-1
418 573 m 1,23,-1
 695 573 l 2,24,25
 809 573 809 573 874.5 633 c 128,-1,26
 940 693 940 693 940 791 c 0,27,28
 940 891 940 891 874 952 c 128,-1,29
 808 1013 808 1013 696 1013 c 2,30,-1
 418 1013 l 1,31,-1
 418 573 l 1,23,-1
EndSplineSet
EndChar

StartChar: three.dnom
Encoding: 65632 -1 229
Width: 751
GlyphClass: 1
Flags: W
LayerCount: 2
Fore
SplineSet
265 459 m 1,0,-1
 349 459 l 2,1,2
 423 459 423 459 459 489.5 c 128,-1,3
 495 520 495 520 495 568 c 0,4,5
 495 613 495 613 463.5 642 c 128,-1,6
 432 671 432 671 362 671 c 0,7,8
 305 671 305 671 267.5 645.5 c 128,-1,9
 230 620 230 620 230 579 c 1,10,-1
 73 579 l 1,11,12
 73 677 73 677 154.5 738.5 c 128,-1,13
 236 800 236 800 360 800 c 0,14,15
 497 800 497 800 575 739.5 c 128,-1,16
 653 679 653 679 653 575 c 0,17,18
 653 520 653 520 618 474.5 c 128,-1,19
 583 429 583 429 517 404 c 1,20,21
 666 363 666 363 666 220 c 0,22,23
 666 114 666 114 581 51.5 c 128,-1,24
 496 -11 496 -11 360 -11 c 0,25,26
 228 -11 228 -11 145 52 c 128,-1,27
 62 115 62 115 62 222 c 1,28,-1
 220 222 l 1,29,30
 220 177 220 177 259.5 147 c 128,-1,31
 299 117 299 117 366 117 c 0,32,33
 436 117 436 117 472.5 147 c 128,-1,34
 509 177 509 177 509 228 c 0,35,36
 509 341 509 341 353 343 c 2,37,-1
 265 343 l 1,38,-1
 265 459 l 1,0,-1
EndSplineSet
EndChar

StartChar: four.dnom
Encoding: 65633 -1 230
Width: 751
GlyphClass: 1
Flags: W
LayerCount: 2
Fore
SplineSet
592 299 m 1,0,-1
 699 299 l 1,1,-1
 699 169 l 1,2,-1
 592 169 l 1,3,-1
 592 0 l 1,4,-1
 435 0 l 1,5,-1
 435 169 l 1,6,-1
 60 169 l 1,7,-1
 54 271 l 1,8,-1
 431 789 l 1,9,-1
 592 789 l 1,10,-1
 592 299 l 1,0,-1
212 299 m 1,11,-1
 435 299 l 1,12,-1
 435 588 l 1,13,-1
 418 560 l 1,14,-1
 212 299 l 1,11,-1
EndSplineSet
EndChar

StartChar: five.dnom
Encoding: 65634 -1 231
Width: 751
GlyphClass: 1
Flags: W
LayerCount: 2
Fore
SplineSet
112 387 m 1,0,-1
 162 789 l 1,1,-1
 640 789 l 1,2,-1
 640 657 l 1,3,-1
 291 657 l 1,4,-1
 269 487 l 1,5,6
 334 516 334 516 408 516 c 0,7,8
 536 516 536 516 607.5 447.5 c 128,-1,9
 679 379 679 379 679 258 c 0,10,11
 679 134 679 134 599 61.5 c 128,-1,12
 519 -11 519 -11 385 -11 c 0,13,14
 264 -11 264 -11 180.5 52 c 128,-1,15
 97 115 97 115 91 216 c 1,16,-1
 246 216 l 1,17,18
 256 117 256 117 385 117 c 0,19,20
 450 117 450 117 486 154.5 c 128,-1,21
 522 192 522 192 522 260 c 0,22,23
 522 322 522 322 483 360.5 c 128,-1,24
 444 399 444 399 370 399 c 0,25,26
 297 399 297 399 238 356 c 1,27,-1
 112 387 l 1,0,-1
EndSplineSet
EndChar

StartChar: six.dnom
Encoding: 65635 -1 232
Width: 751
GlyphClass: 1
Flags: W
LayerCount: 2
Fore
SplineSet
552 798 m 1,0,-1
 552 667 l 1,1,-1
 535 667 l 2,2,3
 267 665 267 665 244 446 c 1,4,5
 316 523 316 523 430 523 c 0,6,7
 548 523 548 523 615.5 450.5 c 128,-1,8
 683 378 683 378 683 259 c 0,9,10
 683 143 683 143 603.5 66 c 128,-1,11
 524 -11 524 -11 392 -11 c 0,12,13
 253 -11 253 -11 169.5 72 c 128,-1,14
 86 155 86 155 86 306 c 2,15,-1
 86 357 l 2,16,17
 86 565 86 565 197 679 c 128,-1,18
 308 793 308 793 513 798 c 1,19,-1
 552 798 l 1,0,-1
387 396 m 0,20,21
 336 396 336 396 297.5 374 c 128,-1,22
 259 352 259 352 242 320 c 1,23,-1
 242 286 l 2,24,25
 242 202 242 202 283.5 159.5 c 128,-1,26
 325 117 325 117 388 117 c 0,27,28
 449 117 449 117 488 156.5 c 128,-1,29
 527 196 527 196 527 258 c 128,-1,30
 527 320 527 320 491.5 358 c 128,-1,31
 456 396 456 396 387 396 c 0,20,21
EndSplineSet
EndChar

StartChar: seven.dnom
Encoding: 65636 -1 233
Width: 751
GlyphClass: 1
Flags: W
LayerCount: 2
Fore
SplineSet
677 699 m 1,0,-1
 328 0 l 1,1,-1
 162 0 l 1,2,-1
 511 659 l 1,3,-1
 58 659 l 1,4,-1
 58 789 l 1,5,-1
 677 789 l 1,6,-1
 677 699 l 1,0,-1
EndSplineSet
EndChar

StartChar: eight.dnom
Encoding: 65637 -1 234
Width: 751
GlyphClass: 1
Flags: W
LayerCount: 2
Fore
SplineSet
651 579 m 0,0,1
 651 461 651 461 532 406 c 1,2,3
 671 347 671 347 671 216 c 0,4,5
 671 110 671 110 591 49.5 c 128,-1,6
 511 -11 511 -11 375 -11 c 128,-1,7
 239 -11 239 -11 159 49.5 c 128,-1,8
 79 110 79 110 79 216 c 0,9,10
 79 282 79 282 116 330.5 c 128,-1,11
 153 379 153 379 217 406 c 1,12,13
 98 461 98 461 98 579 c 0,14,15
 98 682 98 682 173.5 741 c 128,-1,16
 249 800 249 800 374 800 c 0,17,18
 500 800 500 800 575.5 741 c 128,-1,19
 651 682 651 682 651 579 c 0,0,1
514 228 m 0,20,21
 514 280 514 280 475 309 c 128,-1,22
 436 338 436 338 374 338 c 0,23,24
 311 338 311 338 273.5 309 c 128,-1,25
 236 280 236 280 236 228 c 0,26,27
 236 175 236 175 274 146 c 128,-1,28
 312 117 312 117 375 117 c 128,-1,29
 438 117 438 117 476 146 c 128,-1,30
 514 175 514 175 514 228 c 0,20,21
374 671 m 0,31,32
 319 671 319 671 287.5 644.5 c 128,-1,33
 256 618 256 618 256 570 c 0,34,35
 256 524 256 524 287.5 496 c 128,-1,36
 319 468 319 468 375 468 c 128,-1,37
 431 468 431 468 462.5 496 c 128,-1,38
 494 524 494 524 494 570 c 128,-1,39
 494 616 494 616 462 643.5 c 128,-1,40
 430 671 430 671 374 671 c 0,31,32
EndSplineSet
EndChar

StartChar: nine.dnom
Encoding: 65638 -1 235
Width: 751
GlyphClass: 1
Flags: W
LayerCount: 2
Fore
SplineSet
502 320 m 1,0,1
 433 255 433 255 332 255 c 0,2,3
 214 255 214 255 143.5 324 c 128,-1,4
 73 393 73 393 73 519 c 0,5,6
 73 640 73 640 154.5 720 c 128,-1,7
 236 800 236 800 365 800 c 0,8,9
 502 800 502 800 580 717.5 c 128,-1,10
 658 635 658 635 661 487 c 2,11,-1
 661 426 l 2,12,13
 661 14 661 14 264 -6 c 1,14,-1
 209 -7 l 1,15,-1
 209 120 l 1,16,17
 359 120 359 120 425 169 c 128,-1,18
 491 218 491 218 502 320 c 1,0,1
368 376 m 0,19,20
 462 376 462 376 504 447 c 1,21,-1
 504 507 l 2,22,23
 504 590 504 590 464.5 630 c 128,-1,24
 425 670 425 670 365 670 c 0,25,26
 306 670 306 670 268 628 c 128,-1,27
 230 586 230 586 230 519 c 0,28,29
 230 454 230 454 267 415 c 128,-1,30
 304 376 304 376 368 376 c 0,19,20
EndSplineSet
EndChar

StartChar: glyph550
Encoding: 65639 -1 236
Width: 918
GlyphClass: 1
Flags: W
LayerCount: 2
Fore
SplineSet
779 651 m 1,0,-1
 143 651 l 1,1,-1
 143 802 l 1,2,-1
 779 802 l 1,3,-1
 779 651 l 1,0,-1
EndSplineSet
EndChar

StartChar: glyph551
Encoding: 65640 -1 237
Width: 693
GlyphClass: 1
Flags: W
LayerCount: 2
Fore
SplineSet
433 1650 m 1,0,-1
 622 1650 l 1,1,-1
 402 1466 l 1,2,-1
 288 1466 l 1,3,-1
 433 1650 l 1,0,-1
158 1251 m 0,4,5
 158 1321 158 1321 208 1369.5 c 128,-1,6
 258 1418 258 1418 330 1418 c 0,7,8
 398 1418 398 1418 447.5 1371 c 128,-1,9
 497 1324 497 1324 497 1251 c 0,10,11
 497 1180 497 1180 448.5 1134 c 128,-1,12
 400 1088 400 1088 330 1088 c 0,13,14
 258 1088 258 1088 208 1135 c 128,-1,15
 158 1182 158 1182 158 1251 c 0,4,5
243 1251 m 0,16,17
 243 1216 243 1216 268.5 1191 c 128,-1,18
 294 1166 294 1166 330 1166 c 0,19,20
 365 1166 365 1166 389 1190.5 c 128,-1,21
 413 1215 413 1215 413 1251 c 0,22,23
 413 1289 413 1289 389 1314 c 128,-1,24
 365 1339 365 1339 330 1339 c 0,25,26
 293 1339 293 1339 268 1313 c 128,-1,27
 243 1287 243 1287 243 1251 c 0,16,17
EndSplineSet
EndChar

StartChar: E.c2sc
Encoding: 65641 -1 238
Width: 998
GlyphClass: 2
Flags: W
LayerCount: 2
Fore
SplineSet
855 526 m 1,0,-1
 323 526 l 1,1,-1
 323 151 l 1,2,-1
 942 151 l 1,3,-1
 942 0 l 1,4,-1
 138 0 l 1,5,-1
 138 1165 l 1,6,-1
 936 1165 l 1,7,-1
 936 1012 l 1,8,-1
 323 1012 l 1,9,-1
 323 678 l 1,10,-1
 855 678 l 1,11,-1
 855 526 l 1,0,-1
EndSplineSet
EndChar

StartChar: g.ss01
Encoding: 65642 -1 239
Width: 1082
GlyphClass: 1
Flags: W
LayerCount: 2
Fore
SplineSet
1041 935 m 1,0,-1
 890 935 l 1,1,2
 948 851 948 851 949 746 c 2,3,-1
 949 721 l 2,4,5
 949 623 949 623 893.5 540 c 128,-1,6
 838 457 838 457 740.5 410 c 128,-1,7
 643 363 643 363 523 363 c 0,8,9
 444 363 444 363 371 384 c 1,10,11
 319 342 319 342 319 278 c 0,12,13
 319 198 319 198 441 196 c 2,14,-1
 624 196 l 2,15,16
 824 195 824 195 927 120.5 c 128,-1,17
 1030 46 1030 46 1030 -97 c 0,18,19
 1030 -181 1030 -181 959.5 -261.5 c 128,-1,20
 889 -342 889 -342 767 -390 c 128,-1,21
 645 -438 645 -438 494 -438 c 0,22,23
 285 -438 285 -438 157.5 -360.5 c 128,-1,24
 30 -283 30 -283 30 -161 c 0,25,26
 30 -78 30 -78 77 -9 c 128,-1,27
 124 60 124 60 208 102 c 1,28,29
 152 149 152 149 152 223 c 0,30,31
 152 347 152 347 267 429 c 1,32,33
 93 535 93 535 93 732 c 2,34,-1
 93 743 l 2,35,36
 93 900 93 900 213.5 1001 c 128,-1,37
 334 1102 334 1102 521 1102 c 0,38,39
 601 1102 601 1102 672 1082 c 1,40,-1
 1039 1082 l 1,41,-1
 1041 935 l 1,0,-1
331 50 m 1,42,43
 275 24 275 24 245 -22.5 c 128,-1,44
 215 -69 215 -69 215 -124 c 0,45,46
 215 -198 215 -198 289 -242.5 c 128,-1,47
 363 -287 363 -287 494 -287 c 0,48,49
 640 -287 640 -287 742.5 -230 c 128,-1,50
 845 -173 845 -173 845 -97 c 0,51,52
 845 -23 845 -23 793 9.5 c 128,-1,53
 741 42 741 42 633 44 c 2,54,-1
 394 44 l 1,55,-1
 331 50 l 1,42,43
278 721 m 2,56,57
 278 638 278 638 348 576.5 c 128,-1,58
 418 515 418 515 523 515 c 0,59,60
 626 515 626 515 695 576 c 128,-1,61
 764 637 764 637 764 725 c 2,62,-1
 764 743 l 2,63,64
 764 830 764 830 695 890 c 128,-1,65
 626 950 626 950 521 950 c 128,-1,66
 416 950 416 950 347 890 c 128,-1,67
 278 830 278 830 278 740 c 2,68,-1
 278 721 l 2,56,57
EndSplineSet
EndChar

StartChar: alpha.ss02
Encoding: 65643 -1 240
Width: 1219
GlyphClass: 1
Flags: W
LayerCount: 2
Fore
SplineSet
898 241 m 1,0,1
 790 -21 790 -21 520 -21 c 0,2,3
 328 -21 328 -21 214 120.5 c 128,-1,4
 100 262 100 262 100 506 c 2,5,-1
 100 521 l 2,6,7
 100 785 100 785 213 943.5 c 128,-1,8
 326 1102 326 1102 522 1102 c 0,9,10
 787 1102 787 1102 895 845 c 1,11,-1
 929 1082 l 1,12,-1
 1105 1082 l 1,13,-1
 999 540 l 1,14,-1
 1112 0 l 1,15,-1
 936 0 l 1,16,-1
 898 241 l 1,0,1
285 500 m 0,17,18
 285 325 285 325 358 227.5 c 128,-1,19
 431 130 431 130 566 130 c 0,20,21
 777 130 777 130 849 521 c 1,22,-1
 849 557 l 1,23,24
 821 747 821 747 748 848.5 c 128,-1,25
 675 950 675 950 568 950 c 0,26,27
 434 950 434 950 359.5 836.5 c 128,-1,28
 285 723 285 723 285 500 c 0,17,18
EndSplineSet
EndChar

StartChar: R.ss03
Encoding: 65644 -1 241
Width: 1356
GlyphClass: 2
Flags: W
LayerCount: 2
Fore
SplineSet
370 628 m 1,0,-1
 370 0 l 1,1,-1
 177 0 l 1,2,-1
 177 1455 l 1,3,-1
 703 1455 l 2,4,5
 943 1455 943 1455 1068.5 1350 c 128,-1,6
 1194 1245 1194 1245 1194 1041 c 0,7,8
 1194 812 1194 812 957 713 c 1,9,10
 1179 644 1179 644 1184 382 c 1,11,-1
 1184 226 l 2,12,13
 1186 85 1186 85 1251 24 c 1,14,-1
 1251 0 l 1,15,-1
 1053 0 l 1,16,17
 994 54 994 54 991 226 c 2,18,-1
 991 365 l 2,19,20
 991 485 991 485 921 556.5 c 128,-1,21
 851 628 851 628 724 628 c 2,22,-1
 370 628 l 1,0,-1
370 785 m 1,23,-1
 683 785 l 2,24,25
 845 785 845 785 923.5 847 c 128,-1,26
 1002 909 1002 909 1002 1041 c 0,27,28
 1002 1297 1002 1297 697 1297 c 2,29,-1
 370 1297 l 1,30,-1
 370 785 l 1,23,-1
EndSplineSet
EndChar

StartChar: K.ss04
Encoding: 65645 -1 242
Width: 1316
GlyphClass: 1
Flags: W
LayerCount: 2
Fore
SplineSet
547 654 m 1,0,-1
 370 654 l 1,1,-1
 370 0 l 1,2,-1
 178 0 l 1,3,-1
 178 1456 l 1,4,-1
 370 1456 l 1,5,-1
 370 814 l 1,6,-1
 520 814 l 1,7,-1
 1029 1456 l 1,8,-1
 1268 1456 l 1,9,-1
 712 750 l 1,10,-1
 1309 0 l 1,11,-1
 1074 0 l 1,12,-1
 547 654 l 1,0,-1
EndSplineSet
EndChar

StartChar: k.ss04
Encoding: 65646 -1 243
Width: 1043
GlyphClass: 2
Flags: W
LayerCount: 2
Fore
SplineSet
460 501 m 1,0,-1
 332 501 l 1,1,-1
 332 0 l 1,2,-1
 146 0 l 1,3,-1
 146 1536 l 1,4,-1
 332 1536 l 1,5,-1
 332 654 l 1,6,-1
 458 654 l 1,7,-1
 773 1082 l 1,8,-1
 992 1082 l 1,9,-1
 614 589 l 1,10,-1
 1044 0 l 1,11,-1
 825 0 l 1,12,-1
 460 501 l 1,0,-1
EndSplineSet
EndChar

StartChar: K.ss05
Encoding: 65647 -1 244
Width: 1341
GlyphClass: 1
Flags: W
LayerCount: 2
Fore
SplineSet
370 693 m 1,0,-1
 370 0 l 1,1,-1
 178 0 l 1,2,-1
 178 1456 l 1,3,-1
 370 1456 l 1,4,-1
 370 809 l 1,5,-1
 382 809 l 1,6,-1
 993 1456 l 1,7,-1
 1234 1456 l 1,8,-1
 573 747 l 1,9,-1
 1274 0 l 1,10,-1
 1037 0 l 1,11,-1
 370 693 l 1,0,-1
EndSplineSet
EndChar

StartChar: k.ss05
Encoding: 65648 -1 245
Width: 1039
GlyphClass: 1
Flags: W
LayerCount: 2
Fore
SplineSet
336 499 m 1,0,-1
 332 499 l 1,1,-1
 332 0 l 1,2,-1
 146 0 l 1,3,-1
 146 1560 l 1,4,-1
 332 1560 l 1,5,-1
 332 653 l 1,6,-1
 333 653 l 1,7,-1
 727 1082 l 1,8,-1
 967 1082 l 1,9,-1
 498 583 l 1,10,-1
 1009 0 l 1,11,-1
 781 0 l 1,12,-1
 336 499 l 1,0,-1
EndSplineSet
EndChar

StartChar: D.c2sc
Encoding: 65649 -1 246
Width: 1152
GlyphClass: 2
Flags: W
LayerCount: 2
Fore
SplineSet
138 0 m 1,0,-1
 138 1165 l 1,1,-1
 499 1165 l 2,2,3
 661 1165 661 1165 786.5 1098.5 c 128,-1,4
 912 1032 912 1032 982 909 c 128,-1,5
 1052 786 1052 786 1055 627 c 2,6,-1
 1055 550 l 2,7,8
 1055 298 1055 298 899.5 149 c 128,-1,9
 744 0 744 0 481 0 c 2,10,-1
 138 0 l 1,0,-1
323 1012 m 1,11,-1
 323 151 l 1,12,-1
 487 151 l 2,13,14
 673 151 673 151 772 255 c 128,-1,15
 871 359 871 359 871 551 c 2,16,-1
 871 615 l 2,17,18
 871 807 871 807 776.5 909.5 c 128,-1,19
 682 1012 682 1012 499 1012 c 2,20,-1
 323 1012 l 1,11,-1
EndSplineSet
EndChar

StartChar: C.c2sc
Encoding: 65650 -1 247
Width: 1148
GlyphClass: 2
Flags: W
LayerCount: 2
Fore
SplineSet
1072 377 m 1,0,1
 1052 190 1052 190 926 87 c 128,-1,2
 800 -16 800 -16 591 -16 c 0,3,4
 367 -16 367 -16 231.5 131.5 c 128,-1,5
 96 279 96 279 96 538 c 2,6,-1
 96 632 l 2,7,8
 96 796 96 796 157.5 920.5 c 128,-1,9
 219 1045 219 1045 334.5 1113 c 128,-1,10
 450 1181 450 1181 602 1181 c 0,11,12
 806 1181 806 1181 929.5 1075.5 c 128,-1,13
 1053 970 1053 970 1072 783 c 1,14,-1
 887 783 l 1,15,16
 869 913 869 913 798.5 971 c 128,-1,17
 728 1029 728 1029 602 1029 c 0,18,19
 449 1029 449 1029 365.5 927.5 c 128,-1,20
 282 826 282 826 281 637 c 2,21,-1
 281 531 l 2,22,23
 281 342 281 342 360.5 238.5 c 128,-1,24
 440 135 440 135 591 135 c 0,25,26
 726 135 726 135 796.5 190.5 c 128,-1,27
 867 246 867 246 887 377 c 1,28,-1
 1072 377 l 1,0,1
EndSplineSet
EndChar

StartChar: B.c2sc
Encoding: 65651 -1 248
Width: 1104
GlyphClass: 2
Flags: W
LayerCount: 2
Fore
SplineSet
138 0 m 1,0,-1
 138 1165 l 1,1,-1
 544 1165 l 2,2,3
 753 1165 753 1165 864 1083.5 c 128,-1,4
 975 1002 975 1002 975 847 c 0,5,6
 975 766 975 766 927.5 703 c 128,-1,7
 880 640 880 640 792 607 c 1,8,9
 891 583 891 583 949 508.5 c 128,-1,10
 1007 434 1007 434 1007 333 c 0,11,12
 1007 175 1007 175 898 88 c 128,-1,13
 789 1 789 1 588 0 c 2,14,-1
 138 0 l 1,0,-1
323 530 m 1,15,-1
 323 151 l 1,16,-1
 585 151 l 2,17,18
 700 151 700 151 761 200 c 128,-1,19
 822 249 822 249 822 334 c 0,20,21
 822 530 822 530 587 530 c 2,22,-1
 323 530 l 1,15,-1
323 671 m 1,23,-1
 557 671 l 2,24,25
 665 671 665 671 727 713.5 c 128,-1,26
 789 756 789 756 789 839 c 0,27,28
 789 1007 789 1007 560 1012 c 1,29,-1
 323 1012 l 1,30,-1
 323 671 l 1,23,-1
EndSplineSet
EndChar

StartChar: A.c2sc
Encoding: 65652 -1 249
Width: 1157
GlyphClass: 2
Flags: W
LayerCount: 2
Fore
SplineSet
838 279 m 1,0,-1
 318 279 l 1,1,-1
 208 0 l 1,2,-1
 19 0 l 1,3,-1
 498 1165 l 1,4,-1
 664 1165 l 1,5,-1
 1136 0 l 1,6,-1
 948 0 l 1,7,-1
 838 279 l 1,0,-1
378 430 m 1,8,-1
 779 430 l 1,9,-1
 580 939 l 1,10,-1
 378 430 l 1,8,-1
EndSplineSet
EndChar

StartChar: glyph564
Encoding: 65653 -1 250
Width: 509
GlyphClass: 1
Flags: W
LayerCount: 2
Fore
SplineSet
299 1595 m 1,0,-1
 406 1512 l 1,1,2
 347 1413 347 1413 344 1302 c 2,3,-1
 344 1166 l 1,4,-1
 159 1166 l 1,5,-1
 159 1296 l 2,6,7
 159 1373 159 1373 201 1459.5 c 128,-1,8
 243 1546 243 1546 299 1595 c 1,0,-1
EndSplineSet
EndChar

StartChar: glyph565
Encoding: 65654 -1 251
Width: 932
GlyphClass: 1
Flags: W
LayerCount: 2
Fore
SplineSet
736 1456 m 1,0,1
 736 1361 736 1361 652 1304 c 128,-1,2
 568 1247 568 1247 433 1247 c 0,3,4
 297 1247 297 1247 213 1304 c 128,-1,5
 129 1361 129 1361 129 1456 c 1,6,-1
 281 1456 l 1,7,8
 281 1401 281 1401 320.5 1370.5 c 128,-1,9
 360 1340 360 1340 433 1340 c 0,10,11
 504 1340 504 1340 543.5 1371.5 c 128,-1,12
 583 1403 583 1403 583 1456 c 1,13,-1
 736 1456 l 1,0,1
237 1674 m 1,14,-1
 391 1674 l 1,15,-1
 503 1476 l 1,16,-1
 402 1476 l 1,17,-1
 237 1674 l 1,14,-1
EndSplineSet
EndChar

StartChar: glyph566
Encoding: 65655 -1 252
Width: 0
GlyphClass: 1
Flags: W
LayerCount: 2
Fore
SplineSet
-308 1405 m 1,0,1
 -308 1331 -308 1331 -356 1278.5 c 128,-1,2
 -404 1226 -404 1226 -474 1226 c 0,3,4
 -527 1226 -527 1226 -583.5 1259 c 128,-1,5
 -640 1292 -640 1292 -657 1296.5 c 128,-1,6
 -674 1301 -674 1301 -694 1301 c 0,7,8
 -729 1301 -729 1301 -752.5 1275.5 c 128,-1,9
 -776 1250 -776 1250 -776 1212 c 1,10,-1
 -860 1233 l 1,11,12
 -860 1308 -860 1308 -812 1361.5 c 128,-1,13
 -764 1415 -764 1415 -694 1415 c 0,14,15
 -647 1415 -647 1415 -582.5 1377.5 c 128,-1,16
 -518 1340 -518 1340 -474 1340 c 0,17,18
 -439 1340 -439 1340 -415 1365.5 c 128,-1,19
 -391 1391 -391 1391 -391 1429 c 1,20,-1
 -308 1405 l 1,0,1
-532 1683 m 1,21,-1
 -361 1683 l 1,22,-1
 -543 1458 l 1,23,-1
 -663 1458 l 1,24,-1
 -532 1683 l 1,21,-1
EndSplineSet
EndChar

StartChar: glyph567
Encoding: 65656 -1 253
Width: 1007
GlyphClass: 1
Flags: W
LayerCount: 2
Fore
SplineSet
402 1512 m 1,0,-1
 554 1512 l 1,1,-1
 844 1249 l 1,2,-1
 647 1249 l 1,3,-1
 478 1408 l 1,4,-1
 308 1249 l 1,5,-1
 110 1249 l 1,6,-1
 402 1512 l 1,0,-1
912 1685 m 1,7,-1
 1112 1685 l 1,8,-1
 911 1426 l 1,9,-1
 770 1426 l 1,10,-1
 912 1685 l 1,7,-1
EndSplineSet
EndChar

StartChar: glyph568
Encoding: 65657 -1 254
Width: 1011
GlyphClass: 1
Flags: W
LayerCount: 2
Fore
SplineSet
838 1231 m 1,0,-1
 641 1231 l 1,1,-1
 471 1389 l 1,2,-1
 301 1231 l 1,3,-1
 105 1231 l 1,4,-1
 395 1493 l 1,5,-1
 547 1493 l 1,6,-1
 838 1231 l 1,0,-1
178 1408 m 1,7,-1
 38 1408 l 1,8,-1
 -162 1666 l 1,9,-1
 37 1666 l 1,10,-1
 178 1408 l 1,7,-1
EndSplineSet
EndChar

StartChar: glyph569
Encoding: 65658 -1 255
Width: 1038
GlyphClass: 1
Flags: W
LayerCount: 2
Fore
SplineSet
838 1252 m 1,0,-1
 668 1252 l 1,1,-1
 471 1438 l 1,2,-1
 274 1252 l 1,3,-1
 105 1252 l 1,4,-1
 377 1514 l 1,5,-1
 565 1514 l 1,6,-1
 838 1252 l 1,0,-1
755 1390 m 1,7,-1
 754 1521 l 1,8,9
 819 1525 819 1525 848.5 1538 c 128,-1,10
 878 1551 878 1551 878 1584 c 0,11,12
 878 1651 878 1651 737 1651 c 1,13,-1
 742 1743 l 1,14,15
 870 1743 870 1743 937 1699 c 128,-1,16
 1004 1655 1004 1655 1004 1582 c 0,17,18
 1004 1523 1004 1523 967 1490 c 128,-1,19
 930 1457 930 1457 870 1450 c 1,20,-1
 869 1390 l 1,21,-1
 755 1390 l 1,7,-1
EndSplineSet
EndChar

StartChar: glyph570
Encoding: 65659 -1 256
Width: 1012
GlyphClass: 1
Flags: W
LayerCount: 2
Fore
SplineSet
838 1252 m 1,0,-1
 668 1252 l 1,1,-1
 471 1410 l 1,2,-1
 274 1252 l 1,3,-1
 105 1252 l 1,4,-1
 406 1496 l 1,5,-1
 537 1496 l 1,6,-1
 838 1252 l 1,0,-1
732 1725 m 1,7,8
 732 1663 732 1663 684 1616 c 128,-1,9
 636 1569 636 1569 571 1569 c 0,10,11
 517 1569 517 1569 462 1604.5 c 128,-1,12
 407 1640 407 1640 367 1640 c 0,13,14
 338 1640 338 1640 311 1617 c 128,-1,15
 284 1594 284 1594 284 1565 c 1,16,-1
 207 1584 l 1,17,18
 207 1647 207 1647 255 1696 c 128,-1,19
 303 1745 303 1745 367 1745 c 0,20,21
 409 1745 409 1745 471 1710 c 128,-1,22
 533 1675 533 1675 571 1675 c 0,23,24
 602 1675 602 1675 628 1697.5 c 128,-1,25
 654 1720 654 1720 654 1748 c 1,26,-1
 732 1725 l 1,7,8
EndSplineSet
EndChar

StartChar: uni0490.c2sc
Encoding: 65660 -1 257
Width: 943
GlyphClass: 1
Flags: W
LayerCount: 2
Fore
SplineSet
716 1476 m 1,0,-1
 901 1476 l 1,1,-1
 901 1012 l 1,2,-1
 323 1012 l 1,3,-1
 323 0 l 1,4,-1
 138 0 l 1,5,-1
 138 1165 l 1,6,-1
 716 1165 l 1,7,-1
 716 1476 l 1,0,-1
EndSplineSet
EndChar

StartChar: glyph572
Encoding: 65661 -1 258
Width: 927
GlyphClass: 1
Flags: W
LayerCount: 2
Fore
SplineSet
736 1456 m 1,0,1
 736 1361 736 1361 652 1304 c 128,-1,2
 568 1247 568 1247 433 1247 c 0,3,4
 297 1247 297 1247 213 1304 c 128,-1,5
 129 1361 129 1361 129 1456 c 1,6,-1
 281 1456 l 1,7,8
 281 1401 281 1401 320.5 1370.5 c 128,-1,9
 360 1340 360 1340 433 1340 c 0,10,11
 504 1340 504 1340 543.5 1371.5 c 128,-1,12
 583 1403 583 1403 583 1456 c 1,13,-1
 736 1456 l 1,0,1
487 1674 m 1,14,-1
 640 1674 l 1,15,-1
 476 1476 l 1,16,-1
 374 1476 l 1,17,-1
 487 1674 l 1,14,-1
EndSplineSet
EndChar

StartChar: glyph573
Encoding: 65662 -1 259
Width: 926
GlyphClass: 1
Flags: W
LayerCount: 2
Fore
SplineSet
714 1456 m 1,0,1
 714 1362 714 1362 633.5 1305 c 128,-1,2
 553 1248 553 1248 422 1248 c 0,3,4
 290 1248 290 1248 209.5 1305.5 c 128,-1,5
 129 1363 129 1363 129 1456 c 1,6,-1
 275 1456 l 1,7,8
 275 1403 275 1403 312 1372 c 128,-1,9
 349 1341 349 1341 422 1341 c 0,10,11
 491 1341 491 1341 529 1371.5 c 128,-1,12
 567 1402 567 1402 567 1456 c 1,13,-1
 714 1456 l 1,0,1
366 1473 m 1,14,-1
 365 1597 l 1,15,16
 439 1601 439 1601 472 1613 c 128,-1,17
 505 1625 505 1625 505 1654 c 0,18,19
 505 1713 505 1713 345 1713 c 1,20,-1
 352 1795 l 1,21,22
 496 1795 496 1795 570 1756 c 128,-1,23
 644 1717 644 1717 644 1651 c 0,24,25
 644 1601 644 1601 603.5 1571.5 c 128,-1,26
 563 1542 563 1542 495 1535 c 1,27,-1
 494 1473 l 1,28,-1
 366 1473 l 1,14,-1
EndSplineSet
EndChar

StartChar: C.ss06
Encoding: 65670 -1 267
Width: 1409
GlyphClass: 1
Flags: W
LayerCount: 2
Fore
SplineSet
1308 462 m 1,0,1
 1284 239 1284 239 1137.5 109 c 128,-1,2
 991 -21 991 -21 753 -21 c 0,3,4
 576 -21 576 -21 432.5 69 c 128,-1,5
 289 159 289 159 208 322.5 c 128,-1,6
 127 486 127 486 126 689 c 2,7,-1
 126 757 l 2,8,9
 126 968 126 968 204.5 1133 c 128,-1,10
 283 1298 283 1298 424.5 1387.5 c 128,-1,11
 566 1477 566 1477 744 1477 c 0,12,13
 981 1477 981 1477 1132.5 1346 c 128,-1,14
 1284 1215 1284 1215 1309 988 c 1,15,-1
 1116 988 l 1,16,17
 1092 1151 1092 1151 996.5 1235 c 128,-1,18
 901 1319 901 1319 744 1319 c 0,19,20
 552 1319 552 1319 435 1164.5 c 128,-1,21
 318 1010 318 1010 318 752 c 2,22,-1
 318 697 l 2,23,24
 318 536 318 536 373 408 c 128,-1,25
 428 280 428 280 528 208 c 128,-1,26
 628 136 628 136 753 136 c 0,27,28
 914 136 914 136 1002 214.5 c 128,-1,29
 1090 293 1090 293 1116 462 c 1,30,-1
 1308 462 l 1,0,1
EndSplineSet
EndChar

StartChar: G.ss06
Encoding: 65671 -1 268
Width: 1454
GlyphClass: 1
Flags: W
LayerCount: 2
Fore
SplineSet
1310 190 m 1,0,1
 1243 93 1243 93 1100.5 36 c 128,-1,2
 958 -21 958 -21 782 -21 c 0,3,4
 595 -21 595 -21 446 69 c 128,-1,5
 297 159 297 159 213 322.5 c 128,-1,6
 129 486 129 486 126 696 c 2,7,-1
 126 741 l 2,8,9
 126 960 126 960 203.5 1127 c 128,-1,10
 281 1294 281 1294 423 1385 c 128,-1,11
 565 1476 565 1476 746 1476 c 0,12,13
 987 1476 987 1476 1131.5 1361.5 c 128,-1,14
 1276 1247 1276 1247 1310 1029 c 1,15,-1
 1118 1029 l 1,16,17
 1088 1178 1088 1178 995 1248 c 128,-1,18
 902 1318 902 1318 746 1318 c 0,19,20
 565 1318 565 1318 447 1172 c 128,-1,21
 329 1026 329 1026 319 784 c 1,22,-1
 318 714 l 2,23,24
 318 542 318 542 378 409 c 128,-1,25
 438 276 438 276 543.5 206 c 128,-1,26
 649 136 649 136 782 136 c 0,27,28
 896 136 896 136 986.5 165 c 128,-1,29
 1077 194 1077 194 1119 242 c 1,30,-1
 1119 568 l 1,31,-1
 783 568 l 1,32,-1
 783 723 l 1,33,-1
 1310 723 l 1,34,-1
 1310 190 l 1,0,1
EndSplineSet
EndChar

StartChar: D.ss06
Encoding: 65672 -1 269
Width: 1427
GlyphClass: 1
Flags: W
LayerCount: 2
Fore
SplineSet
178 0 m 1,0,-1
 178 1456 l 1,1,-1
 611 1456 l 2,2,3
 804 1456 804 1456 960 1370 c 128,-1,4
 1116 1284 1116 1284 1204.5 1126 c 128,-1,5
 1293 968 1293 968 1297 768 c 1,6,-1
 1297 706 l 2,7,8
 1297 498 1297 498 1210.5 338.5 c 128,-1,9
 1124 179 1124 179 965 90.5 c 128,-1,10
 806 2 806 2 603 0 c 2,11,-1
 178 0 l 1,0,-1
370 1298 m 1,12,-1
 370 157 l 1,13,-1
 593 157 l 2,14,15
 827 157 827 157 964.5 306 c 128,-1,16
 1102 455 1102 455 1102 714 c 2,17,-1
 1102 750 l 2,18,19
 1102 1002 1102 1002 969.5 1150 c 128,-1,20
 837 1298 837 1298 605 1298 c 2,21,-1
 370 1298 l 1,12,-1
EndSplineSet
EndChar

StartChar: O.ss06
Encoding: 65673 -1 270
Width: 1504
GlyphClass: 1
Flags: W
LayerCount: 2
Fore
SplineSet
1375 706 m 2,0,1
 1375 500 1375 500 1294 332 c 128,-1,2
 1213 164 1213 164 1070 71.5 c 128,-1,3
 927 -21 927 -21 752 -21 c 0,4,5
 581 -21 581 -21 437.5 71.5 c 128,-1,6
 294 164 294 164 211 329 c 128,-1,7
 128 494 128 494 126 694 c 2,8,-1
 126 749 l 2,9,10
 126 954 126 954 208 1121.5 c 128,-1,11
 290 1289 290 1289 434.5 1383 c 128,-1,12
 579 1477 579 1477 750 1477 c 0,13,14
 923 1477 923 1477 1067 1384.5 c 128,-1,15
 1211 1292 1211 1292 1292.5 1126 c 128,-1,16
 1374 960 1374 960 1375 756 c 2,17,-1
 1375 706 l 2,0,1
1184 751 m 2,18,19
 1184 913 1184 913 1129 1041 c 128,-1,20
 1074 1169 1074 1169 974.5 1240.5 c 128,-1,21
 875 1312 875 1312 750 1312 c 0,22,23
 630 1312 630 1312 531 1240.5 c 128,-1,24
 432 1169 432 1169 375 1042 c 128,-1,25
 318 915 318 915 317 759 c 2,26,-1
 317 706 l 2,27,28
 317 546 317 546 373.5 417 c 128,-1,29
 430 288 430 288 530.5 215 c 128,-1,30
 631 142 631 142 752 142 c 0,31,32
 945 142 945 142 1064.5 299.5 c 128,-1,33
 1184 457 1184 457 1184 712 c 2,34,-1
 1184 751 l 2,18,19
EndSplineSet
EndChar

StartChar: Q.ss06
Encoding: 65674 -1 271
Width: 1507
GlyphClass: 1
Flags: W
LayerCount: 2
Fore
SplineSet
1375 706 m 2,0,1
 1375 494 1375 494 1290.5 324 c 128,-1,2
 1206 154 1206 154 1058 64 c 1,3,-1
 1308 -131 l 1,4,-1
 1177 -252 l 1,5,-1
 869 -9 l 1,6,7
 812 -21 812 -21 752 -21 c 0,8,9
 581 -21 581 -21 437 72 c 128,-1,10
 293 165 293 165 211 328 c 128,-1,11
 129 491 129 491 126 689 c 2,12,-1
 126 747 l 2,13,14
 126 951 126 951 207 1119 c 128,-1,15
 288 1287 288 1287 433 1382 c 128,-1,16
 578 1477 578 1477 750 1477 c 0,17,18
 924 1477 924 1477 1068.5 1383.5 c 128,-1,19
 1213 1290 1213 1290 1294 1122 c 128,-1,20
 1375 954 1375 954 1375 748 c 2,21,-1
 1375 706 l 2,0,1
1184 749 m 2,22,23
 1184 912 1184 912 1129 1040.5 c 128,-1,24
 1074 1169 1074 1169 974.5 1240.5 c 128,-1,25
 875 1312 875 1312 750 1312 c 0,26,27
 630 1312 630 1312 530.5 1240 c 128,-1,28
 431 1168 431 1168 374.5 1040.5 c 128,-1,29
 318 913 318 913 317 757 c 2,30,-1
 317 706 l 2,31,32
 317 546 317 546 373.5 417 c 128,-1,33
 430 288 430 288 530.5 215 c 128,-1,34
 631 142 631 142 752 142 c 0,35,36
 945 142 945 142 1064.5 299.5 c 128,-1,37
 1184 457 1184 457 1184 712 c 2,38,-1
 1184 749 l 2,22,23
EndSplineSet
EndChar

StartChar: one.oldstyle.pnum
Encoding: 65675 -1 272
Width: 981
GlyphClass: 1
Flags: W
LayerCount: 2
Fore
SplineSet
713 0 m 1,0,-1
 528 0 l 1,1,-1
 528 934 l 1,2,-1
 160 795 l 1,3,-1
 160 963 l 1,4,-1
 682 1165 l 1,5,-1
 713 1165 l 1,6,-1
 713 0 l 1,0,-1
EndSplineSet
Substitution2: "'lnum' Lining Figures lookup 21 subtable" one.pnum
Substitution2: "'tnum' Tabular Numbers lookup 20 subtable" one.oldstyle
EndChar

StartChar: two.oldstyle.pnum
Encoding: 65676 -1 273
Width: 1154
GlyphClass: 1
Flags: W
LayerCount: 2
Fore
SplineSet
1056 0 m 1,0,-1
 167 0 l 1,1,-1
 167 131 l 1,2,-1
 676 588 l 2,3,4
 801 703 801 703 811 787 c 1,5,-1
 814 840 l 1,6,7
 814 924 814 924 751.5 978 c 128,-1,8
 689 1032 689 1032 587 1032 c 0,9,10
 465 1032 465 1032 390.5 961 c 128,-1,11
 316 890 316 890 316 773 c 1,12,-1
 131 773 l 1,13,14
 131 885 131 885 191 980.5 c 128,-1,15
 251 1076 251 1076 356 1130 c 128,-1,16
 461 1184 461 1184 587 1184 c 0,17,18
 774 1184 774 1184 886.5 1092 c 128,-1,19
 999 1000 999 1000 999 848 c 0,20,21
 999 671 999 671 802 491 c 2,22,-1
 424 151 l 1,23,-1
 1056 151 l 1,24,-1
 1056 0 l 1,0,-1
EndSplineSet
Substitution2: "'lnum' Lining Figures lookup 21 subtable" two.pnum
Substitution2: "'tnum' Tabular Numbers lookup 20 subtable" two.oldstyle
EndChar

StartChar: three.oldstyle.pnum
Encoding: 65677 -1 274
Width: 1112
GlyphClass: 1
Flags: W
LayerCount: 2
Fore
SplineSet
740 1012 m 1,0,-1
 88 1012 l 1,1,-1
 88 1165 l 1,2,-1
 970 1165 l 1,3,-1
 970 1047 l 1,4,-1
 586 643 l 1,5,6
 764 619 764 619 877 496 c 128,-1,7
 990 373 990 373 990 194 c 0,8,9
 990 -55 990 -55 836 -202 c 128,-1,10
 682 -349 682 -349 427 -349 c 0,11,12
 225 -349 225 -349 15 -246 c 1,13,-1
 67 -107 l 1,14,15
 232 -195 232 -195 409 -195 c 0,16,17
 589 -195 589 -195 696.5 -94 c 128,-1,18
 804 7 804 7 804 172 c 0,19,20
 804 343 804 343 711.5 425.5 c 128,-1,21
 619 508 619 508 427 508 c 2,22,-1
 367 508 l 1,23,-1
 367 611 l 1,24,-1
 740 1012 l 1,0,-1
EndSplineSet
Substitution2: "'lnum' Lining Figures lookup 21 subtable" three.pnum
Substitution2: "'tnum' Tabular Numbers lookup 20 subtable" three.oldstyle
EndChar

StartChar: four.oldstyle.pnum
Encoding: 65678 -1 275
Width: 1231
GlyphClass: 1
Flags: W
LayerCount: 2
Fore
SplineSet
987 150 m 1,0,-1
 1184 150 l 1,1,-1
 1184 -1 l 1,2,-1
 987 -1 l 1,3,-1
 987 -330 l 1,4,-1
 801 -330 l 1,5,-1
 801 -1 l 1,6,-1
 62 -1 l 1,7,-1
 62 108 l 1,8,-1
 788 1165 l 1,9,-1
 987 1165 l 1,10,-1
 987 150 l 1,0,-1
279 150 m 1,11,-1
 801 150 l 1,12,-1
 801 914 l 1,13,-1
 773 861 l 1,14,-1
 279 150 l 1,11,-1
EndSplineSet
Substitution2: "'lnum' Lining Figures lookup 21 subtable" four.pnum
Substitution2: "'tnum' Tabular Numbers lookup 20 subtable" four.oldstyle
EndChar

StartChar: five.oldstyle.pnum
Encoding: 65679 -1 276
Width: 1131
GlyphClass: 1
Flags: W
LayerCount: 2
Fore
SplineSet
134 372 m 1,0,-1
 236 1164 l 1,1,-1
 1024 1164 l 1,2,-1
 1024 993 l 1,3,-1
 382 993 l 1,4,-1
 328 597 l 1,5,6
 439 661 439 661 588 663 c 0,7,8
 788 665 788 665 908.5 531.5 c 128,-1,9
 1029 398 1029 398 1029 173 c 0,10,11
 1029 -66 1029 -66 885 -209 c 128,-1,12
 741 -352 741 -352 500 -352 c 0,13,14
 276 -352 276 -352 101 -238 c 1,15,-1
 159 -99 l 1,16,17
 289 -200 289 -200 500 -200 c 0,18,19
 653 -200 653 -200 748.5 -96.5 c 128,-1,20
 844 7 844 7 844 171 c 0,21,22
 844 314 844 314 761.5 405 c 128,-1,23
 679 496 679 496 544 496 c 0,24,25
 438 496 438 496 379.5 467 c 128,-1,26
 321 438 321 438 287 355 c 1,27,-1
 134 372 l 1,0,-1
EndSplineSet
Substitution2: "'lnum' Lining Figures lookup 21 subtable" five.pnum
Substitution2: "'tnum' Tabular Numbers lookup 20 subtable" five.oldstyle
EndChar

StartChar: seven.oldstyle.pnum
Encoding: 65680 -1 277
Width: 1070
GlyphClass: 1
Flags: W
LayerCount: 2
Fore
SplineSet
1010 1059 m 1,0,-1
 402 -330 l 1,1,-1
 216 -330 l 1,2,-1
 815 1013 l 1,3,-1
 74 1013 l 1,4,-1
 74 1165 l 1,5,-1
 1010 1165 l 1,6,-1
 1010 1059 l 1,0,-1
EndSplineSet
Substitution2: "'lnum' Lining Figures lookup 21 subtable" seven.pnum
Substitution2: "'tnum' Tabular Numbers lookup 20 subtable" seven.oldstyle
EndChar

StartChar: glyph592
Encoding: 65681 -1 278
Width: 932
GlyphClass: 1
Flags: W
LayerCount: 2
Fore
SplineSet
722 1454 m 1,0,1
 722 1359 722 1359 641.5 1300 c 128,-1,2
 561 1241 561 1241 427 1241 c 0,3,4
 292 1241 292 1241 211.5 1300 c 128,-1,5
 131 1359 131 1359 131 1454 c 1,6,-1
 281 1454 l 1,7,8
 281 1400 281 1400 318 1368 c 128,-1,9
 355 1336 355 1336 427 1336 c 0,10,11
 498 1336 498 1336 535 1368 c 128,-1,12
 572 1400 572 1400 572 1454 c 1,13,-1
 722 1454 l 1,0,1
713 1720 m 1,14,15
 713 1646 713 1646 665 1593.5 c 128,-1,16
 617 1541 617 1541 547 1541 c 0,17,18
 489 1541 489 1541 429.5 1578.5 c 128,-1,19
 370 1616 370 1616 326 1616 c 0,20,21
 292 1616 292 1616 268 1590.5 c 128,-1,22
 244 1565 244 1565 244 1527 c 1,23,-1
 161 1548 l 1,24,25
 161 1623 161 1623 209 1676.5 c 128,-1,26
 257 1730 257 1730 326 1730 c 0,27,28
 374 1730 374 1730 438.5 1692.5 c 128,-1,29
 503 1655 503 1655 547 1655 c 0,30,31
 582 1655 582 1655 606 1680.5 c 128,-1,32
 630 1706 630 1706 630 1744 c 1,33,-1
 713 1720 l 1,14,15
EndSplineSet
EndChar

StartChar: glyph593
Encoding: 65682 -1 279
Width: 401
GlyphClass: 1
Flags: W
LayerCount: 2
Fore
SplineSet
289 -359 m 1,0,-1
 103 -359 l 1,1,-1
 103 153 l 1,2,-1
 289 153 l 1,3,-1
 289 -359 l 1,0,-1
EndSplineSet
EndChar

StartChar: OE.c2sc
Encoding: 65683 -1 280
Width: 1700
GlyphClass: 1
Flags: W
LayerCount: 2
Fore
SplineSet
1645 0 m 1,0,-1
 976 0 l 1,1,-1
 606 -16 l 1,2,3
 377 -16 377 -16 236.5 137 c 128,-1,4
 96 290 96 290 96 553 c 2,5,-1
 96 615 l 2,6,7
 96 873 96 873 235.5 1027 c 128,-1,8
 375 1181 375 1181 604 1181 c 1,9,-1
 951 1165 l 1,10,-1
 1638 1165 l 1,11,-1
 1638 1012 l 1,12,-1
 1025 1012 l 1,13,-1
 1025 678 l 1,14,-1
 1557 678 l 1,15,-1
 1557 526 l 1,16,-1
 1025 526 l 1,17,-1
 1025 151 l 1,18,-1
 1645 151 l 1,19,-1
 1645 0 l 1,0,-1
606 138 m 1,20,-1
 840 145 l 1,21,-1
 840 1016 l 1,22,-1
 604 1025 l 1,23,24
 454 1025 454 1025 366.5 918 c 128,-1,25
 279 811 279 811 279 614 c 2,26,-1
 279 548 l 2,27,28
 279 353 279 353 367 245.5 c 128,-1,29
 455 138 455 138 606 138 c 1,20,-1
EndSplineSet
EndChar

StartChar: nine.oldstyle.pnum
Encoding: 65684 -1 281
Width: 1209
GlyphClass: 1
Flags: W
LayerCount: 2
Fore
SplineSet
479 -191 m 0,0,1
 656 -191 656 -191 766 -69 c 128,-1,2
 876 53 876 53 897 270 c 1,3,4
 778 165 778 165 595 165 c 0,5,6
 385 165 385 165 257.5 303 c 128,-1,7
 130 441 130 441 130 667 c 0,8,9
 130 823 130 823 188.5 941 c 128,-1,10
 247 1059 247 1059 352 1122 c 128,-1,11
 457 1185 457 1185 589 1185 c 0,12,13
 824 1185 824 1185 954.5 1039 c 128,-1,14
 1085 893 1085 893 1087 627 c 2,15,-1
 1087 377 l 2,16,17
 1087 157 1087 157 1014 -6 c 128,-1,18
 941 -169 941 -169 806.5 -256 c 128,-1,19
 672 -343 672 -343 497 -343 c 0,20,21
 338 -343 338 -343 220 -283 c 1,22,-1
 258 -141 l 1,23,24
 380 -191 380 -191 479 -191 c 0,0,1
604 317 m 0,25,26
 709 317 709 317 788.5 363 c 128,-1,27
 868 409 868 409 902 491 c 1,28,-1
 902 639 l 2,29,30
 902 836 902 836 821.5 934.5 c 128,-1,31
 741 1033 741 1033 595 1033 c 0,32,33
 468 1033 468 1033 392 935.5 c 128,-1,34
 316 838 316 838 316 667 c 0,35,36
 316 518 316 518 397.5 417.5 c 128,-1,37
 479 317 479 317 604 317 c 0,25,26
EndSplineSet
Substitution2: "'lnum' Lining Figures lookup 21 subtable" nine.pnum
Substitution2: "'tnum' Tabular Numbers lookup 20 subtable" nine.oldstyle
EndChar

StartChar: glyph596
Encoding: 65685 -1 282
Width: 508
GlyphClass: 1
Flags: W
LayerCount: 2
Fore
SplineSet
359 152 m 1,0,-1
 359 -93 l 2,1,2
 358 -261 358 -261 273 -349 c 128,-1,3
 188 -437 188 -437 37 -437 c 0,4,5
 -22 -437 -22 -437 -74 -419 c 1,6,-1
 -60 -262 l 1,7,8
 -30 -275 -30 -275 37 -275 c 0,9,10
 174 -275 174 -275 174 -81 c 2,11,-1
 174 152 l 1,12,-1
 359 152 l 1,0,-1
EndSplineSet
EndChar

StartChar: glyph607
Encoding: 65696 -1 293
Width: 518
GlyphClass: 2
Flags: W
LayerCount: 2
Fore
SplineSet
357 1082 m 1,0,-1
 357 -89 l 2,1,2
 357 -259 357 -259 272 -348 c 0,3,4
 187 -437 187 -437 35 -437 c 0,5,6
 -24 -437 -24 -437 -76 -419 c 1,7,-1
 -62 -272 l 1,8,9
 -32 -285 -32 -285 35 -285 c 0,10,11
 100 -285 100 -285 136 -233 c 0,12,13
 172 -181 172 -181 172 -89 c 2,14,-1
 172 1082 l 1,15,-1
 357 1082 l 1,0,-1
EndSplineSet
EndChar

StartChar: glyph608
Encoding: 65697 -1 294
Width: 516
GlyphClass: 2
Flags: W
LayerCount: 2
Fore
SplineSet
357 1082 m 1,0,-1
 357 -89 l 2,1,2
 357 -259 357 -259 272 -348 c 0,3,4
 187 -437 187 -437 35 -437 c 0,5,6
 -24 -437 -24 -437 -76 -419 c 1,7,-1
 -62 -272 l 1,8,9
 -32 -285 -32 -285 35 -285 c 0,10,11
 100 -285 100 -285 136 -233 c 0,12,13
 172 -181 172 -181 172 -89 c 2,14,-1
 172 1082 l 1,15,-1
 357 1082 l 1,0,-1
EndSplineSet
EndChar

StartChar: glyph609
Encoding: 65698 -1 295
Width: 507
GlyphClass: 2
Flags: W
LayerCount: 2
Fore
SplineSet
341 0 m 1,0,-1
 155 0 l 1,1,-1
 155 1082 l 1,2,-1
 341 1082 l 1,3,-1
 341 0 l 1,0,-1
EndSplineSet
EndChar

StartChar: glyph610
Encoding: 65699 -1 296
Width: 507
GlyphClass: 2
Flags: W
LayerCount: 2
Fore
SplineSet
326 10 m 1,0,-1
 268 -35 l 2,1,2
 155 -126 155 -126 155 -212 c 0,3,4
 155 -284 155 -284 233 -284 c 0,5,6
 281 -284 281 -284 333 -258 c 1,7,-1
 346 -379 l 1,8,9
 276 -423 276 -423 186 -423 c 0,10,11
 97 -423 97 -423 45.5 -371 c 0,12,13
 -6 -319 -6 -319 -6 -233 c 0,14,15
 -6 -144 -6 -144 61 -67 c 0,16,17
 128 10 128 10 251 66 c 1,18,-1
 326 10 l 1,0,-1
341 0 m 1,19,-1
 155 0 l 1,20,-1
 155 1082 l 1,21,-1
 341 1082 l 1,22,-1
 341 0 l 1,19,-1
EndSplineSet
EndChar

StartChar: glyph611
Encoding: 65700 -1 297
Width: 507
GlyphClass: 2
Flags: W
LayerCount: 2
Fore
SplineSet
341 0 m 1,0,-1
 155 0 l 1,1,-1
 155 1082 l 1,2,-1
 341 1082 l 1,3,-1
 341 0 l 1,0,-1
EndSplineSet
EndChar

StartChar: germandbls.sc
Encoding: 65701 -1 298
Width: 1104
GlyphClass: 1
Flags: W
LayerCount: 2
Fore
SplineSet
451 181 m 1,0,1
 533 130 533 130 621 130 c 0,2,3
 718 130 718 130 775 191.5 c 128,-1,4
 832 253 832 253 832 352 c 0,5,6
 832 450 832 450 764 492.5 c 128,-1,7
 696 535 696 535 561 535 c 2,8,-1
 477 535 l 1,9,-1
 477 672 l 1,10,-1
 714 967 l 1,11,12
 636 1029 636 1029 537 1029 c 0,13,14
 326 1029 326 1029 322 762 c 1,15,-1
 322 0 l 1,16,-1
 138 0 l 1,17,-1
 138 757 l 2,18,19
 139 967 139 967 237.5 1074 c 128,-1,20
 336 1181 336 1181 537 1181 c 0,21,22
 644 1181 644 1181 741.5 1138.5 c 128,-1,23
 839 1096 839 1096 940 998 c 1,24,-1
 666 668 l 1,25,26
 835 653 835 653 926 571.5 c 128,-1,27
 1017 490 1017 490 1017 356 c 0,28,29
 1017 184 1017 184 909.5 82 c 128,-1,30
 802 -20 802 -20 621 -20 c 0,31,32
 502 -20 502 -20 398 29 c 1,33,-1
 451 181 l 1,0,1
EndSplineSet
EndChar

StartChar: zero.oldstyle.pnum
Encoding: 65702 -1 299
Width: 1280
GlyphClass: 1
Flags: W
LayerCount: 2
Fore
SplineSet
1161 572 m 2,0,1
 1161 294 1161 294 1021 136.5 c 128,-1,2
 881 -21 881 -21 642 -21 c 128,-1,3
 403 -21 403 -21 262 137 c 128,-1,4
 121 295 121 295 120 571 c 2,5,-1
 120 591 l 2,6,7
 120 867 120 867 260.5 1026 c 128,-1,8
 401 1185 401 1185 640 1185 c 128,-1,9
 879 1185 879 1185 1019.5 1027 c 128,-1,10
 1160 869 1160 869 1161 592 c 2,11,-1
 1161 572 l 2,0,1
975 605 m 2,12,13
 975 807 975 807 886 920 c 128,-1,14
 797 1033 797 1033 640 1033 c 0,15,16
 485 1033 485 1033 396 921 c 128,-1,17
 307 809 307 809 305 612 c 2,18,-1
 305 560 l 2,19,20
 305 359 305 359 396 244.5 c 128,-1,21
 487 130 487 130 642 130 c 0,22,23
 796 130 796 130 884.5 240.5 c 128,-1,24
 973 351 973 351 975 553 c 2,25,-1
 975 605 l 2,12,13
EndSplineSet
Substitution2: "'lnum' Lining Figures lookup 21 subtable" zero.pnum
Substitution2: "'tnum' Tabular Numbers lookup 20 subtable" zero.oldstyle
EndChar

StartChar: seven.pnum
Encoding: 65703 -1 300
Width: 1056
GlyphClass: 1
Flags: W
LayerCount: 2
Fore
SplineSet
978 1352 m 1,0,-1
 400 0 l 1,1,-1
 214 0 l 1,2,-1
 790 1304 l 1,3,-1
 59 1304 l 1,4,-1
 59 1456 l 1,5,-1
 978 1456 l 1,6,-1
 978 1352 l 1,0,-1
EndSplineSet
Substitution2: "'tnum' Tabular Numbers lookup 20 subtable" seven
Substitution2: "'onum' Oldstyle Figures lookup 18 subtable" seven.oldstyle.pnum
EndChar

StartChar: b.ss06
Encoding: 65704 -1 301
Width: 1149
GlyphClass: 1
Flags: W
LayerCount: 2
Fore
SplineSet
1076 530 m 2,0,1
 1076 371 1076 371 1020.5 245 c 128,-1,2
 965 119 965 119 864.5 49.5 c 128,-1,3
 764 -20 764 -20 636 -20 c 0,4,5
 427 -20 427 -20 315 129 c 1,6,-1
 300 0 l 1,7,-1
 140 0 l 1,8,-1
 140 1536 l 1,9,-1
 325 1536 l 1,10,-1
 325 963 l 1,11,12
 437 1102 437 1102 634 1102 c 0,13,14
 835 1102 835 1102 955.5 951.5 c 128,-1,15
 1076 801 1076 801 1076 544 c 2,16,-1
 1076 530 l 2,0,1
891 551 m 0,17,18
 891 731 891 731 809.5 838 c 128,-1,19
 728 945 728 945 588 945 c 0,20,21
 405 945 405 945 325 775 c 1,22,-1
 325 307 l 1,23,24
 410 136 410 136 590 136 c 0,25,26
 728 136 728 136 809.5 244 c 128,-1,27
 891 352 891 352 891 551 c 0,17,18
EndSplineSet
EndChar

StartChar: c.ss06
Encoding: 65705 -1 302
Width: 1074
GlyphClass: 1
Flags: W
LayerCount: 2
Fore
SplineSet
576 131 m 0,0,1
 675 131 675 131 749 191 c 128,-1,2
 823 251 823 251 831 341 c 1,3,-1
 1007 341 l 1,4,5
 1002 247 1002 247 942 163 c 128,-1,6
 882 79 882 79 784 29.5 c 128,-1,7
 686 -20 686 -20 576 -20 c 0,8,9
 353 -20 353 -20 222.5 129 c 128,-1,10
 92 278 92 278 92 530 c 2,11,-1
 92 562 l 2,12,13
 92 719 92 719 151 843.5 c 128,-1,14
 210 968 210 968 319.5 1035 c 128,-1,15
 429 1102 429 1102 576 1102 c 0,16,17
 758 1102 758 1102 878.5 993 c 128,-1,18
 999 884 999 884 1007 710 c 1,19,-1
 831 710 l 1,20,21
 823 815 823 815 751.5 882.5 c 128,-1,22
 680 950 680 950 576 950 c 0,23,24
 433 950 433 950 355.5 847 c 128,-1,25
 278 744 278 744 278 553 c 2,26,-1
 278 520 l 2,27,28
 278 332 278 332 356.5 231.5 c 128,-1,29
 435 131 435 131 576 131 c 0,0,1
EndSplineSet
EndChar

StartChar: d.ss06
Encoding: 65706 -1 303
Width: 1171
GlyphClass: 1
Flags: W
LayerCount: 2
Fore
SplineSet
91 550 m 2,0,1
 91 709 91 709 147.5 835 c 128,-1,2
 204 961 204 961 307 1031.5 c 128,-1,3
 410 1102 410 1102 538 1102 c 0,4,5
 728 1102 728 1102 839 972 c 1,6,-1
 839 1536 l 1,7,-1
 1024 1536 l 1,8,-1
 1024 0 l 1,9,-1
 863 0 l 1,10,-1
 849 120 l 1,11,12
 738 -20 738 -20 536 -20 c 0,13,14
 412 -20 412 -20 310.5 50 c 128,-1,15
 209 120 209 120 150.5 245.5 c 128,-1,16
 92 371 92 371 91 523 c 2,17,-1
 91 550 l 2,0,1
276 529 m 0,18,19
 276 352 276 352 360 244 c 128,-1,20
 444 136 444 136 582 136 c 0,21,22
 757 136 757 136 839 295 c 1,23,-1
 839 792 l 1,24,25
 756 945 756 945 584 945 c 0,26,27
 443 945 443 945 359.5 838 c 128,-1,28
 276 731 276 731 276 529 c 0,18,19
EndSplineSet
EndChar

StartChar: g.ss06
Encoding: 65707 -1 304
Width: 1164
GlyphClass: 1
Flags: W
LayerCount: 2
Fore
SplineSet
91 550 m 2,0,1
 91 796 91 796 215 949 c 128,-1,2
 339 1102 339 1102 537 1102 c 0,3,4
 741 1102 741 1102 852 954 c 1,5,-1
 867 1082 l 1,6,-1
 1024 1082 l 1,7,-1
 1024 72 l 2,8,9
 1022 -167 1022 -167 900 -296.5 c 128,-1,10
 778 -426 778 -426 554 -426 c 0,11,12
 468 -426 468 -426 368 -398.5 c 128,-1,13
 268 -371 268 -371 196 -321 c 1,14,-1
 251 -183 l 1,15,16
 314 -225 314 -225 393.5 -250 c 128,-1,17
 473 -275 473 -275 552 -275 c 0,18,19
 701 -275 701 -275 770 -187 c 128,-1,20
 839 -99 839 -99 839 69 c 2,21,-1
 839 109 l 1,22,23
 728 -20 728 -20 535 -20 c 0,24,25
 341 -20 341 -20 216 136 c 128,-1,26
 91 292 91 292 91 536 c 2,27,-1
 91 550 l 2,0,1
276 529 m 0,28,29
 276 353 276 353 359 244.5 c 128,-1,30
 442 136 442 136 581 136 c 0,31,32
 756 136 756 136 839 297 c 1,33,-1
 839 788 l 1,34,35
 756 945 756 945 583 945 c 0,36,37
 441 945 441 945 358.5 837.5 c 128,-1,38
 276 730 276 730 276 529 c 0,28,29
EndSplineSet
Substitution2: "'ss07' Style Set 7 lookup 17 subtable" g.ss07
EndChar

StartChar: o.ss06
Encoding: 65708 -1 305
Width: 1182
GlyphClass: 1
Flags: W
LayerCount: 2
Fore
SplineSet
90 551 m 2,0,1
 90 707 90 707 154 834.5 c 128,-1,2
 218 962 218 962 331.5 1032 c 128,-1,3
 445 1102 445 1102 589 1102 c 0,4,5
 810 1102 810 1102 951 948 c 128,-1,6
 1092 794 1092 794 1092 543 c 2,7,-1
 1092 529 l 2,8,9
 1092 372 1092 372 1029 246 c 128,-1,10
 966 120 966 120 851.5 50 c 128,-1,11
 737 -20 737 -20 591 -20 c 0,12,13
 448 -20 448 -20 334.5 48 c 128,-1,14
 221 116 221 116 156.5 240.5 c 128,-1,15
 92 365 92 365 90 519 c 2,16,-1
 90 551 l 2,0,1
275 529 m 0,17,18
 275 353 275 353 362.5 242 c 128,-1,19
 450 131 450 131 591 131 c 0,20,21
 733 131 733 131 820 243 c 128,-1,22
 907 355 907 355 907 551 c 0,23,24
 907 726 907 726 818.5 838 c 128,-1,25
 730 950 730 950 589 950 c 0,26,27
 450 950 450 950 362.5 839 c 128,-1,28
 275 728 275 728 275 529 c 0,17,18
EndSplineSet
EndChar

StartChar: p.ss06
Encoding: 65709 -1 306
Width: 1165
GlyphClass: 1
Flags: W
LayerCount: 2
Fore
SplineSet
1074 529 m 2,0,1
 1074 371 1074 371 1019 245 c 128,-1,2
 964 119 964 119 864 49.5 c 128,-1,3
 764 -20 764 -20 635 -20 c 0,4,5
 438 -20 438 -20 325 105 c 1,6,-1
 325 -416 l 1,7,-1
 140 -416 l 1,8,-1
 140 1082 l 1,9,-1
 299 1082 l 1,10,-1
 314 957 l 1,11,12
 430 1102 430 1102 632 1102 c 0,13,14
 825 1102 825 1102 944 962.5 c 128,-1,15
 1063 823 1063 823 1073 589 c 1,16,-1
 1074 529 l 2,0,1
889 550 m 0,17,18
 889 726 889 726 804.5 835.5 c 128,-1,19
 720 945 720 945 577 945 c 0,20,21
 409 945 409 945 325 796 c 1,22,-1
 325 279 l 1,23,24
 408 131 408 131 579 131 c 0,25,26
 719 131 719 131 804 242.5 c 128,-1,27
 889 354 889 354 889 550 c 0,17,18
EndSplineSet
EndChar

StartChar: q.ss06
Encoding: 65710 -1 307
Width: 1180
GlyphClass: 1
Flags: W
LayerCount: 2
Fore
SplineSet
91 549 m 2,0,1
 91 794 91 794 214.5 948 c 128,-1,2
 338 1102 338 1102 542 1102 c 0,3,4
 738 1102 738 1102 849 968 c 1,5,-1
 863 1082 l 1,6,-1
 1023 1082 l 1,7,-1
 1023 -416 l 1,8,-1
 838 -416 l 1,9,-1
 838 100 l 1,10,11
 726 -20 726 -20 540 -20 c 0,12,13
 341 -20 341 -20 216 134.5 c 128,-1,14
 91 289 91 289 91 535 c 2,15,-1
 91 549 l 2,0,1
276 528 m 0,16,17
 276 354 276 354 361 242.5 c 128,-1,18
 446 131 446 131 586 131 c 0,19,20
 752 131 752 131 838 278 c 1,21,-1
 838 807 l 1,22,23
 750 950 750 950 588 950 c 0,24,25
 446 950 446 950 361 838.5 c 128,-1,26
 276 727 276 727 276 528 c 0,16,17
EndSplineSet
EndChar

